<svg id="svg" version="1.1" width="500" height="510" xmlns="http://www.w3.org/2000/svg" xmlns:xlink="http://www.w3.org/1999/xlink" style="display: block;"><g id="svgg"><path id="path0" d="M196.711 20.355 C 196.516 20.551,190.606 21.098,183.578 21.572 C 170.892 22.427,162.413 23.647,153.200 25.942 C 150.560 26.600,146.600 27.550,144.400 28.053 C 142.200 28.557,140.058 29.291,139.640 29.684 C 139.222 30.078,138.376 30.400,137.761 30.400 C 137.145 30.400,135.507 30.891,134.121 31.491 C 132.734 32.092,130.160 33.187,128.400 33.925 C 125.242 35.249,117.874 43.888,115.713 48.800 C 115.229 49.900,114.645 50.980,114.416 51.200 C 113.907 51.689,111.725 56.209,110.168 60.000 C 107.252 67.096,106.367 69.499,105.156 73.600 C 104.441 76.020,103.550 78.720,103.175 79.600 C 102.800 80.480,102.095 83.000,101.608 85.200 C 101.121 87.400,100.162 91.720,99.477 94.800 C 97.839 102.163,97.083 106.803,96.023 116.000 C 95.541 120.180,94.798 125.802,94.373 128.492 C 93.948 131.183,93.603 143.243,93.606 155.292 L 93.612 177.200 97.875 178.600 C 103.427 180.423,104.523 180.368,106.638 178.162 C 108.361 176.366,118.429 167.100,122.400 163.656 C 123.500 162.702,127.100 159.781,130.400 157.164 C 133.700 154.548,136.580 152.204,136.800 151.957 C 140.263 148.069,186.779 116.800,189.099 116.800 C 189.392 116.800,191.042 115.910,192.765 114.822 C 199.060 110.848,224.368 98.497,231.451 95.942 C 235.298 94.554,235.489 94.271,236.697 88.121 C 237.825 82.382,240.962 75.226,243.261 73.145 C 246.159 70.522,240.550 60.104,227.086 43.104 C 217.536 31.047,199.516 17.551,196.711 20.355 M236.485 29.708 C 242.414 35.430,254.228 50.486,258.515 57.784 L 260.630 61.384 265.315 60.637 C 270.287 59.844,281.291 60.971,282.742 62.422 C 283.170 62.850,283.970 63.200,284.520 63.200 C 287.157 63.200,300.800 75.234,300.800 77.561 C 300.800 77.908,306.650 78.372,313.800 78.591 C 320.950 78.810,327.790 79.388,329.000 79.875 C 330.210 80.362,331.200 80.475,331.200 80.127 C 331.200 79.498,322.223 70.411,318.400 67.171 C 317.300 66.239,315.066 64.244,313.435 62.738 C 311.804 61.232,310.293 60.000,310.077 60.000 C 309.861 60.000,306.515 57.626,302.642 54.723 C 298.769 51.821,294.880 49.115,294.000 48.710 C 293.120 48.304,290.600 46.877,288.400 45.537 C 286.200 44.198,283.410 42.685,282.200 42.176 C 280.990 41.666,280.000 40.968,280.000 40.625 C 280.000 40.281,279.623 40.000,279.163 40.000 C 278.356 40.000,267.454 35.195,264.611 33.586 C 263.847 33.154,262.718 32.800,262.102 32.800 C 261.487 32.800,259.952 32.262,258.691 31.605 C 257.431 30.948,255.842 30.408,255.160 30.405 C 254.478 30.402,253.578 30.078,253.160 29.684 C 252.742 29.291,250.600 28.557,248.400 28.053 C 246.200 27.550,242.240 26.594,239.600 25.931 C 229.671 23.434,229.810 23.265,236.485 29.708 M87.099 57.074 C 78.812 63.235,68.105 72.521,64.826 76.391 C 63.712 77.705,61.000 80.772,58.800 83.206 C 56.600 85.639,53.982 88.703,52.982 90.015 C 48.684 95.655,41.600 105.578,41.600 105.958 C 41.600 106.186,40.151 108.738,38.381 111.631 C 29.658 125.883,24.454 139.078,25.731 143.705 C 29.072 155.804,48.818 178.127,63.757 186.692 C 64.288 186.997,66.542 185.857,68.828 184.126 L 72.943 181.012 72.847 167.506 C 72.742 152.765,73.933 129.600,75.187 122.000 C 75.622 119.360,76.336 114.680,76.774 111.600 C 77.889 103.743,80.979 88.833,82.402 84.442 C 87.939 67.357,89.984 62.037,93.743 54.947 C 96.057 50.583,95.658 50.711,87.099 57.074 M309.600 95.130 C 305.646 95.552,305.178 95.803,304.981 97.600 C 303.909 107.398,298.457 116.666,290.152 122.809 C 287.022 125.124,286.587 128.406,288.831 132.769 C 289.423 133.921,290.368 137.654,293.142 149.800 C 296.052 162.545,296.800 166.403,296.800 168.677 C 296.800 170.023,297.155 171.952,297.589 172.962 C 298.397 174.845,298.953 179.018,301.323 201.000 C 302.508 211.994,302.861 213.600,304.094 213.600 C 304.870 213.600,305.703 213.920,305.945 214.311 C 306.187 214.703,307.378 215.270,308.592 215.573 C 313.953 216.908,323.581 226.578,326.342 233.400 C 327.443 236.122,328.862 236.578,332.162 235.273 C 333.173 234.874,336.520 233.772,339.600 232.824 C 346.267 230.773,346.416 230.713,355.600 226.296 C 365.445 221.561,375.096 214.191,378.723 208.636 C 380.745 205.541,378.219 173.947,375.184 164.358 C 374.759 163.015,374.082 160.315,373.680 158.358 C 372.590 153.048,370.907 147.580,368.032 140.000 C 366.613 136.260,365.264 132.390,365.033 131.400 C 364.802 130.410,364.295 129.600,363.907 129.600 C 363.518 129.600,363.195 129.150,363.188 128.600 C 363.155 125.796,350.335 103.285,347.066 100.291 C 342.598 96.198,323.826 93.612,309.600 95.130 M237.600 114.831 C 236.500 115.428,228.940 119.187,220.800 123.184 C 212.660 127.182,205.460 130.795,204.800 131.213 C 204.140 131.631,198.740 134.913,192.800 138.505 C 175.188 149.155,152.227 165.295,141.200 174.776 C 139.880 175.911,135.979 179.261,132.531 182.220 C 129.083 185.179,124.636 189.088,122.649 190.907 L 119.037 194.215 120.312 196.907 C 122.327 201.161,124.000 208.501,124.000 213.085 C 124.000 217.185,124.076 217.325,127.000 218.573 C 130.231 219.952,141.284 223.752,145.200 224.829 C 146.520 225.192,149.580 226.076,152.000 226.794 C 164.966 230.642,181.679 234.441,197.600 237.161 C 201.780 237.875,206.820 238.788,208.800 239.189 C 210.780 239.590,215.460 240.136,219.200 240.403 C 222.940 240.670,227.800 241.201,230.000 241.583 C 232.200 241.966,239.793 242.485,246.873 242.737 L 259.746 243.195 260.645 240.197 C 261.139 238.549,261.787 236.300,262.083 235.200 C 263.696 229.220,272.819 219.119,279.119 216.340 L 282.603 214.803 282.084 206.001 C 281.798 201.161,281.226 195.580,280.812 193.600 C 280.397 191.620,279.647 186.940,279.144 183.200 C 277.356 169.895,274.627 156.002,270.897 141.200 C 270.231 138.560,269.278 134.690,268.779 132.600 C 268.053 129.563,267.534 128.800,266.192 128.800 C 260.847 128.800,251.309 123.900,245.626 118.234 C 240.607 113.231,240.575 113.217,237.600 114.831 M18.028 162.444 C 16.983 166.694,15.912 173.556,15.162 180.800 C 13.086 200.859,12.960 203.398,13.666 210.934 C 15.618 231.771,16.868 241.088,18.370 245.981 C 18.778 247.311,19.706 250.560,20.431 253.200 C 22.020 258.982,23.805 264.309,25.297 267.721 C 25.904 269.107,26.400 270.642,26.400 271.132 C 26.400 271.621,26.750 272.647,27.177 273.411 C 27.604 274.175,29.778 278.657,32.008 283.372 C 37.116 294.174,38.400 294.991,38.400 287.444 C 38.400 277.498,48.902 250.314,57.919 236.920 C 61.338 231.841,61.321 231.994,58.869 228.109 C 55.128 222.184,53.349 209.841,55.507 204.792 C 55.840 204.014,55.331 203.161,54.074 202.392 C 47.411 198.317,27.200 178.002,27.200 175.380 C 27.200 174.915,26.865 174.413,26.457 174.267 C 26.048 174.120,24.092 170.960,22.111 167.244 C 18.966 161.347,18.448 160.737,18.028 162.444 M372.800 232.946 C 364.193 240.724,350.339 248.092,334.666 253.228 C 329.059 255.064,328.056 255.669,327.604 257.484 C 325.425 266.241,311.195 280.000,304.319 280.000 C 302.690 280.000,302.399 281.009,301.153 290.980 C 300.091 299.480,299.505 302.988,296.911 316.400 C 295.458 323.916,290.835 339.804,288.765 344.400 C 288.368 345.280,287.354 347.800,286.510 350.000 C 285.666 352.200,283.492 356.816,281.678 360.257 C 277.731 367.745,278.084 367.786,288.918 361.084 C 292.727 358.728,296.209 356.800,296.655 356.800 C 297.101 356.800,297.587 356.530,297.733 356.200 C 297.880 355.870,298.766 355.060,299.702 354.400 C 320.595 339.674,342.573 316.861,350.782 301.383 C 351.652 299.742,352.642 298.400,352.982 298.400 C 353.322 298.400,353.600 298.046,353.600 297.614 C 353.600 297.182,355.040 294.475,356.800 291.600 C 358.560 288.725,360.000 286.146,360.000 285.870 C 360.000 285.358,365.046 274.335,366.435 271.811 C 366.856 271.047,367.200 269.918,367.200 269.302 C 367.200 268.687,367.738 267.152,368.395 265.891 C 369.052 264.631,369.592 262.991,369.595 262.247 C 369.598 261.503,369.929 260.691,370.330 260.443 C 370.732 260.195,371.313 258.464,371.621 256.596 C 371.929 254.728,372.455 252.840,372.790 252.400 C 373.124 251.960,373.654 249.837,373.966 247.682 C 374.278 245.528,374.843 243.188,375.222 242.482 C 375.845 241.323,377.744 229.451,377.360 229.112 C 377.272 229.034,375.220 230.759,372.800 232.946 M112.776 237.229 C 112.216 237.904,109.530 239.794,106.808 241.429 C 104.086 243.063,101.942 244.760,102.044 245.200 C 102.146 245.640,102.849 248.880,103.607 252.400 C 106.591 266.254,114.682 294.081,116.805 297.789 C 117.242 298.553,117.600 299.579,117.600 300.068 C 117.600 300.558,118.091 302.093,118.691 303.479 C 119.292 304.866,120.422 307.620,121.202 309.600 C 121.983 311.580,123.452 315.000,124.467 317.200 C 125.482 319.400,127.222 323.180,128.334 325.600 C 139.731 350.394,159.011 375.308,172.542 382.724 C 174.224 383.646,175.838 384.730,176.129 385.133 C 176.935 386.248,212.245 386.088,218.800 384.940 C 224.044 384.021,234.474 381.951,244.936 379.753 C 255.450 377.544,266.463 359.990,273.892 333.600 C 277.031 322.449,277.315 321.158,280.407 304.000 C 281.397 298.503,282.955 280.390,282.482 279.874 C 282.217 279.584,280.200 278.368,278.000 277.172 C 274.166 275.087,268.043 269.534,265.524 265.857 C 264.401 264.219,263.369 264.062,248.365 263.248 C 230.685 262.290,221.714 261.486,208.000 259.630 C 194.308 257.778,178.291 255.011,173.600 253.687 C 172.060 253.252,166.120 251.769,160.400 250.390 C 154.680 249.012,149.414 247.575,148.698 247.197 C 147.983 246.819,146.003 246.258,144.298 245.950 C 142.594 245.643,140.840 245.120,140.400 244.788 C 139.960 244.456,138.352 243.917,136.826 243.591 C 135.301 243.264,133.501 242.702,132.826 242.341 C 132.152 241.980,129.260 240.894,126.400 239.927 C 123.540 238.960,119.940 237.697,118.400 237.120 C 114.732 235.745,113.996 235.759,112.776 237.229 M72.846 248.600 C 71.346 251.130,69.912 253.380,69.660 253.600 C 67.072 255.852,56.559 278.603,54.134 287.200 C 51.439 296.751,51.140 298.669,51.130 306.466 C 51.120 315.590,50.927 315.178,59.739 324.848 C 66.756 332.548,80.313 345.600,81.295 345.600 C 81.647 345.600,87.763 350.163,88.800 351.200 C 90.980 353.380,110.821 365.474,113.194 366.070 C 114.297 366.347,115.200 366.894,115.200 367.287 C 115.200 367.679,115.703 368.000,116.318 368.000 C 116.933 368.000,119.543 369.030,122.118 370.289 C 124.693 371.548,128.600 373.206,130.800 373.973 C 133.000 374.741,135.520 375.669,136.400 376.034 C 141.854 378.302,142.097 377.926,138.030 373.510 C 135.846 371.140,133.849 369.020,133.592 368.800 C 128.180 364.163,110.478 334.785,104.428 320.400 C 103.688 318.640,102.606 316.120,102.025 314.800 C 101.444 313.480,100.572 311.500,100.087 310.400 C 98.731 307.324,95.295 297.781,93.461 292.000 C 92.554 289.140,91.518 286.214,91.160 285.498 C 90.802 284.783,90.258 282.803,89.950 281.098 C 89.643 279.394,89.119 277.640,88.786 277.200 C 88.453 276.760,87.919 274.780,87.600 272.800 C 87.281 270.820,86.747 268.840,86.414 268.400 C 86.081 267.960,85.567 266.160,85.272 264.400 C 84.977 262.640,84.423 260.300,84.041 259.200 C 83.659 258.100,82.896 254.910,82.345 252.112 C 80.553 243.004,76.953 241.673,72.846 248.600 " stroke="none" fill="#3974b5" fill-rule="evenodd"></path><path id="path1" d="M180.800 20.800 L 176.400 21.339 182.000 21.383 C 185.080 21.407,189.760 21.158,192.400 20.831 L 197.200 20.235 191.200 20.248 C 187.900 20.255,183.220 20.503,180.800 20.800 M199.457 20.524 C 200.200 21.267,206.400 23.993,206.400 23.577 C 206.400 23.162,200.300 20.000,199.499 20.000 C 199.188 20.000,199.169 20.236,199.457 20.524 M162.800 23.200 C 159.473 24.047,162.748 24.084,166.800 23.246 C 169.491 22.689,169.618 22.584,167.600 22.587 C 166.280 22.588,164.120 22.864,162.800 23.200 M229.600 23.528 C 229.600 23.709,232.949 27.219,237.043 31.328 C 244.017 38.330,253.354 50.472,257.695 58.186 C 259.854 62.025,260.543 62.468,262.800 61.473 C 264.235 60.840,264.209 60.804,262.544 61.123 C 261.027 61.414,260.296 60.813,258.544 57.832 C 254.260 50.543,242.450 35.465,236.610 29.828 C 233.320 26.654,231.028 23.893,231.515 23.692 C 232.002 23.491,231.770 23.298,231.000 23.263 C 230.230 23.228,229.600 23.348,229.600 23.528 M209.133 25.765 C 220.294 34.541,227.788 42.721,235.550 54.600 C 238.125 58.541,240.441 61.176,238.714 58.200 C 232.246 47.054,215.951 28.711,209.547 25.365 L 206.800 23.930 209.133 25.765 M235.200 24.697 C 235.860 25.093,237.660 25.639,239.200 25.912 C 241.089 26.247,241.479 26.185,240.400 25.723 C 237.926 24.664,233.780 23.846,235.200 24.697 M152.400 25.600 C 150.361 26.476,152.465 26.476,155.200 25.600 C 156.808 25.085,156.886 24.955,155.600 24.936 C 154.720 24.923,153.280 25.222,152.400 25.600 M145.600 27.200 C 143.952 27.728,143.882 27.852,145.200 27.908 C 146.080 27.945,147.340 27.627,148.000 27.200 C 149.402 26.294,148.429 26.294,145.600 27.200 M244.800 27.163 C 245.460 27.610,246.690 27.981,247.533 27.988 C 249.580 28.004,248.942 27.546,246.000 26.888 C 244.247 26.496,243.924 26.570,244.800 27.163 M122.176 38.200 C 118.327 43.234,115.651 47.202,116.108 47.197 C 116.269 47.195,118.370 44.514,120.778 41.239 C 123.186 37.965,125.886 34.931,126.778 34.497 C 128.108 33.850,128.157 33.699,127.047 33.654 C 126.302 33.624,124.113 35.668,122.176 38.200 M268.800 35.468 C 268.800 35.674,269.962 36.248,271.382 36.743 C 272.802 37.238,273.612 37.314,273.182 36.912 C 272.271 36.059,268.800 34.915,268.800 35.468 M284.000 42.670 C 284.000 43.211,289.748 46.519,290.092 46.175 C 290.251 46.015,288.946 45.078,287.191 44.091 C 285.436 43.105,284.000 42.465,284.000 42.670 M91.970 52.858 L 89.200 55.315 92.200 53.163 C 95.592 50.729,95.925 51.200,93.558 55.083 C 92.658 56.559,92.036 58.107,92.175 58.524 C 92.313 58.940,93.407 57.283,94.605 54.840 C 97.120 49.713,96.251 49.059,91.970 52.858 M297.600 50.666 C 297.600 51.227,309.765 60.101,310.090 59.777 C 310.253 59.614,307.964 57.707,305.003 55.540 C 298.679 50.912,297.600 50.202,297.600 50.666 M84.077 58.436 C 81.699 60.176,80.031 61.600,80.370 61.600 C 81.073 61.600,88.800 56.038,88.800 55.532 C 88.800 55.000,88.616 55.113,84.077 58.436 M109.734 59.159 C 109.266 60.502,109.053 61.600,109.261 61.600 C 109.801 61.600,111.311 57.444,110.915 57.048 C 110.733 56.867,110.202 57.817,109.734 59.159 M90.428 61.547 C 89.415 63.441,89.368 64.238,90.303 63.660 C 91.009 63.223,92.110 60.000,91.553 60.000 C 91.390 60.000,90.884 60.696,90.428 61.547 M268.600 60.565 C 269.590 60.755,271.210 60.755,272.200 60.565 C 273.190 60.374,272.380 60.218,270.400 60.218 C 268.420 60.218,267.610 60.374,268.600 60.565 M276.800 61.023 C 277.020 61.248,278.609 61.818,280.332 62.288 C 282.055 62.759,283.135 62.834,282.732 62.456 C 281.960 61.731,276.112 60.318,276.800 61.023 M311.275 61.000 C 311.464 61.110,313.054 62.460,314.809 64.000 L 318.000 66.800 315.243 63.800 C 313.727 62.150,312.137 60.800,311.710 60.800 C 311.283 60.800,311.087 60.890,311.275 61.000 M75.562 65.800 L 72.400 69.200 75.800 66.038 C 78.962 63.097,79.568 62.400,78.962 62.400 C 78.832 62.400,77.302 63.930,75.562 65.800 M106.980 65.782 C 106.293 67.662,105.519 70.100,105.261 71.200 L 104.792 73.200 105.686 71.200 C 108.026 65.968,109.015 63.148,108.641 62.774 C 108.415 62.549,107.668 63.902,106.980 65.782 M284.067 63.492 C 285.680 64.903,288.304 65.746,287.302 64.531 C 286.698 63.799,285.648 63.200,284.969 63.200 C 284.289 63.200,283.883 63.331,284.067 63.492 M88.089 67.289 C 87.596 68.703,87.333 69.999,87.504 70.171 C 87.675 70.342,88.218 69.325,88.711 67.911 C 89.204 66.497,89.467 65.201,89.296 65.029 C 89.125 64.858,88.582 65.875,88.089 67.289 M293.449 70.172 C 296.005 72.718,298.685 75.700,299.406 76.800 C 300.127 77.900,300.735 78.371,300.758 77.846 C 300.808 76.708,292.399 67.470,290.282 66.337 C 289.468 65.901,290.893 67.627,293.449 70.172 M244.445 69.386 C 244.758 70.619,244.174 72.104,242.556 74.186 C 240.645 76.645,238.159 81.328,239.483 79.976 C 242.496 76.897,245.600 70.686,244.848 69.242 C 244.024 67.662,244.009 67.668,244.445 69.386 M69.150 71.400 L 66.800 74.000 69.400 71.650 C 70.830 70.358,72.000 69.188,72.000 69.050 C 72.000 68.432,71.340 68.976,69.150 71.400 M320.800 69.050 C 320.800 69.188,321.970 70.358,323.400 71.650 L 326.000 74.000 323.650 71.400 C 321.460 68.976,320.800 68.432,320.800 69.050 M103.717 75.000 C 103.503 75.770,103.078 77.300,102.774 78.400 C 102.402 79.741,102.486 80.136,103.026 79.600 C 103.906 78.726,105.180 73.600,104.517 73.600 C 104.292 73.600,103.932 74.230,103.717 75.000 M62.799 77.800 C 55.652 85.747,54.831 86.740,56.690 85.183 C 58.798 83.417,66.757 74.400,66.208 74.400 C 66.015 74.400,64.481 75.930,62.799 77.800 M328.850 77.261 C 330.363 79.055,331.762 80.393,331.960 80.235 C 332.158 80.076,330.921 78.609,329.210 76.973 L 326.101 74.000 328.850 77.261 M83.747 79.506 C 83.446 80.290,83.223 81.531,83.251 82.265 C 83.284 83.149,83.562 82.948,84.074 81.669 C 84.498 80.606,84.721 79.364,84.570 78.909 C 84.418 78.454,84.048 78.722,83.747 79.506 M322.800 79.590 C 329.155 80.852,331.614 81.028,329.200 80.050 C 328.320 79.693,325.260 79.194,322.400 78.940 L 317.200 78.478 322.800 79.590 M100.859 85.297 C 100.347 87.331,100.091 89.158,100.291 89.358 C 100.687 89.753,101.193 88.229,102.004 84.200 C 102.799 80.250,101.917 81.095,100.859 85.297 M81.606 87.179 C 81.111 89.016,80.853 90.942,81.033 91.459 C 81.213 91.977,81.749 90.605,82.224 88.410 C 83.286 83.499,82.838 82.604,81.606 87.179 M52.937 88.878 C 51.457 91.248,52.114 91.426,53.837 89.122 C 54.628 88.065,54.984 87.200,54.630 87.200 C 54.275 87.200,53.513 87.955,52.937 88.878 M235.851 91.398 C 235.652 93.460,235.023 94.277,232.800 95.359 C 231.260 96.109,230.306 96.740,230.679 96.762 C 233.478 96.920,236.800 94.069,236.800 91.509 C 236.800 88.060,236.180 87.988,235.851 91.398 M98.876 93.543 C 98.614 94.894,98.191 97.080,97.936 98.400 C 97.681 99.720,97.656 100.800,97.880 100.800 C 98.454 100.800,100.224 91.958,99.746 91.479 C 99.529 91.263,99.138 92.191,98.876 93.543 M46.449 97.684 C 44.168 100.811,42.438 103.504,42.603 103.670 C 42.859 103.925,48.614 96.308,50.640 93.034 C 52.504 90.020,50.070 92.722,46.449 97.684 M79.697 95.000 C 78.859 97.852,78.351 102.846,79.066 101.200 C 79.842 99.415,80.865 93.600,80.404 93.600 C 80.241 93.600,79.923 94.230,79.697 95.000 M308.958 94.143 C 304.366 94.515,304.361 94.521,303.665 100.337 C 303.062 105.371,303.929 104.626,304.664 99.478 L 305.217 95.600 310.809 94.980 C 315.921 94.414,323.460 94.640,332.800 95.639 C 335.451 95.923,335.955 95.828,334.714 95.280 C 332.756 94.416,315.177 93.640,308.958 94.143 M338.800 96.677 C 341.274 97.736,345.420 98.554,344.000 97.703 C 343.340 97.307,341.540 96.761,340.000 96.488 C 338.111 96.153,337.721 96.215,338.800 96.677 M224.928 98.529 C 223.019 99.406,221.613 100.280,221.805 100.471 C 222.198 100.865,229.600 97.723,229.600 97.163 C 229.600 96.557,228.559 96.862,224.928 98.529 M347.644 101.000 C 348.933 102.430,350.313 103.960,350.711 104.400 C 351.701 105.494,350.514 103.344,348.614 100.600 C 347.777 99.390,346.688 98.400,346.196 98.400 C 345.703 98.400,346.355 99.570,347.644 101.000 M217.684 101.668 C 216.630 102.089,215.968 102.635,216.213 102.880 C 216.458 103.125,217.680 102.771,218.929 102.095 C 221.442 100.733,220.677 100.471,217.684 101.668 M96.431 106.031 C 96.121 108.508,96.048 110.715,96.268 110.935 C 96.488 111.155,96.921 109.308,97.231 106.831 C 97.540 104.354,97.613 102.147,97.393 101.927 C 97.173 101.707,96.740 103.554,96.431 106.031 M213.000 104.025 C 212.010 104.423,211.200 104.940,211.200 105.174 C 211.200 105.951,212.473 105.616,214.047 104.425 C 215.817 103.087,215.569 102.992,213.000 104.025 M77.355 106.563 C 77.115 107.573,76.730 110.560,76.499 113.200 C 76.125 117.476,76.202 117.305,77.207 111.634 C 78.253 105.726,78.352 102.372,77.355 106.563 M301.689 107.400 C 300.896 109.779,300.923 109.868,302.011 108.447 C 302.665 107.593,303.200 106.423,303.200 105.847 C 303.200 104.063,302.595 104.685,301.689 107.400 M39.291 108.809 C 38.305 110.564,37.665 112.000,37.870 112.000 C 38.411 112.000,41.719 106.252,41.375 105.908 C 41.215 105.749,40.278 107.054,39.291 108.809 M208.200 106.425 C 207.210 106.823,206.400 107.340,206.400 107.574 C 206.400 108.351,207.673 108.016,209.247 106.825 C 211.017 105.487,210.769 105.392,208.200 106.425 M199.850 110.710 C 193.147 114.427,193.116 115.030,199.800 111.684 C 202.990 110.087,205.600 108.604,205.600 108.390 C 205.600 107.691,204.472 108.146,199.850 110.710 M297.728 114.150 C 296.259 116.115,295.208 117.875,295.394 118.060 C 295.579 118.246,296.909 116.756,298.350 114.750 C 301.756 110.008,301.215 109.485,297.728 114.150 M94.912 116.963 C 93.718 127.460,93.425 131.565,93.902 131.125 C 94.500 130.573,96.215 113.548,95.723 113.056 C 95.542 112.875,95.177 114.633,94.912 116.963 M243.964 116.687 C 248.118 120.885,252.959 124.800,253.996 124.800 C 254.350 124.800,253.236 123.771,251.520 122.513 C 249.804 121.255,246.850 118.555,244.956 116.513 C 243.062 114.471,241.198 112.800,240.815 112.800 C 240.431 112.800,241.848 114.549,243.964 116.687 M236.000 114.902 C 234.460 115.584,232.340 116.480,231.289 116.893 C 230.238 117.307,229.553 117.819,229.766 118.033 C 230.207 118.474,239.200 114.639,239.200 114.010 C 239.200 113.476,239.257 113.460,236.000 114.902 M184.400 119.306 C 178.956 122.675,177.865 123.940,182.800 121.160 C 188.110 118.169,190.125 116.797,189.178 116.815 C 188.750 116.824,186.600 117.944,184.400 119.306 M219.716 122.491 C 215.380 124.696,211.965 126.632,212.126 126.793 C 212.412 127.079,227.838 119.629,228.657 118.810 C 229.823 117.644,226.802 118.887,219.716 122.491 M74.906 123.272 C 74.627 124.663,74.447 127.465,74.504 129.500 C 74.589 132.542,74.730 132.143,75.296 127.259 C 76.010 121.104,75.789 118.854,74.906 123.272 M289.010 122.650 C 286.361 124.441,285.880 126.235,287.254 129.200 C 287.801 130.380,287.867 130.080,287.503 128.057 C 287.068 125.636,287.327 125.051,289.705 123.078 C 292.915 120.416,292.602 120.222,289.010 122.650 M256.353 126.011 C 257.207 126.665,258.377 127.200,258.953 127.200 C 260.737 127.200,260.115 126.595,257.400 125.689 C 255.021 124.896,254.932 124.923,256.353 126.011 M170.986 127.629 C 167.962 129.683,166.827 131.131,169.400 129.651 C 171.286 128.566,174.903 125.640,174.386 125.618 C 174.158 125.608,172.628 126.513,170.986 127.629 M262.400 128.010 C 263.060 128.431,264.650 128.781,265.933 128.788 C 269.028 128.804,268.355 128.342,264.400 127.736 C 262.221 127.402,261.583 127.489,262.400 128.010 M268.524 132.000 C 268.797 133.540,269.346 135.340,269.745 136.000 C 270.688 137.562,269.684 132.062,268.722 130.400 C 268.290 129.653,268.215 130.257,268.524 132.000 M163.786 132.429 C 162.144 133.545,160.800 134.630,160.800 134.840 C 160.800 135.051,162.240 134.270,164.000 133.105 C 166.795 131.256,167.739 130.400,166.986 130.400 C 166.868 130.400,165.428 131.313,163.786 132.429 M288.462 134.000 C 289.489 138.282,290.408 139.827,289.890 136.400 C 289.624 134.640,289.064 132.840,288.646 132.400 C 288.164 131.892,288.097 132.476,288.462 134.000 M73.840 137.600 C 73.840 140.020,73.990 141.010,74.173 139.800 C 74.356 138.590,74.356 136.610,74.173 135.400 C 73.990 134.190,73.840 135.180,73.840 137.600 M191.367 138.441 C 187.755 140.664,184.800 142.685,184.800 142.933 C 184.800 143.181,185.610 142.869,186.600 142.239 C 187.590 141.609,190.650 139.741,193.400 138.089 C 197.703 135.503,199.128 134.400,198.167 134.400 C 198.038 134.400,194.978 136.218,191.367 138.441 M154.731 138.626 C 145.732 144.863,136.853 151.595,136.826 152.202 C 136.812 152.533,140.310 150.167,144.600 146.946 C 148.890 143.724,154.110 139.926,156.200 138.506 C 158.290 137.085,160.000 135.760,160.000 135.562 C 160.000 134.990,159.864 135.069,154.731 138.626 M24.476 139.580 C 24.199 140.686,24.499 142.718,25.157 144.180 L 26.334 146.800 25.795 144.400 C 25.499 143.080,25.319 141.010,25.396 139.800 C 25.570 137.065,25.134 136.961,24.476 139.580 M270.916 141.200 C 271.185 142.960,271.735 144.940,272.137 145.600 C 272.615 146.382,272.682 145.825,272.331 144.000 C 271.505 139.707,270.332 137.387,270.916 141.200 M92.600 145.121 C 90.479 167.466,92.614 181.024,97.921 178.901 C 98.405 178.708,97.636 178.292,96.214 177.978 L 93.628 177.406 93.414 158.103 C 93.250 143.346,93.059 140.289,92.600 145.121 M290.536 141.200 C 290.549 142.080,290.848 143.700,291.200 144.800 L 291.841 146.800 291.864 144.800 C 291.877 143.700,291.578 142.080,291.200 141.200 L 290.512 139.600 290.536 141.200 M369.259 143.200 C 369.553 144.300,370.127 145.740,370.535 146.400 C 371.050 147.234,371.113 146.990,370.741 145.600 C 370.447 144.500,369.873 143.060,369.465 142.400 C 368.950 141.566,368.887 141.810,369.259 143.200 M175.794 148.412 C 171.507 151.278,168.000 153.816,168.000 154.052 C 168.000 154.287,168.462 154.192,169.028 153.840 C 171.514 152.292,182.872 144.516,183.560 143.891 C 185.464 142.160,182.986 143.602,175.794 148.412 M26.400 147.800 C 26.400 148.182,26.922 149.193,27.560 150.047 C 28.680 151.545,28.704 151.536,28.264 149.788 C 27.809 147.982,26.400 146.479,26.400 147.800 M73.137 164.000 C 73.137 173.020,73.254 176.710,73.397 172.200 C 73.539 167.690,73.539 160.310,73.397 155.800 C 73.254 151.290,73.137 154.980,73.137 164.000 M273.337 151.200 C 273.599 153.180,274.133 155.340,274.523 156.000 C 274.965 156.746,275.032 155.990,274.703 154.000 C 273.916 149.253,272.766 146.895,273.337 151.200 M292.959 151.200 C 292.959 152.300,293.248 154.100,293.600 155.200 L 294.241 157.200 294.241 155.200 C 294.241 154.100,293.952 152.300,293.600 151.200 L 292.959 149.200 292.959 151.200 M372.012 151.667 C 372.019 152.510,372.390 153.740,372.837 154.400 C 373.430 155.276,373.504 154.953,373.112 153.200 C 372.454 150.258,371.996 149.620,372.012 151.667 M129.442 157.811 C 126.056 160.528,123.415 162.882,123.575 163.041 C 123.868 163.335,136.000 153.614,136.000 153.086 C 136.000 152.576,135.682 152.805,129.442 157.811 M158.564 160.433 C 154.104 163.751,150.207 166.866,149.904 167.355 C 149.602 167.844,153.100 165.436,157.677 162.003 C 166.702 155.236,167.738 154.400,167.097 154.400 C 166.865 154.400,163.025 157.115,158.564 160.433 M31.606 156.800 C 35.714 164.245,60.663 188.000,64.375 188.000 C 64.994 188.000,73.600 181.531,73.600 181.065 C 73.600 180.550,66.556 185.500,65.994 186.410 C 64.299 189.152,45.215 173.324,35.597 161.200 C 31.319 155.807,30.652 155.072,31.606 156.800 M374.088 160.000 C 374.361 161.540,374.907 163.340,375.303 164.000 C 376.154 165.420,375.336 161.274,374.277 158.800 C 373.815 157.721,373.753 158.111,374.088 160.000 M275.374 160.000 C 275.383 161.100,275.664 163.080,276.000 164.400 L 276.611 166.800 276.626 164.400 C 276.634 163.080,276.352 161.100,276.000 160.000 L 275.359 158.000 275.374 160.000 M294.958 161.600 C 295.692 166.891,296.894 170.135,296.327 165.294 C 296.076 163.146,295.553 160.626,295.165 159.694 C 294.693 158.562,294.625 159.193,294.958 161.600 M17.612 161.400 C 17.620 162.317,17.829 162.478,18.219 161.866 C 18.580 161.298,20.195 163.571,22.341 167.666 C 24.281 171.370,26.142 174.400,26.476 174.400 C 26.810 174.400,25.846 172.345,24.333 169.832 C 22.820 167.320,21.154 164.080,20.630 162.632 C 19.626 159.855,17.591 159.024,17.612 161.400 M115.110 170.167 C 111.420 173.559,107.702 176.979,106.849 177.767 C 105.996 178.555,105.636 179.182,106.049 179.161 C 106.883 179.117,123.089 164.013,122.310 164.005 C 122.041 164.002,118.801 166.775,115.110 170.167 M376.554 170.800 C 376.799 173.440,377.135 175.750,377.300 175.933 C 377.836 176.529,377.429 170.868,376.759 168.400 C 376.331 166.822,376.260 167.644,376.554 170.800 M16.109 168.800 C 16.037 169.900,15.793 171.700,15.567 172.800 L 15.155 174.800 16.014 172.831 C 16.487 171.748,16.731 169.948,16.557 168.831 L 16.240 166.800 16.109 168.800 M138.000 176.657 C 132.280 181.414,127.071 186.003,126.424 186.853 C 125.025 188.695,126.428 187.605,133.227 181.573 C 135.441 179.608,139.025 176.560,141.191 174.800 C 146.812 170.233,149.260 168.054,148.800 168.029 C 148.580 168.017,143.720 171.900,138.000 176.657 M277.774 173.200 C 277.766 174.520,278.048 176.500,278.400 177.600 L 279.041 179.600 279.026 177.600 C 279.017 176.500,278.736 174.520,278.400 173.200 L 277.789 170.800 277.774 173.200 M297.296 175.200 C 298.237 182.070,299.175 184.777,298.682 179.200 C 298.429 176.340,297.903 173.460,297.513 172.800 C 297.071 172.053,296.989 172.959,297.296 175.200 M27.331 175.734 C 27.704 177.030,37.112 187.955,37.510 187.556 C 37.688 187.378,36.428 185.695,34.710 183.816 C 32.991 181.937,30.568 179.140,29.323 177.600 C 28.079 176.060,27.182 175.221,27.331 175.734 M102.677 180.907 C 103.736 181.523,104.404 181.516,105.037 180.883 C 105.681 180.239,105.281 180.007,103.560 180.024 C 101.491 180.046,101.382 180.155,102.677 180.907 M13.754 186.483 C 13.669 188.948,13.434 193.268,13.230 196.083 L 12.861 201.200 13.645 196.400 C 14.077 193.760,14.312 189.440,14.169 186.800 L 13.908 182.000 13.754 186.483 M378.990 190.800 C 379.226 195.640,379.549 199.750,379.709 199.933 C 380.265 200.570,379.877 189.178,379.222 185.600 C 378.791 183.246,378.711 185.047,378.990 190.800 M280.056 188.867 C 280.087 190.810,280.441 193.120,280.843 194.000 C 281.325 195.056,281.408 193.967,281.087 190.800 C 280.498 184.998,279.979 184.024,280.056 188.867 M299.780 192.000 C 300.531 200.671,301.541 205.232,301.022 197.611 C 300.768 193.877,300.283 189.917,299.945 188.811 C 299.604 187.697,299.530 189.120,299.780 192.000 M120.957 191.438 C 118.240 194.242,117.820 195.547,119.336 196.484 C 119.987 196.887,120.096 196.604,119.693 195.553 C 119.254 194.411,119.851 193.408,122.148 191.422 C 123.817 189.980,124.807 188.800,124.348 188.800 C 123.889 188.800,122.363 189.987,120.957 191.438 M40.868 191.000 C 40.905 191.330,42.435 192.843,44.268 194.363 L 47.600 197.126 44.438 193.763 C 41.185 190.304,40.751 189.968,40.868 191.000 M48.025 197.388 C 48.055 198.135,55.137 203.547,55.513 203.111 C 55.661 202.940,54.031 201.445,51.891 199.788 C 49.751 198.131,48.011 197.051,48.025 197.388 M120.789 199.963 C 121.208 201.423,121.792 202.838,122.088 203.109 C 122.898 203.849,121.599 198.915,120.757 198.054 C 120.336 197.623,120.350 198.431,120.789 199.963 M282.195 206.800 C 282.429 211.200,282.751 214.950,282.910 215.133 C 283.454 215.759,283.083 206.010,282.426 202.400 C 281.988 199.994,281.911 201.453,282.195 206.800 M54.904 206.600 C 54.270 208.966,54.366 216.031,55.056 217.770 C 55.355 218.524,55.600 215.914,55.600 211.970 C 55.600 204.070,55.594 204.025,54.904 206.600 M122.800 211.231 L 122.800 217.605 125.465 218.871 C 126.931 219.567,128.339 219.928,128.595 219.672 C 128.850 219.416,127.921 218.810,126.530 218.325 C 124.070 217.468,123.998 217.308,123.944 212.522 C 123.913 209.815,123.643 206.983,123.344 206.228 C 123.045 205.474,122.800 207.725,122.800 211.231 M13.393 214.800 C 13.626 220.080,13.948 224.550,14.108 224.733 C 14.650 225.353,14.265 213.231,13.615 209.200 C 13.200 206.627,13.121 208.625,13.393 214.800 M301.744 209.820 C 301.615 213.245,301.812 213.720,303.652 214.420 C 306.234 215.402,306.617 215.398,306.000 214.400 C 305.728 213.960,304.827 213.600,303.997 213.600 C 302.772 213.600,302.431 212.884,302.188 209.800 L 301.888 206.000 301.744 209.820 M374.800 213.141 C 372.491 215.800,363.320 222.584,359.735 224.283 C 358.049 225.083,356.865 225.932,357.104 226.171 C 357.824 226.891,368.899 219.588,373.600 215.293 C 376.020 213.082,377.640 211.278,377.200 211.285 C 376.760 211.292,375.680 212.128,374.800 213.141 M279.400 216.025 C 278.410 216.423,277.600 216.940,277.600 217.174 C 277.600 217.951,278.873 217.616,280.447 216.425 C 282.217 215.087,281.969 214.992,279.400 216.025 M311.600 217.929 C 314.240 219.516,317.995 222.521,319.944 224.607 C 322.541 227.385,322.946 227.651,321.459 225.600 C 319.034 222.254,311.602 216.385,308.800 215.603 C 307.700 215.296,308.960 216.343,311.600 217.929 M271.844 221.400 C 267.264 225.658,262.737 232.220,261.981 235.698 C 261.706 236.964,262.770 235.418,264.345 232.263 C 266.392 228.163,268.618 225.251,272.141 222.063 C 274.854 219.608,276.816 217.600,276.502 217.600 C 276.188 217.600,274.092 219.310,271.844 221.400 M132.000 221.200 C 135.653 222.607,137.090 222.586,134.000 221.171 C 132.680 220.567,131.060 220.083,130.400 220.097 C 129.740 220.111,130.460 220.607,132.000 221.200 M56.000 221.679 C 56.000 222.903,58.861 228.672,60.126 230.000 C 60.791 230.697,57.022 221.744,56.281 220.867 C 56.127 220.683,56.000 221.049,56.000 221.679 M139.200 223.600 C 142.853 225.007,144.290 224.986,141.200 223.571 C 139.880 222.967,138.260 222.483,137.600 222.497 C 136.940 222.511,137.660 223.007,139.200 223.600 M145.200 225.600 C 147.592 226.628,149.590 226.628,148.000 225.600 C 147.340 225.173,146.080 224.844,145.200 224.868 L 143.600 224.912 145.200 225.600 M152.000 227.546 C 153.540 228.169,155.340 228.695,156.000 228.715 C 158.104 228.779,155.174 227.448,152.000 226.899 L 149.200 226.414 152.000 227.546 M353.800 227.225 C 352.810 227.623,352.000 228.140,352.000 228.374 C 352.000 229.151,353.273 228.816,354.847 227.625 C 356.617 226.287,356.369 226.192,353.800 227.225 M373.600 231.325 C 371.180 233.553,367.310 236.648,365.000 238.201 C 362.690 239.755,360.800 241.197,360.800 241.405 C 360.800 242.399,372.123 234.075,375.142 230.862 C 376.182 229.755,377.340 229.039,377.716 229.272 C 378.092 229.504,378.400 229.133,378.400 228.447 C 378.400 226.821,378.661 226.664,373.600 231.325 M159.600 229.477 C 162.074 230.536,166.220 231.354,164.800 230.503 C 164.140 230.107,162.340 229.561,160.800 229.288 C 158.911 228.953,158.521 229.015,159.600 229.477 M348.200 229.625 C 345.521 230.702,346.022 231.249,348.800 230.280 C 350.120 229.820,351.200 229.299,351.200 229.122 C 351.200 228.647,350.226 228.810,348.200 229.625 M170.800 232.404 C 175.289 233.712,176.993 233.890,175.200 232.866 C 174.540 232.489,172.380 231.968,170.400 231.710 L 166.800 231.239 170.800 232.404 M341.200 232.403 L 338.800 233.534 341.200 233.064 C 342.520 232.805,343.942 232.280,344.360 231.897 C 345.500 230.851,343.974 231.096,341.200 232.403 M376.920 232.900 C 376.854 234.055,376.621 236.215,376.403 237.700 L 376.005 240.400 376.848 237.715 C 377.311 236.238,377.544 234.078,377.365 232.915 L 377.040 230.800 376.920 232.900 M15.700 236.000 C 16.351 240.481,16.804 241.120,16.788 237.533 C 16.781 236.030,16.416 234.260,15.976 233.600 C 15.418 232.761,15.335 233.484,15.700 236.000 M325.654 233.053 C 325.532 234.524,327.348 236.799,328.628 236.777 C 330.390 236.749,339.197 233.719,337.600 233.691 C 336.940 233.680,334.960 234.189,333.200 234.823 C 328.803 236.407,327.586 236.292,326.576 234.200 C 326.099 233.210,325.684 232.694,325.654 233.053 M58.547 235.800 C 55.795 239.676,49.415 252.082,49.916 252.583 C 50.182 252.849,50.400 252.728,50.400 252.314 C 50.400 251.583,55.320 242.671,59.075 236.600 C 61.224 233.125,60.849 232.557,58.547 235.800 M179.200 234.400 C 180.300 234.752,182.100 235.034,183.200 235.026 C 184.996 235.012,184.956 234.949,182.800 234.400 C 179.416 233.539,176.511 233.539,179.200 234.400 M110.400 238.110 C 108.420 239.665,106.620 241.157,106.400 241.427 C 105.646 242.348,110.798 238.990,112.496 237.453 C 113.722 236.342,114.829 236.057,116.496 236.423 C 118.254 236.810,118.516 236.728,117.600 236.077 C 115.665 234.702,114.219 235.110,110.400 238.110 M190.800 236.800 C 192.120 237.136,194.100 237.417,195.200 237.426 L 197.200 237.441 195.200 236.800 C 194.100 236.448,192.120 236.166,190.800 236.174 L 188.400 236.189 190.800 236.800 M120.800 237.938 C 121.900 238.601,123.340 239.145,124.000 239.147 C 125.605 239.153,123.703 238.033,120.800 237.263 L 118.800 236.733 120.800 237.938 M200.000 238.327 C 202.894 239.225,211.131 240.091,209.200 239.295 C 208.320 238.932,205.440 238.427,202.800 238.171 C 200.094 237.910,198.872 237.978,200.000 238.327 M126.400 239.865 C 127.060 240.273,128.500 240.847,129.600 241.141 C 130.990 241.513,131.234 241.450,130.400 240.935 C 129.740 240.527,128.300 239.953,127.200 239.659 C 125.810 239.287,125.566 239.350,126.400 239.865 M260.349 241.120 L 259.819 243.229 247.710 242.874 C 239.165 242.624,237.249 242.708,241.200 243.161 C 254.145 244.642,260.567 244.238,261.152 241.906 C 261.441 240.754,261.498 239.631,261.278 239.411 C 261.058 239.191,260.640 239.960,260.349 241.120 M216.581 240.751 C 218.000 241.103,222.140 241.598,225.781 241.851 C 230.034 242.148,231.399 242.075,229.600 241.648 C 228.060 241.283,223.920 240.788,220.400 240.548 C 216.498 240.282,215.007 240.362,216.581 240.751 M103.482 242.395 C 101.107 243.353,100.661 244.341,101.616 246.526 C 102.409 248.342,102.425 248.332,102.128 246.200 C 101.960 244.990,102.063 244.000,102.358 244.000 C 102.653 244.000,103.593 243.471,104.447 242.825 C 106.203 241.497,105.967 241.392,103.482 242.395 M133.302 242.378 C 134.164 243.185,139.808 244.405,139.063 243.623 C 138.768 243.314,137.194 242.760,135.566 242.392 C 133.937 242.025,132.918 242.018,133.302 242.378 M352.800 245.200 C 349.060 247.136,346.280 248.738,346.622 248.760 C 347.462 248.814,358.604 243.294,359.560 242.350 C 360.780 241.146,359.985 241.481,352.800 245.200 M374.952 243.000 C 374.401 243.966,373.415 250.042,373.885 249.577 C 374.391 249.076,375.951 242.400,375.562 242.400 C 375.415 242.400,375.140 242.670,374.952 243.000 M73.442 246.200 C 69.013 252.941,68.644 253.600,69.308 253.591 C 69.689 253.587,71.233 251.441,72.740 248.823 C 74.247 246.205,76.047 243.911,76.740 243.724 C 77.857 243.424,77.853 243.375,76.706 243.293 C 75.995 243.242,74.526 244.550,73.442 246.200 M79.467 245.163 C 80.274 245.774,81.443 248.012,82.065 250.137 C 82.819 252.712,83.063 253.100,82.798 251.300 C 82.579 249.815,82.400 248.131,82.400 247.557 C 82.400 246.245,80.194 243.992,78.943 244.025 C 78.424 244.039,78.660 244.551,79.467 245.163 M140.400 244.800 C 140.672 245.240,141.683 245.575,142.647 245.544 C 144.337 245.490,144.343 245.463,142.800 244.800 C 140.598 243.854,139.815 243.854,140.400 244.800 M18.088 246.800 C 18.746 249.742,19.204 250.380,19.188 248.333 C 19.181 247.490,18.810 246.260,18.363 245.600 C 17.770 244.724,17.696 245.047,18.088 246.800 M148.400 247.046 C 148.840 247.464,150.640 248.024,152.400 248.290 C 154.433 248.597,155.017 248.530,154.000 248.106 C 151.146 246.915,147.543 246.233,148.400 247.046 M157.200 249.600 C 158.080 249.978,159.340 250.288,160.000 250.288 C 160.756 250.288,160.609 250.033,159.600 249.600 C 158.720 249.222,157.460 248.912,156.800 248.912 C 156.044 248.912,156.191 249.167,157.200 249.600 M342.000 250.028 C 340.000 250.992,339.933 251.103,341.600 250.695 C 343.867 250.141,346.415 248.843,345.200 248.860 C 344.760 248.867,343.320 249.392,342.000 250.028 M102.927 252.400 C 103.202 254.160,103.731 256.320,104.101 257.200 C 104.528 258.215,104.591 257.631,104.273 255.600 C 103.998 253.840,103.469 251.680,103.099 250.800 C 102.672 249.785,102.609 250.369,102.927 252.400 M166.400 252.000 C 167.500 252.352,169.120 252.651,170.000 252.664 L 171.600 252.688 170.000 252.000 C 169.120 251.622,167.500 251.323,166.400 251.336 L 164.400 251.359 166.400 252.000 M336.000 252.000 C 334.933 252.689,334.933 252.775,336.000 252.775 C 336.660 252.775,337.740 252.427,338.400 252.000 C 339.467 251.311,339.467 251.225,338.400 251.225 C 337.740 251.225,336.660 251.573,336.000 252.000 M372.486 252.885 C 371.713 255.332,371.191 258.400,371.547 258.400 C 372.090 258.400,373.627 252.560,373.197 252.130 C 372.999 251.933,372.679 252.273,372.486 252.885 M20.012 254.067 C 20.019 254.910,20.390 256.140,20.837 256.800 C 21.430 257.676,21.504 257.353,21.112 255.600 C 20.454 252.658,19.996 252.020,20.012 254.067 M173.600 253.508 C 174.260 253.915,176.600 254.459,178.800 254.716 C 181.427 255.024,182.114 254.955,180.800 254.517 C 177.476 253.407,172.250 252.675,173.600 253.508 M330.569 253.703 C 328.839 254.202,327.645 255.205,327.084 256.631 C 326.615 257.824,325.721 260.060,325.098 261.600 C 324.064 264.156,324.074 264.262,325.206 262.815 C 325.888 261.944,326.853 259.872,327.351 258.212 C 328.114 255.664,328.735 255.064,331.328 254.366 C 333.017 253.911,334.400 253.372,334.400 253.169 C 334.400 252.692,333.771 252.780,330.569 253.703 M66.467 257.267 C 65.514 258.881,64.885 260.352,65.068 260.535 C 65.252 260.718,66.181 259.548,67.133 257.933 C 68.086 256.319,68.715 254.848,68.532 254.665 C 68.348 254.482,67.419 255.652,66.467 257.267 M83.292 256.000 C 83.255 257.100,83.573 258.540,84.000 259.200 C 84.987 260.728,84.987 259.083,84.000 256.000 L 83.359 254.000 83.292 256.000 M184.800 255.930 C 185.460 256.296,188.340 256.804,191.200 257.060 C 194.183 257.327,195.547 257.255,194.400 256.892 C 191.450 255.957,183.392 255.150,184.800 255.930 M198.800 258.372 C 200.314 259.049,207.042 259.528,206.333 258.908 C 206.150 258.748,204.020 258.401,201.600 258.137 C 198.727 257.823,197.755 257.905,198.800 258.372 M45.600 260.400 C 45.135 261.622,44.935 262.802,45.155 263.022 C 45.375 263.242,45.935 262.422,46.400 261.200 C 46.865 259.978,47.065 258.798,46.845 258.578 C 46.625 258.358,46.065 259.178,45.600 260.400 M22.059 260.800 C 22.353 261.900,22.927 263.340,23.335 264.000 C 23.850 264.834,23.913 264.590,23.541 263.200 C 23.247 262.100,22.673 260.660,22.265 260.000 C 21.750 259.166,21.687 259.410,22.059 260.800 M208.200 259.751 C 208.970 259.953,210.230 259.953,211.000 259.751 C 211.770 259.550,211.140 259.386,209.600 259.386 C 208.060 259.386,207.430 259.550,208.200 259.751 M105.300 262.400 C 105.579 263.940,106.123 265.920,106.508 266.800 C 106.988 267.898,107.049 267.522,106.700 265.600 C 106.421 264.060,105.877 262.080,105.492 261.200 C 105.012 260.102,104.951 260.478,105.300 262.400 M217.200 260.846 C 218.960 261.210,221.660 261.483,223.200 261.454 C 225.811 261.403,225.757 261.356,222.400 260.759 C 217.299 259.852,212.759 259.927,217.200 260.846 M61.960 265.680 C 60.823 267.923,60.076 269.942,60.299 270.166 C 60.654 270.521,61.402 269.122,64.125 263.000 C 65.526 259.853,63.881 261.888,61.960 265.680 M229.800 262.066 C 229.962 262.229,237.798 262.756,247.212 263.238 C 263.387 264.066,264.396 264.210,265.544 265.857 C 266.213 266.816,267.975 268.860,269.461 270.400 L 272.162 273.200 269.481 269.729 C 263.366 261.813,265.730 262.593,246.552 262.158 C 237.176 261.945,229.637 261.904,229.800 262.066 M42.489 268.911 C 41.560 271.661,40.829 274.471,40.865 275.155 C 40.901 275.840,41.783 273.712,42.825 270.427 C 45.129 263.164,44.851 261.914,42.489 268.911 M85.656 266.153 C 85.625 267.117,85.960 268.128,86.400 268.400 C 87.346 268.985,87.346 268.202,86.400 266.000 C 85.737 264.457,85.710 264.463,85.656 266.153 M318.812 270.257 C 314.274 275.320,315.320 275.129,320.217 270.000 C 322.224 267.898,324.473 264.696,323.828 264.857 C 323.703 264.889,321.445 267.319,318.812 270.257 M24.934 268.841 C 25.402 270.183,25.933 271.133,26.115 270.952 C 26.511 270.556,25.001 266.400,24.461 266.400 C 24.253 266.400,24.466 267.498,24.934 268.841 M107.312 270.000 C 107.312 270.880,107.622 272.320,108.000 273.200 L 108.688 274.800 108.688 273.200 C 108.688 272.320,108.378 270.880,108.000 270.000 L 107.312 268.400 107.312 270.000 M87.710 273.200 C 87.976 274.960,88.536 276.760,88.954 277.200 C 89.767 278.057,89.085 274.454,87.894 271.600 C 87.470 270.583,87.403 271.167,87.710 273.200 M58.652 272.600 C 58.378 273.370,58.002 274.360,57.817 274.800 C 57.633 275.240,58.048 274.901,58.741 274.047 C 59.998 272.496,60.378 271.200,59.575 271.200 C 59.341 271.200,58.926 271.830,58.652 272.600 M365.558 273.311 C 365.116 274.472,364.904 275.570,365.085 275.752 C 365.267 275.933,365.798 274.983,366.266 273.641 C 367.306 270.657,366.678 270.364,365.558 273.311 M272.800 273.568 C 272.800 274.320,278.433 277.834,278.896 277.371 C 279.057 277.210,277.752 276.136,275.995 274.986 C 274.238 273.835,272.800 273.197,272.800 273.568 M109.308 277.200 C 110.148 281.006,111.295 283.293,110.712 280.000 C 110.439 278.460,109.893 276.660,109.497 276.000 C 109.027 275.216,108.962 275.631,109.308 277.200 M56.400 277.600 C 56.100 278.546,56.034 279.501,56.254 279.721 C 56.474 279.941,56.900 279.346,57.200 278.400 C 57.500 277.454,57.566 276.499,57.346 276.279 C 57.126 276.059,56.700 276.654,56.400 277.600 M39.209 281.155 C 38.698 283.620,38.429 286.079,38.613 286.618 C 38.796 287.158,39.357 285.284,39.859 282.453 C 40.992 276.066,40.478 275.042,39.209 281.155 M281.439 279.024 C 282.450 279.817,283.110 280.991,282.904 281.633 C 282.698 282.275,282.353 286.220,282.137 290.400 C 281.873 295.514,281.953 296.816,282.380 294.379 C 284.038 284.940,283.753 279.060,281.600 278.294 L 279.600 277.582 281.439 279.024 M306.000 278.828 C 304.000 279.792,303.933 279.903,305.600 279.495 C 307.867 278.941,310.415 277.643,309.200 277.660 C 308.760 277.667,307.320 278.192,306.000 278.828 M30.561 281.982 C 31.519 283.953,32.439 285.428,32.607 285.260 C 32.969 284.898,29.736 278.400,29.194 278.400 C 28.989 278.400,29.604 280.012,30.561 281.982 M90.049 281.600 C 90.335 283.140,90.916 284.760,91.341 285.200 C 92.265 286.157,91.362 281.823,90.257 280.000 C 89.784 279.219,89.712 279.778,90.049 281.600 M301.600 282.000 C 301.600 283.100,301.738 284.000,301.907 284.000 C 302.075 284.000,302.386 283.100,302.596 282.000 C 302.806 280.900,302.668 280.000,302.289 280.000 C 301.910 280.000,301.600 280.900,301.600 282.000 M54.057 284.457 C 53.763 285.630,53.702 286.769,53.922 286.989 C 54.142 287.209,54.563 286.430,54.857 285.257 C 55.151 284.085,55.212 282.945,54.992 282.725 C 54.772 282.505,54.351 283.285,54.057 284.457 M111.741 285.200 C 112.002 286.520,112.516 288.140,112.884 288.800 C 114.082 290.954,113.669 287.900,112.397 285.200 L 111.266 282.800 111.741 285.200 M300.073 293.702 C 299.172 300.726,299.362 304.917,300.297 298.654 C 301.236 292.368,301.771 286.400,301.397 286.400 C 301.184 286.400,300.588 289.686,300.073 293.702 M92.060 288.000 C 92.067 288.660,92.581 290.280,93.203 291.600 L 94.334 294.000 93.859 291.600 C 93.264 288.595,92.042 286.149,92.060 288.000 M51.644 293.244 C 51.343 294.850,51.277 296.343,51.497 296.563 C 51.717 296.783,52.143 295.650,52.444 294.044 C 52.746 292.439,52.812 290.945,52.592 290.725 C 52.372 290.505,51.946 291.639,51.644 293.244 M114.097 292.400 C 114.382 293.720,114.932 295.340,115.319 296.000 C 115.769 296.768,115.835 296.336,115.503 294.800 C 115.218 293.480,114.668 291.860,114.281 291.200 C 113.831 290.432,113.765 290.864,114.097 292.400 M35.842 292.400 C 38.068 296.339,38.377 296.488,38.325 293.600 C 38.297 292.060,38.087 291.265,37.859 291.833 C 37.520 292.678,37.215 292.678,36.191 291.833 C 35.092 290.927,35.049 290.996,35.842 292.400 M94.425 295.200 C 94.425 295.860,94.773 296.940,95.200 297.600 C 95.889 298.667,95.975 298.667,95.975 297.600 C 95.975 296.940,95.627 295.860,95.200 295.200 C 94.511 294.133,94.425 294.133,94.425 295.200 M116.407 299.200 C 117.354 302.430,118.498 303.954,117.908 301.200 C 117.625 299.880,117.039 298.440,116.607 298.000 C 116.090 297.474,116.021 297.886,116.407 299.200 M50.640 302.400 C 50.640 304.820,50.790 305.810,50.973 304.600 C 51.156 303.390,51.156 301.410,50.973 300.200 C 50.790 298.990,50.640 299.980,50.640 302.400 M280.547 301.906 C 280.246 302.690,280.036 304.471,280.080 305.865 C 280.159 308.334,280.180 308.318,280.898 305.254 C 281.691 301.874,281.448 299.559,280.547 301.906 M348.878 304.448 C 347.953 306.015,347.560 307.072,348.004 306.797 C 348.871 306.262,351.468 301.600,350.900 301.600 C 350.712 301.600,349.802 302.882,348.878 304.448 M298.062 306.200 C 297.778 307.850,297.362 310.280,297.138 311.600 C 296.852 313.286,296.952 313.643,297.476 312.800 C 298.297 311.478,299.581 303.200,298.964 303.200 C 298.752 303.200,298.346 304.550,298.062 306.200 M98.857 307.200 C 99.144 308.300,99.699 309.542,100.090 309.960 C 101.232 311.182,100.881 309.429,99.538 307.200 L 98.333 305.200 98.857 307.200 M50.629 310.800 C 50.635 313.000,50.790 313.805,50.974 312.589 C 51.158 311.373,51.153 309.573,50.963 308.589 C 50.773 307.605,50.623 308.600,50.629 310.800 M120.028 308.108 C 120.013 308.388,120.526 309.828,121.169 311.308 C 121.811 312.789,122.339 313.460,122.340 312.800 C 122.343 311.647,120.086 307.067,120.028 308.108 M100.800 312.247 C 100.800 312.823,101.335 313.993,101.989 314.847 C 103.077 316.268,103.104 316.179,102.311 313.800 C 101.405 311.085,100.800 310.463,100.800 312.247 M278.044 316.444 C 277.743 318.050,277.677 319.543,277.897 319.763 C 278.117 319.983,278.543 318.850,278.844 317.244 C 279.146 315.639,279.212 314.145,278.992 313.925 C 278.772 313.705,278.346 314.839,278.044 316.444 M122.936 315.812 C 123.188 316.809,123.710 317.821,124.097 318.060 C 125.191 318.736,124.925 317.273,123.640 315.553 C 122.520 314.055,122.496 314.064,122.936 315.812 M295.262 320.062 C 294.097 325.493,294.724 326.120,296.000 320.800 C 296.539 318.553,296.795 316.528,296.568 316.302 C 296.342 316.075,295.754 317.767,295.262 320.062 M103.636 318.600 C 103.935 319.590,104.509 320.752,104.912 321.182 C 105.314 321.612,105.238 320.802,104.743 319.382 C 103.730 316.476,102.795 315.815,103.636 318.600 M124.828 319.640 C 124.844 320.058,125.399 321.300,126.062 322.400 L 127.267 324.400 126.743 322.400 C 126.197 320.313,124.777 318.266,124.828 319.640 M333.637 324.268 L 330.874 327.600 334.237 324.438 C 336.087 322.698,337.600 321.168,337.600 321.038 C 337.600 320.118,335.989 321.431,333.637 324.268 M276.000 325.600 C 275.461 327.847,275.205 329.872,275.432 330.098 C 275.658 330.325,276.246 328.633,276.738 326.338 C 277.903 320.907,277.276 320.280,276.000 325.600 M105.600 322.893 C 105.600 323.830,111.170 334.400,111.664 334.400 C 111.992 334.400,106.598 323.220,105.906 322.467 C 105.738 322.283,105.600 322.475,105.600 322.893 M60.107 326.320 C 61.588 328.036,63.306 329.666,63.925 329.943 C 64.544 330.219,63.644 328.849,61.925 326.898 C 60.206 324.947,58.488 323.317,58.107 323.275 C 57.726 323.234,58.626 324.604,60.107 326.320 M292.800 329.600 C 291.621 333.978,292.246 334.603,293.527 330.327 C 294.068 328.522,294.330 326.863,294.108 326.641 C 293.886 326.420,293.298 327.751,292.800 329.600 M129.600 329.887 C 129.600 330.464,134.593 339.623,135.331 340.400 C 136.342 341.465,135.353 339.096,132.576 333.800 C 130.690 330.204,129.600 328.771,129.600 329.887 M325.412 333.222 C 323.768 334.750,322.708 336.000,323.055 336.000 C 323.402 336.000,324.907 334.740,326.400 333.200 C 329.883 329.607,329.286 329.620,325.412 333.222 M273.600 334.400 C 273.102 336.249,272.851 337.918,273.043 338.109 C 273.234 338.301,273.779 336.926,274.255 335.055 C 274.730 333.183,274.980 331.514,274.812 331.345 C 274.643 331.176,274.098 332.551,273.600 334.400 M71.967 337.800 C 73.928 339.890,75.638 341.600,75.767 341.600 C 76.367 341.600,75.732 340.882,72.200 337.567 L 68.400 334.000 71.967 337.800 M290.800 336.000 C 290.500 336.946,290.434 337.901,290.654 338.121 C 290.874 338.341,291.300 337.746,291.600 336.800 C 291.900 335.854,291.966 334.899,291.746 334.679 C 291.526 334.459,291.100 335.054,290.800 336.000 M317.199 340.606 C 314.999 342.627,310.613 346.194,307.451 348.534 C 304.289 350.873,301.448 353.198,301.138 353.700 C 300.828 354.202,303.711 352.246,307.546 349.354 C 314.745 343.924,321.920 337.653,321.460 337.193 C 321.316 337.049,319.398 338.585,317.199 340.606 M271.289 341.689 C 270.796 343.103,270.533 344.399,270.704 344.571 C 270.875 344.742,271.418 343.725,271.911 342.311 C 272.404 340.897,272.667 339.601,272.496 339.429 C 272.325 339.258,271.782 340.275,271.289 341.689 M288.878 341.719 C 287.818 344.761,287.777 345.364,288.697 344.360 C 289.463 343.525,290.633 339.200,290.094 339.200 C 289.908 339.200,289.361 340.334,288.878 341.719 M114.400 340.354 C 114.400 340.946,117.734 346.400,118.095 346.400 C 118.281 346.400,117.698 344.960,116.800 343.200 C 115.367 340.392,114.400 339.245,114.400 340.354 M81.200 346.158 C 83.482 348.319,88.796 352.046,88.770 351.467 C 88.753 351.100,87.223 349.720,85.370 348.400 C 81.896 345.926,79.719 344.755,81.200 346.158 M139.097 346.800 C 139.529 347.680,140.469 349.120,141.186 350.000 L 142.488 351.600 141.703 350.000 C 141.271 349.120,140.331 347.680,139.614 346.800 L 138.312 345.200 139.097 346.800 M268.889 348.089 C 268.396 349.503,268.126 350.793,268.289 350.955 C 268.451 351.118,269.042 350.148,269.600 348.800 C 270.158 347.452,270.429 346.162,270.200 345.934 C 269.972 345.705,269.382 346.675,268.889 348.089 M286.489 348.089 C 285.996 349.503,285.733 350.799,285.904 350.971 C 286.075 351.142,286.618 350.125,287.111 348.711 C 287.604 347.297,287.867 346.001,287.696 345.829 C 287.525 345.658,286.982 346.675,286.489 348.089 M119.685 349.543 C 120.518 350.962,121.677 352.522,122.260 353.010 C 122.844 353.497,122.537 352.568,121.580 350.946 C 120.622 349.323,119.463 347.763,119.004 347.479 C 118.545 347.195,118.851 348.124,119.685 349.543 M145.527 356.600 C 147.303 359.130,150.425 363.000,152.465 365.200 L 156.173 369.200 152.652 364.800 C 150.715 362.380,147.765 358.510,146.097 356.200 C 144.429 353.890,142.891 352.000,142.681 352.000 C 142.470 352.000,143.751 354.070,145.527 356.600 M265.667 355.635 C 263.397 360.767,263.630 361.254,266.092 356.522 C 267.202 354.389,267.935 352.469,267.722 352.255 C 267.508 352.042,266.584 353.563,265.667 355.635 M284.252 353.400 C 283.978 354.170,283.602 355.160,283.417 355.600 C 283.233 356.040,283.648 355.701,284.341 354.847 C 285.598 353.296,285.978 352.000,285.175 352.000 C 284.941 352.000,284.526 352.630,284.252 353.400 M91.200 353.404 C 91.200 353.762,92.280 354.693,93.600 355.473 C 94.920 356.252,96.000 356.758,96.000 356.596 C 96.000 356.434,94.920 355.502,93.600 354.526 C 92.280 353.551,91.200 353.045,91.200 353.404 M124.383 356.400 C 125.881 358.836,132.738 368.068,133.592 368.800 C 137.522 372.167,141.746 377.751,140.000 377.272 C 137.411 376.562,139.562 377.949,142.400 378.820 C 143.990 379.308,143.391 378.355,139.473 374.166 C 136.764 371.269,132.299 365.906,129.551 362.249 C 124.002 354.865,122.147 352.766,124.383 356.400 M262.304 362.600 C 261.780 363.590,260.829 365.300,260.191 366.400 C 259.078 368.319,259.086 368.335,260.377 366.800 C 261.971 364.904,264.209 360.800,263.649 360.800 C 263.433 360.800,262.828 361.610,262.304 362.600 M278.499 364.412 C 276.137 368.415,276.522 369.217,279.647 366.798 C 281.176 365.614,281.176 365.605,279.602 366.160 C 278.032 366.713,278.030 366.684,279.466 364.492 C 280.270 363.265,280.764 362.097,280.563 361.896 C 280.362 361.696,279.434 362.828,278.499 364.412 M256.359 372.059 C 255.117 373.852,252.998 376.221,251.650 377.324 C 250.126 378.572,249.860 379.003,250.946 378.466 C 253.057 377.421,260.201 368.800,258.956 368.800 C 258.770 368.800,257.601 370.267,256.359 372.059 M156.800 369.901 C 156.800 370.550,164.197 377.507,167.600 380.058 C 169.428 381.429,169.619 381.479,168.400 380.266 C 163.713 375.604,156.800 369.427,156.800 369.901 M123.200 371.600 C 124.300 372.229,125.560 372.743,126.000 372.743 C 126.440 372.743,125.900 372.229,124.800 371.600 C 123.700 370.971,122.440 370.457,122.000 370.457 C 121.560 370.457,122.100 370.971,123.200 371.600 M242.559 379.989 C 241.107 380.333,239.693 380.840,239.418 381.116 C 238.823 381.710,243.708 380.830,246.000 379.930 C 248.039 379.129,246.047 379.163,242.559 379.989 M171.600 382.841 C 173.960 384.724,176.003 385.744,175.980 385.028 C 175.969 384.683,174.619 383.762,172.980 382.982 C 170.581 381.841,170.312 381.813,171.600 382.841 M233.600 382.400 C 231.992 382.915,231.914 383.045,233.200 383.064 C 234.080 383.077,235.520 382.778,236.400 382.400 C 238.439 381.524,236.335 381.524,233.600 382.400 M218.400 384.800 L 216.400 385.441 218.400 385.426 C 219.500 385.417,221.480 385.136,222.800 384.800 L 225.200 384.189 222.800 384.174 C 221.480 384.166,219.500 384.448,218.400 384.800 M183.800 386.165 C 184.790 386.355,186.410 386.355,187.400 386.165 C 188.390 385.974,187.580 385.818,185.600 385.818 C 183.620 385.818,182.810 385.974,183.800 386.165 M205.811 386.174 C 207.027 386.358,208.827 386.353,209.811 386.163 C 210.795 385.973,209.800 385.823,207.600 385.829 C 205.400 385.835,204.595 385.990,205.811 386.174 " stroke="none" fill="#6092c8" fill-rule="evenodd"></path><path id="path3" d="M191.600 13.509 C 190.280 13.868,187.760 14.826,186.000 15.639 L 182.800 17.116 185.600 17.361 C 194.663 18.154,195.909 18.749,189.600 19.274 C 183.882 19.749,183.995 19.771,192.000 19.745 C 201.021 19.716,201.531 19.840,207.600 23.524 C 212.804 26.683,212.845 26.716,219.388 32.800 C 224.243 37.315,237.125 53.342,238.679 56.800 C 238.975 57.460,239.913 59.080,240.763 60.400 C 241.613 61.720,243.287 64.654,244.481 66.920 L 246.653 71.040 243.880 74.920 C 240.155 80.132,238.483 84.256,237.784 89.961 C 237.137 95.237,237.162 95.215,227.200 99.205 C 220.706 101.806,188.283 118.047,187.200 119.241 C 186.980 119.484,182.480 122.319,177.200 125.542 C 171.920 128.765,165.333 132.976,162.562 134.901 C 159.791 136.825,157.335 138.400,157.105 138.400 C 156.874 138.400,156.216 138.850,155.641 139.400 C 155.066 139.950,153.788 140.940,152.800 141.600 C 151.812 142.260,150.597 143.160,150.099 143.600 C 149.602 144.040,146.316 146.543,142.797 149.163 C 131.165 157.823,119.852 167.408,109.378 177.476 L 104.756 181.919 101.378 180.907 C 99.520 180.350,96.740 179.641,95.200 179.332 L 92.400 178.769 92.400 154.385 C 92.400 138.676,92.768 127.438,93.435 122.800 C 95.318 109.709,97.574 96.470,98.752 91.600 C 99.391 88.960,100.307 85.000,100.789 82.800 C 101.271 80.600,101.985 78.214,102.378 77.498 C 102.770 76.783,103.336 74.889,103.636 73.290 C 103.936 71.691,104.501 70.185,104.891 69.944 C 105.281 69.703,105.600 68.951,105.600 68.274 C 105.600 66.578,112.996 50.526,116.230 45.203 C 120.399 38.341,125.734 32.804,128.193 32.788 C 129.451 32.779,129.684 32.575,128.960 32.116 C 126.801 30.746,137.598 23.716,145.807 21.146 C 151.674 19.309,150.440 18.425,142.000 18.422 C 126.848 18.415,113.165 26.441,102.613 41.524 C 100.583 44.426,98.174 47.435,97.261 48.211 C 95.864 49.397,95.831 49.539,97.054 49.104 C 98.191 48.700,97.722 50.134,94.897 55.694 C 92.911 59.602,91.047 63.793,90.754 65.008 C 90.462 66.222,89.903 67.413,89.511 67.655 C 89.120 67.897,88.800 68.649,88.800 69.326 C 88.800 70.004,88.307 71.693,87.705 73.079 C 87.103 74.466,85.972 77.760,85.191 80.400 C 84.411 83.040,83.577 85.740,83.340 86.400 C 78.584 99.601,74.334 135.920,74.306 163.600 C 74.288 180.793,74.090 183.200,72.689 183.200 C 72.247 183.200,71.384 183.650,70.771 184.200 C 65.497 188.929,64.096 189.208,60.410 186.260 C 59.964 185.904,57.440 183.917,54.800 181.845 C 42.798 172.426,31.226 159.182,26.901 149.918 C 25.689 147.323,24.361 144.575,23.949 143.811 C 22.936 141.932,23.004 139.416,24.085 138.747 C 24.702 138.366,24.642 137.997,23.885 137.531 C 23.175 137.093,22.656 134.574,22.383 130.231 L 21.966 123.600 19.825 128.205 C 16.745 134.829,15.773 143.018,17.136 150.856 C 17.735 154.303,18.045 157.595,17.824 158.171 C 17.573 158.825,17.847 159.055,18.553 158.784 C 19.336 158.483,20.233 159.673,21.467 162.649 C 25.759 173.004,41.881 191.983,53.535 200.400 L 56.858 202.800 56.470 207.600 C 55.908 214.548,57.345 222.496,60.094 227.648 L 62.463 232.087 59.711 236.644 C 57.218 240.773,53.517 247.311,51.926 250.400 C 49.452 255.199,46.399 262.005,46.395 262.728 C 46.392 263.208,45.915 264.510,45.335 265.622 C 44.755 266.734,44.078 268.354,43.832 269.222 C 40.949 279.390,39.947 283.998,39.544 288.946 C 39.281 292.166,38.865 295.340,38.618 296.000 C 35.587 304.122,46.128 326.107,55.595 331.405 C 56.881 332.125,56.947 332.343,53.755 325.326 C 50.985 319.236,50.547 316.895,52.459 318.400 C 53.297 319.060,52.997 318.402,51.792 316.939 C 47.892 312.203,49.622 290.939,54.742 280.675 C 55.362 279.433,56.107 277.332,56.398 276.008 C 56.689 274.684,57.259 273.600,57.664 273.600 C 58.069 273.600,58.400 273.056,58.400 272.391 C 58.400 270.171,69.913 249.653,74.299 244.058 C 76.148 241.699,81.776 243.099,82.236 246.031 C 82.372 246.894,82.799 248.320,83.187 249.200 C 83.574 250.080,84.057 251.880,84.261 253.200 C 84.671 255.864,86.515 263.657,88.330 270.400 C 88.982 272.820,89.925 276.420,90.426 278.400 C 90.927 280.380,91.639 282.720,92.008 283.600 C 92.377 284.480,93.810 288.620,95.191 292.800 C 96.572 296.980,98.219 301.534,98.851 302.921 C 99.483 304.307,100.000 305.842,100.000 306.332 C 100.000 306.821,100.347 307.847,100.772 308.611 C 101.884 310.613,104.800 317.421,104.800 318.017 C 104.800 320.839,124.359 355.559,128.000 359.200 C 128.220 359.420,130.180 361.940,132.355 364.800 C 134.531 367.660,138.221 371.851,140.555 374.114 C 145.303 378.716,145.693 379.557,142.824 379.009 C 141.738 378.801,141.014 378.898,141.215 379.225 C 141.417 379.551,142.810 380.049,144.311 380.330 C 145.811 380.612,147.511 381.411,148.087 382.105 C 157.445 393.380,183.421 399.484,196.800 393.551 L 201.200 391.600 194.838 391.024 C 186.669 390.283,178.672 387.926,181.615 387.125 C 183.096 386.722,182.686 386.582,180.000 386.572 C 174.272 386.551,168.444 382.754,157.486 371.904 C 153.472 367.929,139.200 349.645,139.200 348.476 C 139.200 348.230,137.708 345.592,135.885 342.614 C 128.813 331.063,114.406 299.163,114.401 295.047 C 114.401 294.303,114.081 293.497,113.691 293.256 C 113.301 293.015,112.736 291.509,112.436 289.910 C 112.136 288.311,111.600 286.417,111.245 285.702 C 110.576 284.354,108.989 279.096,106.745 270.800 C 106.031 268.160,104.942 264.249,104.324 262.108 C 103.706 259.968,103.200 257.514,103.200 256.656 C 103.200 255.797,102.866 254.471,102.458 253.708 C 102.050 252.946,101.477 250.179,101.185 247.561 L 100.654 242.800 103.903 241.413 C 107.055 240.067,109.052 238.703,112.120 235.800 C 114.123 233.905,119.320 235.245,134.800 241.645 C 135.680 242.009,137.648 242.554,139.174 242.855 C 140.699 243.157,142.499 243.693,143.174 244.047 C 143.848 244.401,146.020 245.097,148.000 245.593 C 151.951 246.584,154.020 247.149,161.200 249.197 C 163.840 249.951,167.980 250.914,170.400 251.339 C 172.820 251.764,175.340 252.333,176.000 252.604 C 177.485 253.214,186.533 254.910,194.000 255.979 C 197.080 256.420,201.220 257.127,203.200 257.550 C 209.966 258.995,228.387 260.746,246.826 261.695 L 265.252 262.644 267.897 266.482 C 270.856 270.773,274.191 273.552,280.281 276.804 C 285.015 279.331,285.295 280.084,284.136 287.183 C 283.667 290.052,282.898 295.460,282.425 299.200 C 281.953 302.940,281.248 307.620,280.860 309.600 C 280.471 311.580,279.734 315.540,279.222 318.400 C 278.710 321.260,277.981 324.320,277.603 325.200 C 277.225 326.080,276.677 328.240,276.386 330.000 C 276.095 331.760,275.576 333.560,275.233 334.000 C 274.889 334.440,274.357 336.194,274.050 337.898 C 273.742 339.603,273.192 341.583,272.827 342.298 C 272.463 343.014,271.538 345.220,270.773 347.200 C 268.336 353.511,267.144 356.361,266.318 357.859 C 265.875 358.661,264.754 360.821,263.826 362.659 C 260.346 369.550,254.083 377.528,251.200 378.740 C 249.660 379.388,248.900 379.936,249.510 379.959 C 252.525 380.071,239.104 388.665,233.818 390.008 C 229.148 391.193,229.425 392.277,234.573 392.963 C 247.401 394.670,261.420 387.606,272.206 374.000 C 273.950 371.800,276.147 369.563,277.088 369.028 C 278.521 368.215,278.572 368.052,277.400 368.028 C 275.602 367.992,275.630 367.760,277.866 364.184 C 288.305 347.493,296.892 317.898,299.971 288.007 C 300.763 280.314,301.705 278.400,304.700 278.400 C 311.572 278.400,323.398 266.250,326.714 255.782 C 326.962 255.002,327.802 254.166,328.582 253.923 C 329.362 253.681,330.552 253.195,331.226 252.843 C 331.901 252.491,333.689 251.932,335.200 251.600 C 336.711 251.268,338.499 250.713,339.174 250.367 C 339.848 250.020,342.380 248.945,344.800 247.977 C 351.140 245.442,357.832 242.169,359.057 241.005 C 359.639 240.452,360.629 240.000,361.257 240.000 C 361.886 240.000,362.400 239.706,362.400 239.347 C 362.400 238.988,363.802 237.907,365.516 236.943 C 367.230 235.980,370.642 233.214,373.099 230.796 C 375.556 228.378,377.843 226.399,378.183 226.399 C 378.905 226.397,383.114 219.946,384.687 216.430 C 387.679 209.744,388.944 198.858,387.200 194.800 C 386.559 193.309,386.509 193.302,386.456 194.700 C 386.341 197.781,382.139 205.923,381.502 204.300 C 380.916 202.808,380.458 204.578,380.590 207.828 C 380.650 209.312,373.497 216.907,369.452 219.655 C 367.554 220.945,365.524 222.450,364.943 223.000 C 364.361 223.550,363.401 224.000,362.810 224.000 C 362.218 224.000,361.613 224.294,361.467 224.654 C 361.086 225.587,345.680 232.800,344.068 232.800 C 343.579 232.800,342.553 233.134,341.789 233.542 C 339.966 234.516,333.136 236.547,329.600 237.167 C 326.874 237.644,326.751 237.552,324.920 233.639 C 320.886 225.016,314.321 218.986,305.341 215.654 C 300.732 213.945,301.053 214.720,300.030 202.800 C 298.916 189.812,297.008 176.516,293.660 158.400 C 292.792 153.707,289.459 139.812,287.615 133.200 C 285.233 124.662,285.249 124.349,288.157 122.541 C 295.300 118.099,301.216 109.021,303.170 99.503 L 304.175 94.606 309.642 93.703 C 317.936 92.333,338.786 93.920,341.160 96.101 C 341.578 96.486,342.764 96.800,343.796 96.800 C 344.828 96.800,346.646 97.773,347.836 98.963 C 349.026 100.153,350.604 101.171,351.343 101.225 C 353.036 101.350,357.509 104.740,361.691 109.068 L 364.911 112.400 364.342 110.000 C 361.912 99.748,351.400 88.659,339.623 83.921 C 336.996 82.865,333.936 81.083,332.823 79.961 C 331.407 78.534,331.261 78.473,332.336 79.758 C 334.397 82.219,333.697 82.646,329.506 81.483 C 327.578 80.949,320.338 80.379,313.417 80.218 L 300.835 79.924 297.231 75.240 C 293.944 70.968,286.784 64.807,285.093 64.795 C 284.712 64.792,283.320 64.171,282.000 63.414 C 280.081 62.314,277.579 62.037,269.514 62.031 L 259.427 62.023 254.379 54.182 C 246.748 42.328,236.604 30.538,229.272 25.000 C 227.962 24.010,227.223 23.200,227.630 23.200 C 229.070 23.200,222.109 18.962,216.143 16.205 C 209.745 13.249,197.507 11.905,191.600 13.509 M145.600 26.437 C 144.724 27.030,145.047 27.104,146.800 26.712 C 149.742 26.054,150.380 25.596,148.333 25.612 C 147.490 25.619,146.260 25.990,145.600 26.437 M243.267 25.887 C 243.450 26.046,244.680 26.416,246.000 26.712 C 247.753 27.104,248.076 27.030,247.200 26.437 C 246.120 25.706,242.464 25.195,243.267 25.887 M139.400 28.025 C 136.721 29.102,137.222 29.649,140.000 28.680 C 141.320 28.220,142.400 27.699,142.400 27.522 C 142.400 27.047,141.426 27.210,139.400 28.025 M250.400 27.468 C 250.400 27.674,251.562 28.248,252.982 28.743 C 254.402 29.238,255.212 29.314,254.782 28.912 C 253.871 28.059,250.400 26.915,250.400 27.468 M85.684 56.047 C 82.870 58.221,80.827 60.000,81.145 60.000 C 81.824 60.000,91.200 52.870,91.200 52.353 C 91.200 51.796,91.082 51.875,85.684 56.047 M72.350 67.400 L 70.000 70.000 72.600 67.650 C 74.030 66.358,75.200 65.188,75.200 65.050 C 75.200 64.432,74.540 64.976,72.350 67.400 M317.600 65.050 C 317.600 65.188,318.770 66.358,320.200 67.650 L 322.800 70.000 320.450 67.400 C 318.260 64.976,317.600 64.432,317.600 65.050 M326.400 73.200 C 327.893 74.740,329.294 76.000,329.514 76.000 C 329.734 76.000,328.693 74.740,327.200 73.200 C 325.707 71.660,324.306 70.400,324.086 70.400 C 323.866 70.400,324.907 71.660,326.400 73.200 M246.497 117.228 C 250.308 121.257,258.770 126.381,261.663 126.412 C 265.141 126.449,269.203 128.729,269.700 130.923 C 269.983 132.175,270.841 135.360,271.605 138.000 C 272.370 140.640,273.481 145.140,274.074 148.000 C 274.668 150.860,275.724 155.900,276.422 159.200 C 277.584 164.695,278.956 172.544,280.758 184.000 C 281.139 186.420,281.857 192.180,282.354 196.800 C 282.851 201.420,283.565 207.180,283.941 209.600 C 284.737 214.726,284.434 215.271,279.400 217.785 C 271.735 221.614,263.954 231.161,262.767 238.195 C 261.708 244.472,262.763 244.007,249.746 243.936 C 243.286 243.901,235.120 243.564,231.600 243.187 C 228.080 242.809,221.600 242.130,217.200 241.678 C 212.800 241.225,207.580 240.514,205.600 240.098 C 203.620 239.682,198.220 238.736,193.600 237.996 C 188.980 237.256,184.437 236.353,183.504 235.990 C 182.572 235.627,180.052 235.093,177.904 234.805 C 175.757 234.517,173.460 234.062,172.800 233.794 C 172.140 233.526,169.620 232.867,167.200 232.328 C 159.010 230.506,142.901 225.918,140.698 224.781 C 139.983 224.412,138.089 223.864,136.490 223.564 C 134.891 223.264,133.385 222.699,133.144 222.309 C 132.903 221.919,132.151 221.600,131.474 221.600 C 130.339 221.600,126.075 219.963,123.200 218.425 C 122.384 217.988,122.079 216.827,122.247 214.795 C 122.636 210.084,120.982 201.293,119.014 197.606 L 117.216 194.237 122.495 189.319 C 127.749 184.423,132.861 179.887,135.706 177.599 C 136.528 176.938,139.000 174.958,141.200 173.199 C 143.400 171.439,145.380 169.803,145.600 169.563 C 145.820 169.322,148.340 167.351,151.200 165.183 C 154.060 163.015,156.760 160.941,157.200 160.575 C 157.640 160.210,161.060 157.779,164.800 155.174 C 168.540 152.569,171.960 150.154,172.400 149.809 C 173.552 148.905,190.282 138.176,193.600 136.214 C 202.740 130.809,215.496 123.947,224.329 119.683 C 238.216 112.981,240.735 111.953,241.798 112.554 C 242.128 112.740,244.242 114.843,246.497 117.228 M16.893 160.935 C 16.842 161.669,16.593 162.929,16.340 163.735 C 15.903 165.124,15.927 165.126,16.793 163.775 C 17.296 162.991,17.545 161.731,17.347 160.975 C 17.021 159.736,16.976 159.732,16.893 160.935 M14.899 169.231 C 14.624 169.946,14.445 171.671,14.500 173.065 C 14.583 175.174,14.701 174.995,15.198 172.000 C 15.834 168.173,15.718 167.097,14.899 169.231 M12.517 186.975 C 12.243 188.639,12.067 192.520,12.127 195.600 C 12.226 200.616,12.300 200.323,12.836 192.800 C 13.466 183.967,13.353 181.917,12.517 186.975 M380.280 194.400 C 380.280 198.140,380.417 199.670,380.586 197.800 C 380.754 195.930,380.754 192.870,380.586 191.000 C 380.417 189.130,380.280 190.660,380.280 194.400 M12.095 212.067 C 12.147 215.770,12.447 219.880,12.761 221.200 C 13.076 222.520,13.166 219.640,12.961 214.800 C 12.517 204.310,11.961 202.555,12.095 212.067 M378.044 231.644 C 377.743 233.250,377.657 234.723,377.852 234.919 C 378.048 235.115,378.454 233.961,378.756 232.356 C 379.057 230.750,379.143 229.277,378.948 229.081 C 378.752 228.885,378.346 230.039,378.044 231.644 M14.586 234.400 C 14.586 235.940,14.750 236.570,14.951 235.800 C 15.153 235.030,15.153 233.770,14.951 233.000 C 14.750 232.230,14.586 232.860,14.586 234.400 M16.488 244.400 C 17.146 247.342,17.604 247.980,17.588 245.933 C 17.581 245.090,17.210 243.860,16.763 243.200 C 16.170 242.324,16.096 242.647,16.488 244.400 M373.693 252.135 C 373.642 252.869,373.393 254.129,373.140 254.935 C 372.703 256.324,372.727 256.326,373.593 254.975 C 374.096 254.191,374.345 252.931,374.147 252.175 C 373.821 250.936,373.776 250.932,373.693 252.135 M371.334 259.959 C 370.866 261.302,370.653 262.400,370.861 262.400 C 371.401 262.400,372.911 258.244,372.515 257.848 C 372.333 257.667,371.802 258.617,371.334 259.959 M346.400 309.600 C 345.006 311.360,344.046 312.800,344.266 312.800 C 344.486 312.800,345.806 311.360,347.200 309.600 C 348.594 307.840,349.554 306.400,349.334 306.400 C 349.114 306.400,347.794 307.840,346.400 309.600 M329.950 329.800 L 327.600 332.400 330.200 330.050 C 332.624 327.860,333.168 327.200,332.550 327.200 C 332.412 327.200,331.242 328.370,329.950 329.800 M64.400 332.000 C 66.567 334.200,68.520 336.000,68.740 336.000 C 68.960 336.000,67.367 334.200,65.200 332.000 C 63.033 329.800,61.080 328.000,60.860 328.000 C 60.640 328.000,62.233 329.800,64.400 332.000 M321.950 337.800 L 319.600 340.400 322.396 338.000 C 323.934 336.680,325.344 335.510,325.529 335.400 C 325.715 335.290,325.514 335.200,325.083 335.200 C 324.652 335.200,323.242 336.370,321.950 337.800 M314.750 344.200 L 312.400 346.800 315.000 344.450 C 317.424 342.260,317.968 341.600,317.350 341.600 C 317.212 341.600,316.042 342.770,314.750 344.200 M230.400 384.000 C 228.792 384.515,228.714 384.645,230.000 384.664 C 230.880 384.677,232.320 384.378,233.200 384.000 C 235.239 383.124,233.135 383.124,230.400 384.000 M212.800 386.400 L 209.200 386.960 212.400 387.000 C 214.160 387.022,216.500 386.752,217.600 386.400 C 220.127 385.591,218.004 385.591,212.800 386.400 " stroke="none" fill="#b8d7f4" fill-rule="evenodd"></path></g></svg>