<?xml version="1.0" standalone="no"?>
<!DOCTYPE svg PUBLIC "-//W3C//DTD SVG 20010904//EN"
 "http://www.w3.org/TR/2001/REC-SVG-20010904/DTD/svg10.dtd">
<svg version="1.0" xmlns="http://www.w3.org/2000/svg"
 width="321.000000pt" height="454.000000pt" viewBox="0 0 321.000000 454.000000"
 preserveAspectRatio="xMidYMid meet">
<metadata>
Created by potrace 1.13, written by Peter Selinger 2001-2015
</metadata>
<g transform="translate(0.000000,454.000000) scale(0.100000,-0.100000)"
fill="#000000" stroke="none">
<path d="M1495 4373 c-149 -9 -309 -42 -425 -88 -74 -29 -105 -63 -164 -182
-102 -204 -156 -491 -156 -832 l0 -158 41 -12 41 -12 56 50 c132 118 317 261
457 353 135 89 431 248 512 276 27 9 33 17 42 64 6 29 25 73 41 97 l29 44 -26
46 c-115 200 -288 366 -375 359 -13 -1 -45 -3 -73 -5z"/>
<path d="M1916 4277 c38 -39 92 -106 119 -148 l50 -77 70 1 c91 1 160 -28 218
-93 l43 -47 104 -5 c58 -3 114 -9 124 -14 68 -27 -125 149 -259 238 -138 91
-289 158 -446 198 -43 11 -81 20 -84 20 -4 0 23 -33 61 -73z"/>
<path d="M680 4071 c-169 -131 -342 -345 -429 -532 -58 -123 -59 -129 -22
-204 48 -96 245 -296 292 -295 8 1 26 11 40 23 l27 22 5 225 c8 313 48 527
137 732 21 48 35 88 31 87 -3 0 -40 -26 -81 -58z"/>
<path d="M2447 3773 c-4 -3 -7 -18 -7 -32 0 -45 -45 -125 -94 -168 l-46 -41
29 -113 c35 -135 78 -388 88 -506 l6 -84 49 -21 c53 -22 134 -104 144 -144 3
-13 10 -24 14 -24 4 0 43 12 86 26 144 47 272 126 319 198 11 17 12 43 5 142
-5 67 -17 157 -25 200 -32 156 -112 354 -197 486 -36 55 -38 56 -107 72 -69
16 -251 22 -264 9z"/>
<path d="M1769 3552 c-244 -123 -458 -265 -675 -448 -146 -123 -139 -113 -120
-171 9 -25 16 -68 16 -94 l0 -47 123 -41 c284 -94 655 -161 888 -161 l86 0 11
38 c20 67 68 130 122 159 27 16 50 35 50 43 1 82 -68 484 -107 623 -13 46 -20
57 -37 57 -36 0 -120 45 -156 84 -19 20 -37 36 -40 36 -4 0 -76 -35 -161 -78z"/>
<path d="M141 3212 c-22 -98 -31 -181 -31 -305 0 -237 46 -437 152 -655 l42
-87 8 68 c13 113 76 276 155 401 l25 39 -22 46 c-17 33 -24 66 -25 117 l-1 71
-73 63 c-85 73 -150 153 -190 232 l-29 57 -11 -47z"/>
<path d="M2972 2660 c-56 -50 -181 -117 -275 -146 -56 -17 -60 -21 -87 -74
-33 -66 -79 -109 -142 -136 l-46 -18 -6 -66 c-19 -182 -79 -406 -147 -544 -21
-44 -37 -81 -36 -83 2 -1 39 18 83 44 305 178 548 478 652 803 30 94 68 258
61 265 -2 1 -28 -18 -57 -45z"/>
<path d="M880 2620 c-19 -17 -40 -30 -47 -30 -20 0 -16 -27 21 -172 71 -273
169 -513 282 -685 64 -99 177 -222 243 -264 44 -29 47 -29 190 -29 156 0 225
8 363 41 85 21 89 23 124 70 103 140 186 406 210 671 l6 75 -31 13 c-17 7 -53
37 -80 66 l-50 54 -103 0 c-189 0 -481 40 -703 96 -79 20 -268 80 -375 118 -8
3 -30 -8 -50 -24z"/>
<path d="M557 2503 c-95 -159 -147 -308 -147 -425 l0 -68 63 -73 c158 -181
382 -333 611 -416 l58 -21 -33 40 c-194 233 -348 560 -430 915 -12 55 -27 106
-32 113 -21 27 -44 10 -90 -65z"/>
<path d="M1000 1271 c-31 -11 -67 -33 -82 -49 -30 -35 -53 -126 -43 -173 4
-17 83 -145 176 -285 92 -140 173 -271 180 -292 6 -22 10 -79 8 -130 -4 -85
-6 -93 -34 -123 -73 -77 -196 -80 -265 -5 -21 23 -26 40 -30 104 -4 60 -8 77
-20 77 -19 0 -26 -87 -11 -142 32 -119 217 -168 320 -85 64 52 77 87 75 205
-1 74 -6 113 -18 136 -9 17 -91 145 -182 284 l-166 252 5 58 c6 70 25 100 77
127 51 26 112 26 160 -1 52 -29 70 -65 70 -138 0 -48 3 -61 15 -61 12 0 15 15
15 75 0 69 -2 77 -31 110 -60 68 -131 86 -219 56z"/>
<path d="M1998 1254 c-5 -4 -8 -123 -8 -265 0 -248 -1 -257 -20 -262 -11 -3
-20 -12 -20 -21 0 -9 8 -16 20 -16 20 0 20 -7 20 -290 0 -283 0 -290 20 -290
20 0 20 7 20 289 l0 289 98 4 c111 5 164 26 206 81 25 32 26 40 26 158 -1 133
-10 174 -54 238 -43 62 -95 85 -206 89 -52 2 -98 1 -102 -4z m239 -62 c17 -12
44 -47 58 -77 23 -46 28 -71 32 -172 l6 -118 -29 -34 c-40 -48 -79 -61 -184
-61 l-90 0 0 246 0 246 88 -4 c71 -2 93 -7 119 -26z"/>
<path d="M1515 1211 c-53 -24 -92 -65 -105 -110 -6 -21 -10 -199 -10 -441 0
-376 2 -408 19 -447 29 -64 87 -97 175 -101 64 -3 75 -1 117 26 78 50 80 60
77 369 l-3 268 -90 3 c-103 3 -135 -2 -135 -23 0 -12 18 -15 100 -15 l100 0 0
-244 c0 -236 -1 -244 -22 -276 -34 -49 -71 -72 -125 -77 -61 -6 -125 23 -154
70 -19 31 -19 49 -17 464 l3 432 35 36 c54 56 132 70 207 36 52 -24 73 -63 73
-136 0 -41 3 -56 13 -53 7 3 13 28 15 69 2 49 -2 71 -17 95 -41 67 -169 95
-256 55z"/>
</g>
</svg>
