<svg id="svg" version="1.1" width="500" height="707" xmlns="http://www.w3.org/2000/svg" xmlns:xlink="http://www.w3.org/1999/xlink" style="display: block;"><g id="svgg"><path id="path0" d="M126.400 407.200 C 126.400 407.640,125.622 408.000,124.670 408.000 C 122.053 408.000,115.627 412.473,113.427 415.826 C 109.319 422.089,108.381 437.807,111.937 440.800 C 112.443 441.226,114.992 445.066,127.864 464.800 C 136.571 478.148,136.886 478.620,140.200 483.288 C 141.410 484.992,142.400 486.584,142.400 486.827 C 142.400 487.069,142.770 487.702,143.222 488.234 C 146.068 491.581,152.934 502.869,153.331 504.854 C 153.593 506.163,154.120 507.427,154.503 507.664 C 155.490 508.274,155.392 531.787,154.400 532.400 C 153.960 532.672,153.600 533.437,153.600 534.101 C 153.600 537.352,146.946 543.219,140.800 545.388 C 137.594 546.519,127.509 546.747,126.864 545.703 C 126.627 545.320,125.436 544.805,124.217 544.559 C 117.112 543.123,112.804 536.006,112.788 525.677 C 112.774 517.060,112.130 515.033,109.973 516.822 C 108.409 518.120,108.663 529.894,110.375 535.481 C 114.090 547.599,135.985 553.592,147.528 545.650 C 156.147 539.719,158.468 534.718,158.392 522.237 C 158.364 517.707,158.442 513.460,158.564 512.800 C 159.033 510.260,156.425 502.592,153.532 498.000 C 150.955 493.911,138.523 474.896,136.009 471.200 C 130.122 462.541,123.200 451.739,123.200 451.209 C 123.200 450.837,122.930 450.413,122.600 450.267 C 121.940 449.973,116.812 442.294,114.356 437.922 C 109.607 429.467,114.356 416.088,123.734 411.500 C 137.786 404.624,151.996 412.786,151.999 427.735 C 152.000 434.957,152.424 436.800,154.086 436.800 C 155.780 436.800,155.644 421.578,153.918 417.940 C 152.314 414.559,147.526 410.182,143.089 408.038 C 139.406 406.258,126.400 405.605,126.400 407.200 M249.400 410.050 C 249.070 410.389,248.800 425.148,248.800 442.848 C 248.800 477.634,249.003 476.000,244.676 476.000 C 241.862 476.000,243.249 478.765,246.207 479.051 L 248.800 479.301 248.800 515.306 L 248.800 551.311 250.600 551.056 L 252.400 550.800 252.608 515.000 L 252.816 479.200 262.663 479.200 C 277.573 479.200,285.629 476.047,291.061 468.087 L 293.600 464.367 293.600 450.352 C 293.600 428.142,289.510 418.599,277.074 411.796 C 273.864 410.040,250.824 408.586,249.400 410.050 M191.200 414.300 C 184.277 416.800,179.724 420.588,177.128 426.009 C 174.600 431.289,174.772 534.058,177.318 538.800 C 182.321 548.121,187.370 550.800,199.933 550.800 C 207.169 550.800,209.957 550.528,210.200 549.800 C 210.383 549.250,210.996 548.800,211.562 548.800 C 213.398 548.800,218.820 543.393,220.642 539.744 C 222.402 536.222,222.416 535.885,222.209 503.094 L 222.000 470.000 208.811 470.000 C 196.963 470.000,195.595 470.140,195.356 471.379 C 195.116 472.628,196.244 472.779,207.345 472.979 L 219.600 473.200 219.810 503.029 L 220.020 532.858 217.960 537.212 C 215.709 541.970,211.262 546.223,207.783 546.946 C 206.564 547.199,205.373 547.720,205.136 548.103 C 204.013 549.920,189.683 547.941,188.009 545.738 C 187.784 545.442,186.896 544.811,186.036 544.336 C 185.176 543.860,183.376 542.117,182.036 540.462 L 179.600 537.452 179.366 484.526 C 179.237 455.417,179.350 430.398,179.616 428.929 C 181.347 419.362,199.632 412.508,209.833 417.602 C 217.642 421.502,219.843 425.162,220.178 434.800 C 220.302 438.385,220.752 441.200,221.200 441.200 C 222.106 441.200,222.732 429.718,222.032 425.930 C 220.213 416.078,203.614 409.817,191.200 414.300 M273.668 413.744 C 275.157 414.263,276.741 414.970,277.188 415.316 C 287.774 423.505,289.582 427.961,290.177 447.324 C 290.684 463.814,290.575 464.455,286.523 468.672 C 281.058 474.360,277.498 475.470,264.491 475.539 L 253.200 475.600 252.990 445.203 C 252.875 428.484,252.953 414.354,253.165 413.803 C 253.673 412.478,269.904 412.431,273.668 413.744 " stroke="none" fill="#0066cc" fill-rule="evenodd"></path><path id="path1" d="M185.200 21.274 C 161.587 23.203,145.133 26.892,128.000 34.097 C 124.937 35.385,119.155 42.882,114.193 52.000 C 108.212 62.989,101.993 81.697,98.901 98.000 C 98.233 101.520,97.309 106.380,96.847 108.800 C 94.695 120.067,92.900 151.983,93.475 168.773 L 93.774 177.518 99.007 179.208 L 104.239 180.898 107.520 177.748 C 115.776 169.820,124.215 162.353,130.463 157.446 C 132.848 155.572,134.980 153.816,135.200 153.543 C 137.329 150.898,167.102 130.232,182.000 121.057 C 193.775 113.805,214.098 103.577,231.699 96.044 C 235.614 94.369,235.820 94.126,236.300 90.628 C 237.171 84.270,238.297 81.207,241.697 75.947 L 245.002 70.833 243.126 67.216 C 241.181 63.468,236.909 56.199,235.830 54.800 C 235.491 54.360,233.101 51.120,230.520 47.600 C 221.816 35.730,211.943 26.700,202.858 22.298 C 200.250 21.034,198.090 20.051,198.058 20.114 C 198.026 20.176,192.240 20.698,185.200 21.274 M233.744 27.189 C 240.761 33.342,248.954 43.811,259.600 60.229 C 260.264 61.253,261.215 61.342,265.200 60.752 C 277.526 58.927,289.738 63.825,297.373 73.656 L 300.893 78.189 313.046 78.609 C 319.731 78.840,326.388 79.469,327.841 80.007 C 329.293 80.545,330.728 80.739,331.029 80.437 C 332.443 79.024,299.055 50.400,295.994 50.400 C 295.557 50.400,295.200 50.082,295.200 49.693 C 295.200 49.305,294.570 48.768,293.800 48.501 C 293.030 48.234,290.600 46.924,288.400 45.589 C 282.080 41.757,267.400 34.842,260.400 32.400 C 256.880 31.172,253.640 29.901,253.200 29.576 C 252.760 29.251,250.600 28.569,248.400 28.061 C 246.200 27.553,242.240 26.594,239.600 25.931 C 229.641 23.427,229.490 23.459,233.744 27.189 M88.400 56.054 C 68.917 70.537,52.854 88.157,39.764 109.409 C 37.254 113.484,35.200 116.974,35.200 117.163 C 35.200 117.353,33.130 121.758,30.600 126.954 C 23.822 140.873,24.051 143.855,32.923 157.200 C 38.055 164.919,43.577 170.870,52.664 178.472 C 64.016 187.969,63.983 187.957,69.264 184.321 L 73.600 181.334 73.629 160.467 C 73.661 136.952,74.587 125.717,78.328 103.479 C 79.314 97.620,82.493 85.285,85.308 76.400 C 87.754 68.677,89.375 64.746,93.964 55.400 C 96.531 50.174,96.270 50.205,88.400 56.054 M304.041 100.505 C 302.480 109.466,296.965 117.992,289.358 123.204 L 286.668 125.048 287.665 129.124 C 288.214 131.366,289.363 135.900,290.219 139.200 C 291.075 142.500,292.389 148.080,293.139 151.600 C 293.890 155.120,294.854 159.347,295.282 160.994 C 295.710 162.640,296.385 166.240,296.783 168.994 C 297.180 171.747,298.086 177.780,298.796 182.400 C 299.505 187.020,300.536 195.751,301.086 201.802 C 302.183 213.886,302.035 213.560,307.297 215.495 C 315.591 218.544,326.400 229.546,326.400 234.941 C 326.400 237.081,335.502 235.298,343.721 231.550 C 345.107 230.917,346.611 230.400,347.062 230.400 C 350.525 230.400,368.028 219.683,374.195 213.786 C 379.408 208.801,380.345 205.870,379.248 197.984 C 378.782 194.629,378.400 189.994,378.400 187.683 C 378.400 168.630,366.830 131.908,354.459 111.696 C 352.666 108.768,351.200 106.183,351.200 105.952 C 351.200 105.721,350.836 105.098,350.391 104.566 C 349.947 104.035,348.866 102.643,347.991 101.473 C 344.859 97.288,338.353 95.842,320.698 95.405 L 304.996 95.017 304.041 100.505 M238.400 114.390 C 237.740 114.772,230.000 118.653,221.200 123.013 C 202.042 132.505,177.384 147.260,164.401 157.001 C 152.753 165.739,144.612 171.992,142.343 173.943 C 140.772 175.295,138.432 177.269,137.143 178.332 C 133.076 181.685,123.820 189.909,121.467 192.259 L 119.206 194.517 120.741 198.259 C 123.028 203.831,124.242 210.098,123.798 214.038 L 123.404 217.538 128.702 219.499 C 139.300 223.423,156.282 228.641,164.400 230.469 C 166.160 230.866,168.860 231.533,170.400 231.953 C 171.940 232.373,176.080 233.306,179.600 234.026 C 183.120 234.746,187.663 235.689,189.696 236.122 C 205.111 239.406,238.260 243.076,253.290 243.163 L 259.781 243.200 261.224 238.600 C 264.296 228.806,270.315 221.113,278.077 217.057 L 282.396 214.800 282.355 210.800 C 282.224 198.112,276.698 164.590,270.881 141.200 C 270.224 138.560,269.278 134.690,268.779 132.600 C 268.042 129.519,267.542 128.798,266.135 128.791 C 260.344 128.762,251.645 124.289,245.540 118.200 C 240.756 113.428,240.393 113.235,238.400 114.390 M18.551 162.118 C 18.046 163.061,17.417 165.940,17.152 168.516 C 16.887 171.092,16.338 174.100,15.932 175.200 C 13.792 181.004,13.773 225.254,15.908 232.241 C 16.338 233.649,17.036 236.960,17.460 239.600 C 18.682 247.216,22.293 260.191,24.807 266.000 C 25.188 266.880,25.739 268.500,26.031 269.600 C 26.581 271.670,30.021 279.246,35.082 289.531 L 38.000 295.462 38.481 289.531 C 39.607 275.648,48.383 252.395,58.272 237.096 L 61.335 232.356 59.182 228.369 C 56.320 223.072,54.300 213.162,55.248 209.076 C 56.352 204.320,56.178 203.750,52.931 201.455 C 40.759 192.849,23.451 172.370,20.266 162.802 C 19.488 160.465,19.445 160.448,18.551 162.118 M373.984 231.667 C 367.506 237.776,348.213 249.600,344.722 249.600 C 344.238 249.600,342.707 250.118,341.321 250.750 C 339.934 251.383,336.460 252.596,333.600 253.445 C 328.484 254.964,328.372 255.057,326.680 259.226 C 322.715 268.996,309.543 280.800,302.607 280.800 C 302.227 280.800,301.491 284.670,300.973 289.400 C 300.123 297.153,299.099 303.712,296.883 315.600 C 295.454 323.268,290.511 340.172,288.757 343.389 C 288.341 344.153,288.000 345.290,288.000 345.915 C 288.000 346.540,285.698 351.585,282.884 357.126 C 280.070 362.667,277.902 367.200,278.066 367.200 C 279.935 367.200,296.942 356.570,306.800 349.240 C 333.748 329.202,354.230 301.611,367.998 266.800 C 371.748 257.318,378.347 230.286,377.227 228.990 C 377.128 228.874,375.668 230.079,373.984 231.667 M110.000 239.281 C 107.800 241.015,105.190 242.645,104.200 242.903 C 102.207 243.424,101.782 246.558,103.116 250.881 C 103.510 252.156,104.617 256.620,105.576 260.800 C 106.536 264.980,107.603 269.300,107.948 270.400 C 108.292 271.500,109.155 274.380,109.865 276.800 C 124.673 327.273,147.006 365.479,171.591 382.394 C 177.277 386.306,219.429 387.595,226.330 384.068 C 227.028 383.711,229.656 383.188,232.170 382.906 C 234.683 382.624,237.563 382.068,238.570 381.671 C 239.576 381.273,242.861 380.326,245.869 379.566 C 252.004 378.017,253.088 377.117,258.175 369.348 C 261.581 364.146,268.000 352.041,268.000 350.820 C 268.000 350.502,268.496 349.107,269.103 347.721 C 273.023 338.758,277.215 323.098,279.630 308.400 C 281.390 297.686,282.250 290.599,282.481 284.887 L 282.688 279.775 278.912 277.856 C 274.948 275.841,267.578 269.142,265.209 265.400 L 263.816 263.200 251.708 263.184 C 239.818 263.168,217.794 261.234,202.000 258.820 C 183.148 255.938,184.911 256.291,165.600 251.521 C 159.220 249.946,152.380 248.287,150.400 247.836 C 148.420 247.384,146.440 246.744,146.000 246.412 C 145.560 246.080,143.806 245.557,142.102 245.250 C 140.397 244.942,138.417 244.393,137.702 244.029 C 135.463 242.890,115.638 235.997,114.798 236.065 C 114.359 236.100,112.200 237.548,110.000 239.281 M74.556 246.200 C 69.998 252.657,61.848 267.402,58.969 274.400 C 55.412 283.046,54.987 284.357,52.052 295.693 C 51.584 297.504,51.200 302.510,51.200 306.817 C 51.200 315.473,51.329 315.765,58.770 323.954 C 75.018 341.832,94.601 357.209,112.020 365.765 C 123.105 371.211,128.297 373.538,130.378 373.995 C 131.700 374.286,132.987 374.855,133.238 375.262 C 133.489 375.668,134.411 376.000,135.287 376.000 C 136.163 376.000,137.975 376.567,139.314 377.259 C 142.900 379.113,142.781 378.336,138.869 374.354 C 128.631 363.929,117.272 346.707,108.057 327.639 C 98.697 308.268,90.518 284.995,85.553 263.600 C 85.144 261.840,84.457 259.140,84.026 257.600 C 83.594 256.060,82.852 252.758,82.377 250.263 C 81.568 246.017,79.622 244.000,76.335 244.000 C 76.211 244.000,75.410 244.990,74.556 246.200 M131.800 406.165 C 132.790 406.355,134.410 406.355,135.400 406.165 C 136.390 405.974,135.580 405.818,133.600 405.818 C 131.620 405.818,130.810 405.974,131.800 406.165 M248.960 409.760 C 248.239 410.481,248.046 418.783,248.187 443.160 L 248.373 475.600 248.787 442.800 L 249.200 410.000 260.527 410.000 C 266.757 410.000,271.437 409.736,270.927 409.412 C 269.312 408.388,250.027 408.693,248.960 409.760 M138.400 409.868 C 138.400 410.074,139.562 410.648,140.982 411.143 C 142.402 411.638,143.212 411.714,142.782 411.312 C 141.871 410.459,138.400 409.315,138.400 409.868 M148.000 410.650 C 148.000 410.788,149.170 411.958,150.600 413.250 L 153.200 415.600 150.850 413.000 C 148.660 410.576,148.000 410.032,148.000 410.650 M113.905 413.800 C 111.151 418.472,110.972 418.871,112.374 417.200 C 113.999 415.264,115.400 412.800,114.875 412.800 C 114.666 412.800,114.229 413.250,113.905 413.800 M258.231 413.393 C 260.999 413.550,265.319 413.549,267.831 413.390 C 270.344 413.232,268.080 413.104,262.800 413.105 C 257.520 413.107,255.464 413.236,258.231 413.393 M147.988 415.606 C 151.174 419.443,151.442 419.690,150.572 417.991 C 150.119 417.106,148.905 415.669,147.874 414.797 C 146.066 413.267,146.070 413.296,147.988 415.606 M217.994 419.203 C 221.787 423.635,221.839 423.684,220.971 422.000 C 220.518 421.120,219.124 419.501,217.873 418.403 L 215.600 416.406 217.994 419.203 M281.598 419.602 C 283.137 421.361,284.711 423.160,285.096 423.600 C 285.481 424.040,285.423 423.680,284.967 422.800 C 284.511 421.920,282.937 420.121,281.469 418.802 L 278.800 416.403 281.598 419.602 M286.808 420.400 C 290.014 424.853,290.900 425.678,289.114 422.546 C 288.281 421.087,286.903 419.287,286.052 418.546 C 285.152 417.763,285.468 418.539,286.808 420.400 M155.027 425.875 C 155.369 436.908,155.747 438.225,155.868 428.800 C 155.927 424.180,155.711 419.984,155.388 419.475 C 155.064 418.966,154.902 421.846,155.027 425.875 M110.021 422.200 C 109.718 422.970,109.339 426.300,109.179 429.600 L 108.887 435.600 109.551 429.921 C 109.916 426.798,110.461 423.468,110.762 422.521 C 111.414 420.464,110.807 420.201,110.021 422.200 M151.484 427.600 C 151.482 431.560,151.617 433.281,151.785 431.424 C 151.952 429.567,151.954 426.327,151.789 424.224 C 151.624 422.121,151.486 423.640,151.484 427.600 M113.286 424.465 C 112.591 426.274,112.684 435.834,113.400 436.274 C 113.730 436.477,114.000 433.618,114.000 429.921 C 114.000 422.620,113.998 422.608,113.286 424.465 M222.000 432.796 C 222.000 437.552,222.270 441.278,222.600 441.075 C 223.374 440.599,223.363 426.295,222.588 425.074 C 222.264 424.565,222.000 428.040,222.000 432.796 M179.958 427.711 C 179.516 428.872,179.304 429.970,179.485 430.152 C 179.667 430.333,180.198 429.383,180.666 428.041 C 181.706 425.057,181.078 424.764,179.958 427.711 M219.056 433.436 C 219.197 437.266,219.557 440.654,219.856 440.964 C 220.155 441.274,220.285 438.394,220.144 434.564 C 220.003 430.734,219.643 427.346,219.344 427.036 C 219.045 426.726,218.915 429.606,219.056 433.436 M289.926 451.200 C 289.926 458.460,290.047 461.430,290.195 457.800 C 290.343 454.170,290.343 448.230,290.195 444.600 C 290.047 440.970,289.926 443.940,289.926 451.200 M293.926 451.200 C 293.926 458.460,294.047 461.430,294.195 457.800 C 294.343 454.170,294.343 448.230,294.195 444.600 C 294.047 440.970,293.926 443.940,293.926 451.200 M115.924 447.859 C 116.411 448.767,117.203 449.754,117.684 450.052 C 118.311 450.440,118.309 450.125,117.676 448.941 C 117.189 448.033,116.397 447.046,115.916 446.748 C 115.289 446.360,115.291 446.675,115.924 447.859 M195.360 469.760 C 194.832 470.288,194.400 471.077,194.400 471.513 C 194.400 471.949,194.852 471.687,195.405 470.932 C 196.295 469.715,197.875 469.583,209.205 469.779 L 222.000 470.000 222.000 504.124 C 222.000 522.893,222.264 537.833,222.588 537.324 C 223.920 535.229,223.292 469.806,221.935 469.286 C 219.460 468.336,196.372 468.748,195.360 469.760 M218.228 473.404 C 219.041 473.978,219.208 480.488,219.028 504.609 C 218.903 521.374,219.074 534.599,219.410 533.998 C 220.684 531.718,219.718 473.365,218.400 473.006 C 217.483 472.755,217.443 472.849,218.228 473.404 M257.800 475.791 C 260.330 475.950,264.470 475.950,267.000 475.791 C 269.530 475.632,267.460 475.503,262.400 475.503 C 257.340 475.503,255.270 475.632,257.800 475.791 M248.368 515.200 C 248.368 535.220,248.472 543.410,248.599 533.400 C 248.726 523.390,248.726 507.010,248.599 497.000 C 248.472 486.990,248.368 495.180,248.368 515.200 M157.308 506.000 C 158.148 509.806,159.295 512.093,158.712 508.800 C 158.439 507.260,157.893 505.460,157.497 504.800 C 157.027 504.016,156.962 504.431,157.308 506.000 M154.000 520.000 C 154.000 526.956,154.270 532.480,154.600 532.276 C 154.930 532.072,155.200 526.548,155.200 520.000 C 155.200 513.452,154.930 507.928,154.600 507.724 C 154.270 507.520,154.000 513.044,154.000 520.000 M112.664 525.065 C 112.809 529.979,113.169 534.254,113.464 534.563 C 113.759 534.873,113.820 531.032,113.600 526.027 C 113.380 521.021,113.020 516.747,112.800 516.528 C 112.580 516.309,112.519 520.150,112.664 525.065 M158.554 524.948 C 158.469 528.329,158.041 532.040,157.602 533.194 C 157.111 534.486,157.099 535.109,157.571 534.818 C 158.750 534.089,159.325 529.739,159.002 524.000 L 158.708 518.800 158.554 524.948 M116.800 539.600 C 118.293 541.140,119.694 542.400,119.914 542.400 C 120.134 542.400,119.093 541.140,117.600 539.600 C 116.107 538.060,114.706 536.800,114.486 536.800 C 114.266 536.800,115.307 538.060,116.800 539.600 M151.550 542.600 L 149.200 545.200 151.800 542.850 C 154.224 540.660,154.768 540.000,154.150 540.000 C 154.012 540.000,152.842 541.170,151.550 542.600 M181.600 540.250 C 181.600 540.388,182.770 541.558,184.200 542.850 L 186.800 545.200 184.450 542.600 C 182.260 540.176,181.600 539.632,181.600 540.250 M126.926 545.800 C 127.401 546.573,138.506 546.562,139.726 545.788 C 140.236 545.464,137.481 545.200,133.605 545.200 C 129.728 545.200,126.723 545.470,126.926 545.800 M129.500 549.663 C 130.985 549.980,133.865 549.970,135.900 549.641 C 139.106 549.124,138.746 549.047,133.200 549.066 C 128.587 549.082,127.554 549.248,129.500 549.663 M196.600 551.786 C 198.470 551.954,201.530 551.954,203.400 551.786 C 205.270 551.617,203.740 551.480,200.000 551.480 C 196.260 551.480,194.730 551.617,196.600 551.786 " stroke="none" fill="#3974b5" fill-rule="evenodd"></path><path id="path2" d="M180.400 20.800 L 174.800 21.317 179.600 21.379 C 182.240 21.413,187.460 21.173,191.200 20.844 L 198.000 20.248 192.000 20.265 C 188.700 20.275,183.480 20.515,180.400 20.800 M199.200 20.309 C 199.200 20.538,200.894 21.474,202.964 22.390 C 211.109 25.993,222.130 36.067,230.544 47.600 C 233.112 51.120,235.491 54.360,235.830 54.800 C 236.909 56.199,241.181 63.468,243.126 67.216 L 245.002 70.833 241.697 75.947 C 238.448 80.974,236.390 86.407,237.033 88.259 C 237.213 88.777,237.632 87.940,237.964 86.400 C 238.810 82.483,240.704 78.500,243.345 75.085 C 246.412 71.120,245.957 69.081,239.980 60.000 C 239.545 59.340,238.951 58.260,238.658 57.600 C 237.745 55.539,225.066 38.962,221.832 35.600 C 214.674 28.160,199.200 17.705,199.200 20.309 M162.400 23.200 C 158.402 24.042,162.504 24.077,167.200 23.241 C 170.447 22.663,170.526 22.601,168.000 22.605 C 166.460 22.608,163.940 22.876,162.400 23.200 M228.800 23.606 C 228.800 23.830,232.016 27.122,235.946 30.922 C 242.762 37.514,251.035 48.092,256.810 57.600 L 259.482 62.000 270.083 62.000 C 275.913 62.000,280.260 61.778,279.742 61.507 C 277.803 60.492,269.834 60.083,265.200 60.760 C 261.221 61.342,260.263 61.251,259.600 60.229 C 248.802 43.577,240.214 32.649,233.785 27.381 C 230.709 24.861,230.436 24.400,231.720 23.895 C 232.907 23.428,232.764 23.301,231.000 23.256 C 229.790 23.225,228.800 23.383,228.800 23.606 M154.000 25.230 C 150.832 26.326,150.828 26.333,153.600 25.877 C 155.140 25.624,156.940 25.109,157.600 24.733 C 159.361 23.729,157.660 23.964,154.000 25.230 M235.200 24.722 C 236.862 25.684,242.362 26.688,240.800 25.745 C 240.140 25.346,238.340 24.797,236.800 24.524 C 235.057 24.215,234.453 24.290,235.200 24.722 M144.400 27.630 C 141.232 28.726,141.228 28.733,144.000 28.277 C 145.540 28.024,147.340 27.509,148.000 27.133 C 149.761 26.129,148.060 26.364,144.400 27.630 M244.800 27.104 C 245.460 27.476,247.260 28.003,248.800 28.276 C 250.485 28.575,251.122 28.503,250.400 28.096 C 249.740 27.724,247.940 27.197,246.400 26.924 C 244.715 26.625,244.078 26.697,244.800 27.104 M137.200 30.028 C 135.200 30.992,135.133 31.103,136.800 30.695 C 139.067 30.141,141.615 28.843,140.400 28.860 C 139.960 28.867,138.520 29.392,137.200 30.028 M252.800 29.261 C 252.800 29.801,256.956 31.311,257.352 30.915 C 257.533 30.733,256.583 30.202,255.241 29.734 C 253.898 29.266,252.800 29.053,252.800 29.261 M259.200 32.000 C 259.860 32.427,260.940 32.775,261.600 32.775 C 262.667 32.775,262.667 32.689,261.600 32.000 C 260.940 31.573,259.860 31.225,259.200 31.225 C 258.133 31.225,258.133 31.311,259.200 32.000 M126.760 33.566 C 124.523 34.472,112.000 51.773,112.000 53.958 C 112.000 54.140,110.904 56.656,109.565 59.549 C 106.379 66.433,102.029 79.790,99.965 89.028 C 99.059 93.082,98.001 97.660,97.615 99.200 C 97.228 100.740,96.724 104.160,96.494 106.800 C 96.011 112.332,96.499 110.542,98.893 98.000 C 102.021 81.613,108.221 62.973,114.193 52.000 C 118.589 43.923,124.955 35.424,127.600 34.102 C 130.142 32.831,129.533 32.443,126.760 33.566 M263.200 33.068 C 263.200 33.274,264.362 33.848,265.782 34.343 C 267.202 34.838,268.012 34.914,267.582 34.512 C 266.671 33.659,263.200 32.515,263.200 33.068 M270.400 36.400 C 271.500 37.029,272.760 37.543,273.200 37.543 C 273.640 37.543,273.100 37.029,272.000 36.400 C 270.900 35.771,269.640 35.257,269.200 35.257 C 268.760 35.257,269.300 35.771,270.400 36.400 M279.516 40.664 C 279.834 41.179,280.483 41.600,280.959 41.600 C 281.434 41.600,283.612 42.701,285.799 44.046 C 287.985 45.392,289.905 46.362,290.065 46.202 C 290.402 45.865,282.740 41.155,280.469 40.303 C 279.402 39.902,279.113 40.012,279.516 40.664 M92.958 52.069 C 91.111 53.427,89.600 54.730,89.600 54.964 C 89.600 55.198,90.884 54.411,92.453 53.214 C 96.278 50.296,96.299 50.587,92.787 58.000 C 87.617 68.913,84.059 78.622,82.819 85.200 C 82.143 88.789,83.565 85.528,85.262 79.600 C 87.002 73.522,90.574 64.512,94.301 56.800 C 95.895 53.500,97.320 50.530,97.467 50.200 C 98.030 48.932,96.181 49.699,92.958 52.069 M297.600 50.653 C 297.600 51.015,304.538 56.320,309.600 59.830 L 312.400 61.772 309.606 59.266 C 306.505 56.484,297.600 50.096,297.600 50.653 M85.570 57.658 L 82.800 60.115 85.800 57.963 C 88.451 56.060,89.314 55.200,88.570 55.200 C 88.443 55.200,87.093 56.306,85.570 57.658 M321.988 70.621 C 331.579 79.895,332.793 81.841,327.841 80.007 C 326.388 79.469,319.731 78.840,313.046 78.609 L 300.893 78.189 297.373 73.656 C 293.989 69.299,287.164 64.022,283.400 62.852 C 280.337 61.900,281.404 62.910,285.822 65.145 C 290.612 67.569,295.198 71.622,298.084 75.983 L 300.050 78.955 312.625 79.435 C 319.541 79.699,326.354 80.324,327.764 80.823 C 335.429 83.538,333.164 79.896,319.715 67.885 C 313.742 62.549,314.158 63.051,321.988 70.621 M68.256 72.601 C 62.615 78.211,56.778 84.421,55.284 86.401 C 53.790 88.380,55.213 87.120,58.446 83.600 C 65.223 76.222,70.843 70.634,76.351 65.800 C 78.482 63.930,79.840 62.400,79.368 62.400 C 78.897 62.400,73.896 66.990,68.256 72.601 M80.105 95.119 C 78.482 101.951,77.672 109.325,79.174 103.600 C 80.908 96.990,82.557 88.691,82.206 88.340 C 81.989 88.122,81.043 91.173,80.105 95.119 M236.120 91.701 C 236.014 93.919,235.524 94.407,231.800 96.001 C 214.083 103.584,193.806 113.787,182.000 121.057 C 167.102 130.232,137.329 150.898,135.200 153.543 C 134.980 153.816,132.848 155.572,130.463 157.446 C 126.254 160.751,117.941 167.929,113.605 172.000 C 112.434 173.100,109.629 175.710,107.372 177.800 C 105.115 179.890,103.585 181.600,103.973 181.600 C 104.360 181.600,105.695 180.588,106.938 179.350 C 111.835 174.479,127.088 161.163,135.615 154.315 C 149.205 143.402,185.976 118.400,188.437 118.400 C 188.654 118.400,190.218 117.525,191.911 116.456 C 197.790 112.745,219.698 101.993,230.400 97.567 C 236.096 95.211,237.003 94.323,236.583 91.508 L 236.240 89.200 236.120 91.701 M48.658 95.000 C 44.758 100.014,43.705 101.600,44.278 101.600 C 44.482 101.600,46.034 99.712,47.725 97.405 C 49.416 95.097,51.270 92.577,51.845 91.805 C 52.420 91.032,52.743 90.400,52.563 90.400 C 52.383 90.400,50.626 92.470,48.658 95.000 M307.800 94.131 C 304.261 94.463,304.007 94.636,304.109 96.644 C 304.211 98.660,304.241 98.677,304.577 96.908 L 304.935 95.016 320.879 95.330 C 329.647 95.502,336.077 95.368,335.166 95.031 C 333.167 94.291,313.122 93.632,307.800 94.131 M341.600 97.656 C 345.687 99.086,348.913 101.637,349.806 104.146 C 350.012 104.726,350.400 105.001,350.667 104.757 C 352.816 102.798,343.057 95.845,338.457 96.058 C 337.766 96.091,339.180 96.810,341.600 97.656 M302.831 102.200 C 301.533 109.317,295.850 117.473,288.176 123.231 L 285.551 125.200 286.697 128.800 C 287.838 132.389,288.345 130.999,287.279 127.200 C 286.798 125.485,287.229 124.809,290.298 122.458 C 297.309 117.085,302.605 109.201,303.669 102.551 C 304.333 98.393,303.583 98.079,302.831 102.200 M42.243 104.200 C 41.616 105.190,40.294 107.440,39.305 109.200 C 37.190 112.965,39.499 110.034,42.245 105.468 C 44.194 102.228,44.193 101.124,42.243 104.200 M77.313 108.540 C 76.651 110.773,75.730 122.057,76.248 121.581 C 76.815 121.061,78.511 107.844,78.068 107.401 C 77.891 107.224,77.551 107.737,77.313 108.540 M354.375 111.658 C 357.078 116.173,358.061 116.969,356.099 113.054 C 355.177 111.214,353.989 109.440,353.459 109.113 C 352.928 108.785,353.341 109.930,354.375 111.658 M94.935 115.773 C 94.069 122.710,93.379 134.008,93.848 133.579 C 94.405 133.070,96.216 112.749,95.745 112.279 C 95.563 112.096,95.198 113.669,94.935 115.773 M236.000 114.566 C 227.312 118.637,208.286 128.304,205.492 130.068 C 203.809 131.131,202.237 132.000,201.998 132.000 C 200.535 132.000,168.699 152.479,168.133 153.784 C 167.987 154.123,167.522 154.400,167.101 154.400 C 165.169 154.400,134.712 178.668,123.246 189.344 L 118.092 194.142 119.748 198.071 C 122.183 203.845,123.446 210.063,122.996 214.054 C 122.759 216.161,122.961 217.866,123.500 218.309 C 124.931 219.485,153.474 228.843,159.200 230.014 C 164.646 231.128,160.951 229.564,152.584 227.215 C 143.387 224.633,136.956 222.555,128.702 219.499 L 123.404 217.538 123.798 214.038 C 124.242 210.098,123.028 203.831,120.741 198.259 L 119.206 194.517 121.467 192.259 C 123.820 189.909,133.076 181.685,137.143 178.332 C 138.432 177.269,140.772 175.295,142.343 173.943 C 144.612 171.992,152.753 165.739,164.401 157.001 C 180.395 145.001,213.302 125.978,235.798 115.728 L 240.784 113.456 245.468 118.128 C 251.656 124.300,260.317 128.763,266.164 128.791 C 267.570 128.798,268.037 129.407,268.466 131.800 C 268.763 133.450,269.326 135.340,269.719 136.000 C 270.650 137.565,269.653 131.310,268.667 129.400 C 268.269 128.630,267.278 128.000,266.464 128.000 C 260.717 128.000,250.220 122.367,245.075 116.522 C 241.372 112.316,240.983 112.232,236.000 114.566 M31.687 122.887 C 30.081 126.268,28.908 129.175,29.081 129.347 C 29.253 129.519,30.707 126.894,32.313 123.513 C 33.919 120.132,35.092 117.225,34.919 117.053 C 34.747 116.881,33.293 119.506,31.687 122.887 M360.000 122.200 C 360.000 122.582,360.522 123.593,361.160 124.447 C 362.280 125.945,362.304 125.936,361.864 124.188 C 361.409 122.382,360.000 120.879,360.000 122.200 M74.894 125.728 C 74.610 127.149,74.236 134.272,74.062 141.556 C 73.728 155.543,73.872 154.829,75.233 135.707 C 76.059 124.104,75.937 120.513,74.894 125.728 M362.708 127.200 C 362.887 127.860,364.007 130.740,365.196 133.600 C 368.751 142.145,368.810 142.262,368.272 139.600 C 368.005 138.280,366.571 134.680,365.085 131.600 C 363.599 128.520,362.529 126.540,362.708 127.200 M288.486 135.600 C 288.772 137.360,289.326 139.340,289.719 140.000 C 290.168 140.755,290.240 140.012,289.914 138.000 C 289.628 136.240,289.074 134.260,288.681 133.600 C 288.232 132.845,288.160 133.588,288.486 135.600 M24.947 138.600 C 22.591 147.366,35.949 166.190,56.000 182.360 C 63.684 188.556,64.724 188.828,68.696 185.682 C 70.420 184.317,72.222 183.200,72.700 183.200 C 73.897 183.200,74.575 180.069,74.190 176.324 C 73.901 173.509,73.856 173.602,73.734 177.267 C 73.553 182.747,66.699 188.232,62.664 186.125 C 47.364 178.139,26.000 151.648,26.000 140.663 C 26.000 135.272,25.896 135.069,24.947 138.600 M92.521 142.200 C 91.867 149.126,91.848 172.641,92.494 175.871 C 92.958 178.189,100.731 181.935,102.145 180.521 C 102.351 180.316,100.512 179.565,98.059 178.852 L 93.600 177.555 93.484 169.778 C 93.420 165.500,93.462 156.330,93.577 149.400 C 93.797 136.101,93.372 133.197,92.521 142.200 M270.922 140.800 C 271.423 144.739,272.781 148.072,272.714 145.200 C 272.694 144.320,272.179 142.160,271.570 140.400 L 270.464 137.200 270.922 140.800 M290.899 144.800 C 291.177 146.780,291.720 149.120,292.105 150.000 C 292.561 151.041,292.630 150.343,292.301 148.000 C 292.023 146.020,291.480 143.680,291.095 142.800 C 290.639 141.759,290.570 142.457,290.899 144.800 M369.259 144.000 C 369.553 145.100,370.127 146.540,370.535 147.200 C 371.050 148.034,371.113 147.790,370.741 146.400 C 370.447 145.300,369.873 143.860,369.465 143.200 C 368.950 142.366,368.887 142.610,369.259 144.000 M272.863 148.349 C 272.828 149.201,273.315 152.081,273.944 154.749 C 274.573 157.417,275.339 161.040,275.647 162.800 C 275.954 164.560,276.386 165.499,276.607 164.886 C 276.988 163.831,274.966 153.112,273.572 148.800 C 273.066 147.231,272.913 147.134,272.863 148.349 M371.657 151.200 C 371.947 152.740,372.496 154.540,372.878 155.200 C 373.310 155.947,373.385 155.343,373.076 153.600 C 372.803 152.060,372.254 150.260,371.855 149.600 C 371.386 148.824,371.316 149.388,371.657 151.200 M292.882 152.977 C 292.807 154.238,294.394 162.740,295.985 169.600 C 296.599 172.248,296.639 172.276,296.717 170.114 C 296.836 166.837,293.060 149.967,292.882 152.977 M18.465 160.252 C 17.308 163.265,17.375 163.813,18.682 162.027 C 19.701 160.633,19.794 160.672,20.301 162.692 C 22.406 171.076,40.608 192.709,52.916 201.455 C 54.576 202.635,56.088 204.140,56.275 204.800 C 56.562 205.815,56.629 205.806,56.707 204.740 C 56.758 204.047,54.407 201.537,51.481 199.164 C 37.813 188.074,25.595 173.332,21.238 162.671 L 19.329 158.000 18.465 160.252 M374.069 160.800 C 374.895 165.093,376.068 167.413,375.484 163.600 C 375.215 161.840,374.665 159.860,374.263 159.200 C 373.785 158.418,373.718 158.975,374.069 160.800 M277.336 170.800 C 277.601 173.440,278.130 176.320,278.512 177.200 C 279.383 179.208,278.529 171.219,277.546 168.155 C 277.085 166.720,277.015 167.603,277.336 170.800 M376.187 169.200 C 376.188 170.520,376.464 172.680,376.800 174.000 C 377.647 177.327,377.684 174.052,376.846 170.000 C 376.289 167.309,376.184 167.182,376.187 169.200 M16.134 169.300 C 16.061 170.235,15.796 172.215,15.547 173.700 C 15.176 175.906,15.258 176.141,15.994 174.986 C 16.490 174.209,16.754 172.229,16.582 170.586 C 16.410 168.944,16.208 168.365,16.134 169.300 M297.375 178.400 C 297.641 181.260,298.155 184.500,298.519 185.600 C 298.917 186.805,298.993 185.396,298.711 182.056 C 298.453 179.007,297.938 175.767,297.567 174.856 C 297.164 173.866,297.087 175.293,297.375 178.400 M13.892 184.540 C 12.732 195.615,13.417 229.387,14.770 227.867 C 14.901 227.720,14.747 222.200,14.427 215.600 C 14.107 209.000,14.132 198.032,14.483 191.227 C 15.181 177.689,14.919 174.733,13.892 184.540 M279.785 186.400 C 280.044 189.700,280.551 193.300,280.911 194.400 C 281.767 197.015,280.842 185.368,279.968 182.528 C 279.579 181.264,279.505 182.835,279.785 186.400 M378.470 187.667 C 378.509 190.710,378.826 195.000,379.176 197.200 C 379.585 199.771,379.663 197.913,379.396 192.000 C 378.932 181.764,378.361 179.092,378.470 187.667 M299.763 195.600 C 300.015 199.560,300.512 204.420,300.867 206.400 C 301.285 208.733,301.360 207.153,301.078 201.911 C 300.839 197.462,300.342 192.602,299.974 191.111 C 299.551 189.397,299.474 191.049,299.763 195.600 M282.174 206.400 L 282.603 214.800 278.888 216.596 C 275.253 218.353,267.626 224.692,268.316 225.382 C 268.507 225.574,270.097 224.340,271.849 222.639 C 273.601 220.939,276.857 218.660,279.086 217.574 L 283.138 215.600 283.123 210.000 C 283.115 206.920,282.801 202.960,282.427 201.200 C 281.974 199.073,281.889 200.817,282.174 206.400 M378.836 207.741 C 377.737 212.122,366.456 221.133,354.992 226.789 C 351.578 228.473,348.951 230.018,349.155 230.222 C 349.711 230.777,360.444 225.160,366.429 221.180 C 372.742 216.984,380.000 209.532,380.000 207.248 C 380.000 204.966,379.477 205.188,378.836 207.741 M54.962 209.956 C 54.716 211.472,54.818 213.722,55.189 214.956 C 55.730 216.760,55.876 216.219,55.931 212.200 C 56.008 206.637,55.639 205.784,54.962 209.956 M301.600 212.985 C 301.600 213.772,302.770 214.651,304.600 215.237 C 312.584 217.795,319.625 223.780,324.324 232.001 C 326.798 236.330,327.112 235.311,324.698 230.788 C 321.116 224.079,314.252 218.048,307.297 215.499 C 305.264 214.754,303.150 213.593,302.600 212.919 C 301.707 211.825,301.600 211.832,301.600 212.985 M56.442 221.075 C 56.694 222.766,57.911 226.017,59.145 228.299 L 61.390 232.448 59.192 235.624 C 53.814 243.393,42.260 268.136,42.454 271.469 C 42.517 272.553,43.112 271.247,46.038 263.600 C 48.848 256.255,54.472 245.016,58.903 237.890 L 62.453 232.181 60.672 229.163 C 59.693 227.503,58.237 224.313,57.438 222.073 C 56.092 218.305,56.018 218.230,56.442 221.075 M264.000 231.600 C 262.607 234.460,261.632 237.250,261.835 237.800 C 262.037 238.350,262.488 237.722,262.837 236.405 C 263.186 235.088,264.481 232.298,265.715 230.205 C 266.949 228.112,267.638 226.400,267.246 226.400 C 266.854 226.400,265.393 228.740,264.000 231.600 M373.585 230.816 C 367.709 236.803,347.737 248.800,343.647 248.800 C 343.013 248.800,342.263 249.174,341.980 249.632 C 338.956 254.525,365.605 239.570,373.973 231.678 C 375.651 230.095,377.333 228.800,377.712 228.800 C 378.090 228.800,378.400 228.440,378.400 228.000 C 378.400 226.469,377.111 227.222,373.585 230.816 M162.400 230.607 C 163.562 231.825,200.195 239.479,202.359 238.956 C 203.813 238.605,202.630 238.316,192.000 236.428 C 182.726 234.782,174.018 232.967,170.800 232.010 C 167.497 231.028,161.912 230.095,162.400 230.607 M344.000 231.450 C 342.900 232.022,338.993 233.358,335.318 234.418 C 331.643 235.478,329.057 236.486,329.571 236.657 C 330.629 237.010,346.392 232.122,347.560 231.079 C 348.750 230.016,346.257 230.276,344.000 231.450 M376.431 234.831 C 376.121 237.308,376.034 239.501,376.237 239.704 C 376.440 239.907,376.860 238.046,377.169 235.569 C 377.479 233.092,377.566 230.899,377.363 230.696 C 377.160 230.493,376.740 232.354,376.431 234.831 M15.751 235.200 C 16.433 241.375,17.553 243.840,17.023 238.000 C 16.783 235.360,16.290 232.660,15.926 232.000 C 15.556 231.329,15.479 232.738,15.751 235.200 M110.400 238.113 C 108.420 239.670,105.625 241.435,104.189 242.036 C 101.110 243.323,100.459 244.596,101.520 247.252 C 102.243 249.061,102.302 248.993,102.349 246.287 C 102.390 243.960,102.762 243.279,104.200 242.904 C 105.190 242.646,107.971 240.931,110.380 239.093 L 114.760 235.752 118.780 237.179 C 120.991 237.964,123.340 238.797,124.000 239.030 C 127.019 240.099,123.502 237.899,120.163 236.631 C 115.159 234.730,114.594 234.816,110.400 238.113 M125.600 239.535 C 125.600 239.719,128.030 240.638,131.000 241.578 C 133.970 242.518,136.986 243.602,137.702 243.989 C 138.417 244.375,140.397 244.904,142.102 245.165 C 143.806 245.426,141.060 244.196,136.000 242.432 C 126.853 239.244,125.600 238.895,125.600 239.535 M207.257 239.910 C 208.389 240.281,212.169 240.796,215.657 241.055 C 220.026 241.378,221.131 241.306,219.209 240.824 C 215.368 239.860,204.599 239.037,207.257 239.910 M260.411 241.120 L 259.766 243.440 248.083 242.930 C 241.657 242.650,233.520 242.242,230.000 242.024 C 225.229 241.729,224.313 241.814,226.400 242.359 C 227.940 242.761,236.301 243.347,244.981 243.661 C 261.901 244.272,262.320 244.185,261.396 240.247 C 261.138 239.151,260.900 239.362,260.411 241.120 M374.467 244.467 C 373.950 246.517,373.678 248.345,373.861 248.528 C 374.045 248.711,374.617 247.184,375.133 245.133 C 375.650 243.083,375.922 241.255,375.739 241.072 C 375.555 240.889,374.983 242.416,374.467 244.467 M71.503 249.376 C 69.356 252.817,67.151 256.346,66.603 257.217 C 60.856 266.342,52.523 287.068,51.654 294.400 C 51.175 298.447,51.445 297.735,54.085 288.000 C 55.910 281.271,58.785 274.222,63.383 265.200 C 66.969 258.162,74.870 245.098,75.939 244.438 C 77.106 243.717,81.490 245.660,81.860 247.062 C 82.177 248.257,82.224 248.261,82.307 247.098 C 82.427 245.417,81.021 244.317,77.903 243.651 C 75.486 243.135,75.282 243.318,71.503 249.376 M18.069 246.400 C 18.895 250.693,20.068 253.013,19.484 249.200 C 19.215 247.440,18.665 245.460,18.263 244.800 C 17.785 244.018,17.718 244.575,18.069 246.400 M146.000 246.281 C 146.440 246.718,148.240 247.290,150.000 247.552 C 152.145 247.872,152.673 247.800,151.600 247.334 C 148.762 246.100,145.130 245.417,146.000 246.281 M154.400 248.681 C 155.060 249.074,157.040 249.628,158.800 249.914 C 160.812 250.240,161.555 250.168,160.800 249.719 C 160.140 249.326,158.160 248.772,156.400 248.486 C 154.388 248.160,153.645 248.232,154.400 248.681 M82.909 252.400 C 83.179 254.600,83.729 256.940,84.133 257.600 C 84.603 258.369,84.675 257.506,84.332 255.200 C 83.549 249.939,82.309 247.499,82.909 252.400 M102.899 252.800 C 103.177 254.780,103.720 257.120,104.105 258.000 C 104.561 259.041,104.630 258.343,104.301 256.000 C 104.023 254.020,103.480 251.680,103.095 250.800 C 102.639 249.759,102.570 250.457,102.899 252.800 M162.400 250.710 C 162.400 250.880,165.910 251.807,170.200 252.770 C 174.490 253.733,180.183 255.034,182.851 255.661 C 185.519 256.287,188.579 256.772,189.651 256.737 L 191.600 256.674 189.600 256.033 C 188.500 255.681,185.080 254.935,182.000 254.375 C 178.920 253.815,173.700 252.695,170.400 251.888 C 164.409 250.421,162.400 250.125,162.400 250.710 M333.659 252.431 C 327.747 254.352,326.407 255.312,326.444 257.600 C 326.456 258.289,326.931 257.942,327.560 256.787 C 328.401 255.241,329.986 254.409,334.395 253.201 C 337.552 252.337,340.306 251.352,340.515 251.015 C 341.067 250.121,340.253 250.289,333.659 252.431 M371.978 254.481 C 371.492 256.285,371.281 257.948,371.508 258.175 C 371.736 258.403,372.153 257.556,372.435 256.294 C 372.718 255.032,373.120 253.370,373.328 252.600 C 373.537 251.830,373.517 251.200,373.285 251.200 C 373.052 251.200,372.464 252.676,371.978 254.481 M20.047 253.703 C 20.021 254.419,20.882 257.299,21.961 260.103 C 24.502 266.709,24.557 265.244,22.040 258.000 C 20.970 254.920,20.073 252.986,20.047 253.703 M194.000 257.504 C 194.880 257.872,197.940 258.396,200.800 258.668 C 203.833 258.957,205.333 258.885,204.400 258.496 C 203.520 258.128,200.460 257.604,197.600 257.332 C 194.567 257.043,193.067 257.115,194.000 257.504 M85.287 262.400 C 85.558 264.380,86.107 266.540,86.507 267.200 C 87.391 268.661,86.504 262.771,85.483 260.400 C 85.041 259.374,84.971 260.091,85.287 262.400 M208.153 259.619 C 209.131 260.598,240.591 263.170,251.755 263.185 L 263.910 263.200 265.327 265.600 C 266.107 266.920,267.063 268.000,267.451 268.000 C 267.839 268.000,267.417 266.830,266.513 265.400 L 264.869 262.800 248.400 262.246 C 239.342 261.942,227.342 261.132,221.733 260.446 C 211.036 259.139,207.454 258.921,208.153 259.619 M324.790 261.226 C 323.370 264.961,318.481 271.043,314.734 273.733 C 312.792 275.128,311.354 276.421,311.540 276.606 C 312.182 277.248,318.977 271.586,321.485 268.319 C 324.498 264.395,326.744 260.078,326.106 259.439 C 325.852 259.186,325.260 259.989,324.790 261.226 M369.689 261.689 C 369.196 263.103,368.933 264.399,369.104 264.571 C 369.275 264.742,369.818 263.725,370.311 262.311 C 370.804 260.897,371.067 259.601,370.896 259.429 C 370.725 259.258,370.182 260.275,369.689 261.689 M105.322 263.200 C 105.823 267.139,107.181 270.472,107.114 267.600 C 107.094 266.720,106.579 264.560,105.970 262.800 L 104.864 259.600 105.322 263.200 M24.407 267.200 C 25.354 270.430,26.498 271.954,25.908 269.200 C 25.625 267.880,25.039 266.440,24.607 266.000 C 24.090 265.474,24.021 265.886,24.407 267.200 M87.658 271.600 C 87.927 273.360,88.489 275.340,88.908 276.000 C 89.827 277.447,88.973 272.457,87.882 270.000 C 87.396 268.908,87.326 269.416,87.658 271.600 M271.542 272.490 C 273.710 274.485,277.209 276.991,279.317 278.059 C 281.447 279.138,283.011 280.445,282.839 281.001 C 282.668 281.550,282.348 285.780,282.127 290.400 C 281.677 299.793,282.664 296.539,283.512 285.832 L 284.032 279.265 279.669 277.129 C 277.270 275.954,273.813 273.599,271.986 271.896 C 270.160 270.193,268.426 268.814,268.133 268.832 C 267.840 268.849,269.374 270.496,271.542 272.490 M107.254 270.096 C 107.194 271.086,111.357 285.533,113.335 291.200 C 116.331 299.783,118.715 306.221,120.001 309.200 C 120.761 310.960,122.038 313.924,122.839 315.786 C 123.640 317.648,124.431 319.036,124.596 318.871 C 124.761 318.705,123.287 314.662,121.320 309.885 C 117.956 301.719,112.761 286.704,109.873 276.800 C 108.297 271.396,107.326 268.910,107.254 270.096 M364.533 275.333 C 363.362 278.048,362.530 280.397,362.685 280.552 C 362.840 280.707,363.952 278.638,365.156 275.956 C 366.359 273.273,367.191 270.925,367.004 270.737 C 366.817 270.550,365.705 272.618,364.533 275.333 M41.159 274.906 C 40.873 276.168,40.261 278.640,39.798 280.400 C 38.802 284.186,37.770 295.989,38.473 295.555 C 38.741 295.389,39.184 292.612,39.457 289.383 C 39.730 286.154,40.533 281.250,41.241 278.487 C 41.949 275.723,42.337 273.270,42.103 273.036 C 41.869 272.802,41.444 273.644,41.159 274.906 M305.670 278.608 C 303.288 279.546,301.702 280.434,302.145 280.582 C 303.048 280.883,310.400 277.896,310.400 277.228 C 310.400 276.702,310.833 276.576,305.670 278.608 M28.836 278.200 C 28.885 279.008,32.718 286.134,32.764 285.502 C 32.820 284.729,29.571 277.600,29.163 277.600 C 28.963 277.600,28.816 277.870,28.836 278.200 M89.641 278.448 C 89.583 280.228,95.504 297.965,99.774 308.800 C 110.143 335.111,124.794 359.746,138.697 374.244 C 140.514 376.139,141.910 378.029,141.800 378.444 C 141.690 378.860,142.140 379.200,142.800 379.200 C 144.570 379.200,144.382 378.878,139.915 374.241 C 122.272 355.928,106.751 327.540,94.293 290.800 C 91.757 283.320,89.663 277.761,89.641 278.448 M300.460 287.000 C 300.170 289.970,299.772 294.020,299.574 296.000 C 299.284 298.912,299.353 299.182,299.935 297.414 C 300.766 294.889,301.987 281.600,301.388 281.600 C 301.167 281.600,300.749 284.030,300.460 287.000 M358.652 287.800 C 358.378 288.570,358.002 289.560,357.817 290.000 C 357.633 290.440,358.048 290.101,358.741 289.247 C 359.998 287.696,360.378 286.400,359.575 286.400 C 359.341 286.400,358.926 287.030,358.652 287.800 M351.032 301.000 C 340.965 317.673,322.831 337.368,306.400 349.475 C 296.870 356.498,293.858 358.980,297.994 356.401 C 317.345 344.339,341.507 319.164,353.085 299.000 C 356.532 292.998,354.910 294.578,351.032 301.000 M50.286 302.890 C 49.485 310.502,50.239 314.693,52.956 317.748 L 55.315 320.400 53.288 317.564 C 51.476 315.030,51.235 313.834,51.030 306.364 C 50.819 298.681,50.758 298.398,50.286 302.890 M280.506 302.200 C 279.605 306.907,279.197 313.194,279.896 311.600 C 280.731 309.699,281.939 300.000,281.342 300.000 C 281.114 300.000,280.738 300.990,280.506 302.200 M298.017 304.200 C 296.826 311.940,296.734 313.284,297.512 311.530 C 298.388 309.553,299.572 300.800,298.962 300.800 C 298.730 300.800,298.305 302.330,298.017 304.200 M294.540 321.275 C 293.517 325.634,292.121 330.924,291.438 333.031 C 290.755 335.138,290.388 337.055,290.624 337.290 C 291.423 338.089,297.002 317.382,296.641 314.961 C 296.508 314.075,295.563 316.916,294.540 321.275 M278.076 316.743 C 277.814 318.094,277.391 320.280,277.136 321.600 C 276.881 322.920,276.856 324.000,277.080 324.000 C 277.654 324.000,279.424 315.158,278.946 314.679 C 278.729 314.463,278.338 315.391,278.076 316.743 M125.672 322.200 C 134.031 344.297,157.181 374.881,172.450 384.000 L 177.138 386.800 196.769 386.682 C 207.817 386.616,217.624 386.197,219.200 385.723 C 221.795 384.943,221.679 384.906,217.600 385.216 C 192.166 387.153,177.172 386.234,171.597 382.398 C 156.611 372.088,141.726 352.972,129.705 328.600 C 125.597 320.272,123.959 317.672,125.672 322.200 M58.400 324.400 C 60.343 326.380,62.085 328.000,62.271 328.000 C 62.947 328.000,56.378 320.949,55.633 320.875 C 55.212 320.834,56.457 322.420,58.400 324.400 M275.669 327.200 C 274.884 330.703,273.010 336.945,271.399 341.418 C 270.723 343.298,270.377 345.044,270.632 345.298 C 271.296 345.963,276.967 327.415,276.602 325.772 C 276.419 324.950,276.045 325.523,275.669 327.200 M66.380 333.180 C 68.760 335.589,70.839 337.428,71.001 337.266 C 71.368 336.898,63.322 328.800,62.589 328.800 C 62.295 328.800,64.001 330.771,66.380 333.180 M76.810 342.400 C 80.700 346.223,92.478 355.302,96.000 357.191 C 98.297 358.423,95.661 356.282,87.600 350.370 C 83.200 347.143,79.411 344.299,79.181 344.051 C 78.950 343.803,77.315 342.340,75.548 340.800 C 73.780 339.260,74.348 339.980,76.810 342.400 M289.358 339.000 C 288.540 340.457,287.933 344.351,288.640 343.600 C 289.469 342.720,290.651 338.400,290.062 338.400 C 289.860 338.400,289.543 338.670,289.358 339.000 M286.822 346.400 C 286.312 348.019,280.730 360.268,279.438 362.600 C 279.255 362.930,279.324 363.200,279.592 363.200 C 280.437 363.200,288.154 346.460,287.794 345.406 C 287.605 344.853,287.168 345.300,286.822 346.400 M268.822 348.341 C 268.370 349.531,268.000 350.705,268.000 350.951 C 268.000 352.111,261.352 364.486,258.117 369.348 C 253.010 377.023,252.588 377.466,249.109 378.802 L 246.000 379.995 248.800 379.542 C 254.326 378.648,273.060 349.594,270.052 346.585 C 269.828 346.361,269.275 347.151,268.822 348.341 M277.628 365.547 C 276.565 367.534,276.585 368.000,277.733 368.000 C 278.247 368.000,278.439 367.773,278.161 367.495 C 277.884 367.217,278.016 366.317,278.456 365.495 C 278.896 364.673,279.076 364.000,278.856 364.000 C 278.636 364.000,278.084 364.696,277.628 365.547 M109.940 365.503 C 110.179 365.890,111.191 366.412,112.188 366.664 C 113.936 367.104,113.945 367.080,112.447 365.960 C 110.727 364.675,109.264 364.409,109.940 365.503 M117.600 369.200 C 119.580 370.260,121.560 371.128,122.000 371.128 C 122.440 371.128,121.180 370.260,119.200 369.200 C 117.220 368.140,115.240 367.272,114.800 367.272 C 114.360 367.272,115.620 368.140,117.600 369.200 M128.800 373.868 C 128.800 374.074,129.962 374.648,131.382 375.143 C 132.802 375.638,133.612 375.714,133.182 375.312 C 132.271 374.459,128.800 373.315,128.800 373.868 M136.000 376.728 C 136.660 377.101,138.100 377.645,139.200 377.937 L 141.200 378.467 139.200 377.262 C 138.100 376.599,136.660 376.055,136.000 376.053 C 134.933 376.049,134.933 376.124,136.000 376.728 M238.400 381.637 C 237.524 382.230,237.847 382.304,239.600 381.912 C 242.542 381.254,243.180 380.796,241.133 380.812 C 240.290 380.819,239.060 381.190,238.400 381.637 M230.234 383.140 C 228.162 383.429,226.211 383.923,225.897 384.236 C 225.205 384.928,232.555 384.016,234.800 383.132 C 236.654 382.401,235.507 382.403,230.234 383.140 M129.200 405.606 C 128.171 406.052,129.027 406.134,131.600 405.837 C 133.800 405.583,135.750 405.245,135.933 405.087 C 136.627 404.489,130.728 404.943,129.200 405.606 M148.187 410.482 C 149.389 411.380,151.308 413.258,152.452 414.657 C 153.595 416.056,154.154 416.439,153.695 415.510 C 152.815 413.726,147.546 408.782,146.572 408.825 C 146.257 408.839,146.984 409.585,148.187 410.482 M271.200 409.563 C 271.860 410.010,273.090 410.381,273.933 410.388 C 275.980 410.404,275.342 409.946,272.400 409.288 C 270.647 408.896,270.324 408.970,271.200 409.563 M128.000 410.411 C 127.156 410.965,127.630 411.045,129.600 410.684 C 133.050 410.051,133.701 409.596,131.133 409.612 C 130.070 409.619,128.660 409.978,128.000 410.411 M134.467 409.885 C 134.650 410.042,136.060 410.401,137.600 410.684 C 139.570 411.045,140.044 410.965,139.200 410.411 C 138.115 409.700,133.673 409.207,134.467 409.885 M197.200 412.033 C 194.093 412.403,194.864 412.525,200.659 412.580 C 204.761 412.619,208.001 412.554,207.859 412.436 C 207.158 411.852,200.746 411.610,197.200 412.033 M118.247 415.800 C 115.737 418.491,114.389 421.020,114.435 422.947 C 114.454 423.746,114.966 423.009,115.572 421.310 C 116.178 419.610,117.669 417.180,118.886 415.910 C 120.104 414.639,120.919 413.600,120.699 413.600 C 120.479 413.600,119.376 414.590,118.247 415.800 M183.200 417.200 C 181.709 418.300,180.829 419.187,181.245 419.171 C 182.048 419.141,187.110 415.211,186.355 415.204 C 186.111 415.202,184.691 416.100,183.200 417.200 M214.800 415.708 C 215.240 416.096,216.859 417.490,218.397 418.806 L 221.194 421.200 219.197 418.927 C 218.099 417.676,216.480 416.282,215.600 415.829 C 214.720 415.375,214.360 415.321,214.800 415.708 M197.000 416.551 C 197.770 416.753,199.030 416.753,199.800 416.551 C 200.570 416.350,199.940 416.186,198.400 416.186 C 196.860 416.186,196.230 416.350,197.000 416.551 M202.800 416.485 C 208.792 418.101,209.801 418.281,209.132 417.613 C 208.729 417.211,206.780 416.695,204.800 416.467 C 202.820 416.240,201.920 416.247,202.800 416.485 M280.800 419.600 C 282.293 421.140,283.694 422.400,283.914 422.400 C 284.134 422.400,283.093 421.140,281.600 419.600 C 280.107 418.060,278.706 416.800,278.486 416.800 C 278.266 416.800,279.307 418.060,280.800 419.600 M210.467 418.632 C 210.650 418.760,212.240 419.866,214.000 421.090 L 217.200 423.315 214.430 420.858 C 212.907 419.506,211.317 418.400,210.897 418.400 C 210.477 418.400,210.283 418.505,210.467 418.632 M177.782 422.698 C 176.802 424.129,176.000 425.597,176.000 425.961 C 176.000 426.325,176.918 425.271,178.040 423.618 C 179.161 421.965,179.963 420.497,179.822 420.355 C 179.680 420.213,178.762 421.268,177.782 422.698 M183.693 423.202 C 182.102 424.964,180.811 426.854,180.824 427.402 C 180.838 427.951,181.245 427.680,181.730 426.800 C 182.214 425.920,183.714 424.030,185.062 422.600 C 186.411 421.170,187.305 420.000,187.050 420.000 C 186.795 420.000,185.284 421.441,183.693 423.202 M289.850 423.935 C 290.800 425.670,291.699 426.967,291.848 426.819 C 292.235 426.432,289.754 421.790,288.867 421.241 C 288.458 420.988,288.900 422.201,289.850 423.935 M156.288 428.800 C 156.288 432.980,156.423 434.690,156.588 432.600 C 156.753 430.510,156.753 427.090,156.588 425.000 C 156.423 422.910,156.288 424.620,156.288 428.800 M285.761 426.782 C 286.719 428.753,287.639 430.228,287.807 430.060 C 288.169 429.698,284.936 423.200,284.394 423.200 C 284.189 423.200,284.804 424.812,285.761 426.782 M223.181 433.600 C 222.833 440.540,222.661 441.200,221.200 441.200 C 219.753 441.200,219.555 440.511,219.134 434.000 L 218.668 426.800 218.734 433.915 C 218.788 439.747,219.050 441.188,220.185 441.902 C 223.003 443.674,224.093 441.040,223.814 433.138 L 223.562 426.000 223.181 433.600 M174.904 429.000 C 174.237 431.489,174.383 534.474,175.056 536.170 C 175.355 536.924,175.600 512.714,175.600 482.370 C 175.600 452.027,175.552 427.200,175.493 427.200 C 175.435 427.200,175.170 428.010,174.904 429.000 M179.686 430.065 C 179.419 430.761,179.208 454.431,179.218 482.665 C 179.237 539.969,179.008 537.535,184.870 542.800 L 187.542 545.200 184.618 541.850 C 179.823 536.356,179.889 537.264,180.156 480.600 C 180.290 452.110,180.349 428.800,180.286 428.800 C 180.223 428.800,179.953 429.369,179.686 430.065 M293.363 434.000 C 293.617 436.200,293.955 438.150,294.113 438.333 C 294.711 439.027,294.257 433.128,293.594 431.600 C 293.148 430.571,293.066 431.427,293.363 434.000 M288.587 436.400 C 288.825 439.040,289.151 441.350,289.310 441.533 C 289.903 442.215,289.463 434.740,288.820 433.200 C 288.417 432.234,288.324 433.502,288.587 436.400 M151.453 435.600 C 151.568 436.746,152.239 437.228,153.817 437.297 C 155.744 437.383,155.774 437.352,154.059 437.049 C 152.981 436.859,151.917 436.095,151.695 435.352 C 151.404 434.376,151.337 434.445,151.453 435.600 M109.600 438.812 C 109.600 439.448,115.376 448.000,115.805 448.000 C 116.014 448.000,115.556 447.041,114.788 445.869 C 114.020 444.697,112.683 442.537,111.817 441.069 C 110.352 438.587,109.600 437.821,109.600 438.812 M117.497 442.000 C 117.929 442.880,118.869 444.320,119.586 445.200 L 120.888 446.800 120.103 445.200 C 119.671 444.320,118.731 442.880,118.014 442.000 L 116.712 440.400 117.497 442.000 M117.970 451.800 C 119.204 453.670,120.365 455.200,120.552 455.200 C 121.129 455.200,118.065 450.331,116.864 449.338 C 116.239 448.822,116.737 449.930,117.970 451.800 M124.370 461.400 C 125.604 463.270,126.765 464.800,126.952 464.800 C 127.529 464.800,124.465 459.931,123.264 458.938 C 122.639 458.422,123.137 459.530,124.370 461.400 M133.245 466.200 C 138.082 473.646,140.272 476.800,140.605 476.800 C 140.814 476.800,140.341 475.810,139.555 474.600 C 134.718 467.154,132.528 464.000,132.195 464.000 C 131.986 464.000,132.459 464.990,133.245 466.200 M292.992 465.898 C 292.515 466.946,290.939 469.197,289.492 470.902 C 287.278 473.507,287.212 473.684,289.079 472.014 C 291.501 469.847,294.800 464.933,294.221 464.355 C 294.022 464.156,293.469 464.850,292.992 465.898 M285.150 469.000 L 282.800 471.600 285.400 469.250 C 287.824 467.060,288.368 466.400,287.750 466.400 C 287.612 466.400,286.442 467.570,285.150 469.000 M223.565 502.800 C 223.565 520.840,223.670 528.334,223.799 519.454 C 223.928 510.573,223.928 495.813,223.799 486.654 C 223.671 477.494,223.566 484.760,223.565 502.800 M194.067 472.287 C 194.507 473.433,196.060 473.578,206.286 473.425 L 218.000 473.249 206.854 473.001 C 200.219 472.853,195.273 472.393,194.635 471.863 C 193.797 471.168,193.673 471.260,194.067 472.287 M218.763 503.600 C 218.763 520.320,218.869 527.274,218.999 519.053 C 219.129 510.832,219.129 497.152,218.999 488.653 C 218.869 480.154,218.763 486.880,218.763 503.600 M264.400 474.400 L 252.400 474.865 264.000 475.020 C 270.424 475.106,276.135 474.829,276.800 474.400 C 277.460 473.973,277.640 473.694,277.200 473.780 C 276.760 473.865,271.000 474.144,264.400 474.400 M134.955 477.662 C 135.750 479.015,136.911 480.545,137.536 481.062 C 138.161 481.578,137.663 480.470,136.430 478.600 C 133.840 474.673,132.819 474.024,134.955 477.662 M142.155 480.062 C 142.950 481.415,144.111 482.945,144.736 483.462 C 145.361 483.978,144.863 482.870,143.630 481.000 C 141.040 477.073,140.019 476.424,142.155 480.062 M264.000 479.200 L 253.200 479.671 263.600 479.779 C 269.320 479.839,274.720 479.578,275.600 479.200 C 276.480 478.822,276.660 478.561,276.000 478.621 C 275.340 478.680,269.940 478.941,264.000 479.200 M244.200 479.751 C 244.970 479.953,246.230 479.953,247.000 479.751 C 247.770 479.550,247.140 479.386,245.600 479.386 C 244.060 479.386,243.430 479.550,244.200 479.751 M139.755 484.862 C 140.550 486.215,141.711 487.745,142.336 488.262 C 142.961 488.778,142.463 487.670,141.230 485.800 C 138.640 481.873,137.619 481.224,139.755 484.862 M143.897 490.800 C 144.329 491.680,145.269 493.120,145.986 494.000 L 147.288 495.600 146.503 494.000 C 146.071 493.120,145.131 491.680,144.414 490.800 L 143.112 489.200 143.897 490.800 M153.884 521.200 C 153.882 525.160,154.017 526.881,154.185 525.024 C 154.352 523.167,154.354 519.927,154.189 517.824 C 154.024 515.721,153.886 517.240,153.884 521.200 M108.284 524.400 C 108.282 528.360,108.417 530.081,108.585 528.224 C 108.752 526.367,108.754 523.127,108.589 521.024 C 108.424 518.921,108.286 520.440,108.284 524.400 M114.400 535.727 C 114.400 536.164,115.390 537.394,116.600 538.461 L 118.800 540.400 116.800 538.000 C 115.700 536.680,114.710 535.450,114.600 535.267 C 114.490 535.083,114.400 535.291,114.400 535.727 M109.600 536.385 C 109.600 538.704,117.501 547.200,119.658 547.200 C 120.003 547.200,118.932 546.191,117.279 544.959 C 115.626 543.726,113.222 541.152,111.937 539.238 C 110.651 537.325,109.600 536.041,109.600 536.385 M153.232 541.400 C 150.375 544.893,150.335 545.006,152.731 542.800 C 155.025 540.688,157.321 537.600,156.598 537.600 C 156.455 537.600,154.941 539.310,153.232 541.400 M177.120 540.400 C 177.749 541.720,179.632 544.060,181.304 545.600 L 184.344 548.400 181.172 544.747 C 179.427 542.739,177.545 540.399,176.989 539.547 C 176.432 538.696,176.492 539.080,177.120 540.400 M213.653 541.814 C 211.375 544.622,211.285 544.859,213.126 543.200 C 215.040 541.476,217.312 538.371,216.628 538.414 C 216.503 538.422,215.164 539.952,213.653 541.814 M140.800 548.800 C 139.152 549.328,139.082 549.452,140.400 549.508 C 141.280 549.545,142.540 549.227,143.200 548.800 C 144.602 547.894,143.629 547.894,140.800 548.800 M210.000 550.076 C 207.800 551.144,206.900 551.789,208.000 551.508 C 210.344 550.909,214.400 548.927,214.400 548.379 C 214.400 547.906,214.730 547.778,210.000 550.076 M190.000 551.200 C 190.880 551.578,192.140 551.888,192.800 551.888 C 193.556 551.888,193.409 551.633,192.400 551.200 C 191.520 550.822,190.260 550.512,189.600 550.512 C 188.844 550.512,188.991 550.767,190.000 551.200 " stroke="none" fill="#61a0df" fill-rule="evenodd"></path><path id="path3" d="M190.558 14.047 C 182.430 16.235,182.018 17.071,188.724 17.767 C 195.004 18.418,197.007 19.123,193.133 19.317 C 191.850 19.382,193.320 19.677,196.400 19.974 C 203.881 20.695,212.713 26.122,221.832 35.600 C 226.092 40.029,239.022 57.430,240.557 60.800 C 240.857 61.460,242.115 63.726,243.351 65.835 C 246.144 70.598,246.146 71.454,243.376 75.085 C 239.765 79.817,236.828 87.427,236.809 92.102 C 236.798 94.610,236.142 95.169,230.400 97.557 C 219.502 102.089,197.753 112.769,191.911 116.456 C 190.218 117.525,188.654 118.400,188.437 118.400 C 185.976 118.400,149.205 143.402,135.615 154.315 C 127.067 161.180,111.831 174.483,106.912 179.376 C 105.600 180.682,104.065 181.490,103.312 181.271 C 102.591 181.062,99.949 180.310,97.442 179.601 C 92.931 178.324,92.879 178.275,92.357 174.791 C 90.670 163.541,93.984 116.245,97.654 99.200 C 101.442 81.607,105.300 68.764,109.565 59.549 C 110.904 56.656,112.000 54.140,112.000 53.958 C 112.000 53.171,118.915 42.418,122.012 38.389 C 125.075 34.405,125.959 33.799,131.167 32.122 C 134.338 31.101,136.737 30.071,136.499 29.832 C 136.261 29.594,134.567 30.000,132.733 30.733 C 130.900 31.467,129.248 31.915,129.062 31.729 C 127.775 30.442,138.372 23.723,145.252 21.465 C 151.618 19.375,150.715 18.544,141.983 18.456 C 127.222 18.308,112.130 27.501,101.717 42.981 C 99.874 45.720,97.577 48.384,96.613 48.900 C 84.759 55.244,60.041 78.130,50.104 91.961 C 45.489 98.385,47.440 96.642,52.915 89.449 C 63.381 75.700,100.575 42.858,97.509 50.073 C 97.339 50.473,95.901 53.500,94.314 56.800 C 85.407 75.316,81.072 90.702,76.843 118.800 C 75.227 129.537,74.172 146.125,73.969 164.000 C 73.732 184.869,73.841 183.200,72.715 183.200 C 72.228 183.200,70.420 184.317,68.696 185.682 C 64.724 188.828,63.684 188.556,56.000 182.360 C 38.585 168.315,24.826 150.406,24.645 141.546 C 24.615 140.036,24.191 138.300,23.705 137.690 C 23.219 137.079,22.821 133.757,22.821 130.308 C 22.821 123.172,22.027 123.132,19.293 130.129 C 17.109 135.718,16.381 144.775,17.557 151.745 C 18.369 156.561,18.316 158.042,17.193 161.907 C 16.469 164.396,16.039 166.875,16.236 167.416 C 16.434 167.957,16.872 166.960,17.209 165.200 C 18.627 157.816,19.126 157.503,21.238 162.671 C 25.517 173.141,35.550 185.477,49.600 197.542 L 56.400 203.382 56.125 209.943 C 55.820 217.227,57.059 222.646,60.395 228.614 L 62.419 232.235 58.886 237.918 C 53.037 247.324,47.129 259.847,43.184 271.200 C 41.659 275.589,40.026 283.410,39.561 288.563 C 38.887 296.009,38.650 296.608,37.121 294.723 C 35.998 293.338,35.991 293.417,37.042 295.600 C 37.678 296.920,38.801 301.197,39.540 305.104 C 41.301 314.428,44.552 320.700,50.928 327.077 C 56.319 332.467,58.058 333.065,55.440 328.628 C 53.382 325.139,51.111 318.391,51.683 317.465 C 51.933 317.061,51.693 316.194,51.149 315.538 C 46.117 309.475,55.142 275.414,66.603 257.217 C 67.151 256.346,69.356 252.817,71.503 249.376 C 75.282 243.318,75.486 243.135,77.903 243.651 C 81.618 244.445,82.033 245.041,83.576 251.798 C 95.951 305.998,115.865 349.277,139.915 374.241 C 145.248 379.777,145.228 379.838,138.674 377.991 C 137.863 377.763,138.280 378.105,139.600 378.752 C 140.920 379.399,142.641 379.944,143.425 379.964 C 144.209 379.984,147.468 381.970,150.667 384.378 C 166.483 396.282,183.728 399.634,197.321 393.445 L 201.200 391.679 194.800 391.178 C 188.598 390.693,181.600 389.044,181.600 388.068 C 181.600 387.805,186.910 387.699,193.400 387.834 C 199.890 387.969,207.338 387.791,209.952 387.440 C 213.201 387.002,208.758 386.797,195.907 386.792 L 177.110 386.783 172.436 383.992 C 157.461 375.048,136.680 347.928,126.467 324.000 C 124.321 318.972,121.063 311.558,119.962 309.200 C 116.545 301.878,108.132 275.653,105.206 263.200 C 100.345 242.513,100.380 244.092,104.733 241.791 C 106.676 240.764,109.608 238.861,111.248 237.562 C 115.086 234.522,115.932 234.575,124.400 238.393 C 127.402 239.747,145.982 245.689,153.600 247.733 C 163.752 250.456,170.905 252.087,190.000 256.035 C 205.482 259.235,237.037 262.336,254.535 262.377 L 264.670 262.400 266.481 265.400 C 269.084 269.711,274.697 274.694,279.718 277.153 L 284.060 279.279 283.534 285.439 C 282.856 293.394,280.395 309.936,278.749 317.600 C 278.041 320.900,277.154 325.070,276.780 326.867 C 272.868 345.619,256.611 378.157,250.717 379.033 C 249.856 379.161,248.802 380.061,248.376 381.033 C 246.889 384.421,234.592 391.200,229.933 391.200 C 228.771 391.200,228.680 391.400,229.480 392.200 C 231.070 393.790,244.355 393.477,249.200 391.736 C 257.338 388.812,267.831 380.548,273.147 372.877 C 274.502 370.921,276.564 369.228,278.567 368.426 C 280.345 367.715,281.606 366.939,281.368 366.702 C 281.131 366.464,280.155 366.689,279.200 367.200 C 276.426 368.685,276.563 367.841,280.251 360.719 C 283.195 355.033,285.102 350.582,289.640 338.800 C 291.813 333.160,296.273 315.265,297.600 306.863 C 298.081 303.818,298.599 301.118,298.752 300.863 C 298.904 300.609,299.442 296.440,299.948 291.600 C 301.154 280.053,300.958 280.468,306.138 278.486 C 315.970 274.723,323.939 266.132,326.779 256.235 C 327.180 254.837,328.732 254.026,334.243 252.335 C 338.069 251.160,341.542 249.885,341.960 249.500 C 342.378 249.115,343.188 248.800,343.759 248.800 C 347.751 248.800,367.798 236.712,373.585 230.816 C 377.958 226.359,378.322 226.341,377.954 230.600 C 377.722 233.275,377.879 232.976,378.687 229.200 C 379.252 226.560,380.603 222.960,381.690 221.200 C 386.970 212.646,389.371 201.599,387.482 194.548 C 387.065 192.989,386.750 193.399,385.486 197.140 C 384.661 199.584,383.271 202.758,382.396 204.192 L 380.806 206.800 380.704 201.200 C 380.647 198.120,380.332 193.080,380.002 190.000 C 379.636 186.583,379.564 189.127,379.816 196.526 L 380.230 208.652 375.959 213.168 C 367.974 221.611,354.814 229.081,338.800 234.259 C 327.313 237.973,326.863 237.992,325.704 234.786 C 322.908 227.055,313.690 218.369,305.217 215.482 L 301.795 214.316 300.918 206.958 C 300.435 202.911,299.843 197.440,299.602 194.800 C 298.290 180.450,292.609 150.841,287.706 132.800 L 285.641 125.200 288.220 123.231 C 296.760 116.713,301.537 109.327,303.328 99.872 L 304.338 94.543 311.369 93.987 C 320.336 93.277,331.592 94.128,338.985 96.076 C 342.167 96.914,344.977 97.600,345.230 97.600 C 345.483 97.600,346.798 98.770,348.151 100.200 C 349.505 101.630,350.363 102.350,350.059 101.800 C 348.318 98.652,354.483 102.447,360.600 108.287 C 364.630 112.134,365.033 111.025,361.962 104.538 C 357.970 96.109,348.885 87.850,339.453 84.077 C 336.634 82.950,333.024 79.995,326.000 73.068 C 320.720 67.861,314.780 62.379,312.800 60.886 C 310.540 59.183,311.135 59.909,314.400 62.838 C 331.248 77.954,335.385 83.522,327.764 80.823 C 326.354 80.324,319.541 79.699,312.625 79.435 L 300.050 78.955 298.029 75.900 C 295.216 71.649,291.139 68.082,285.344 64.801 L 280.400 62.002 269.941 62.001 L 259.482 62.000 256.810 57.600 C 251.035 48.092,242.762 37.514,235.946 30.922 C 227.961 23.201,228.123 23.442,230.600 22.965 C 231.893 22.715,231.664 22.587,229.784 22.509 C 228.345 22.449,225.822 21.550,224.177 20.512 C 212.901 13.393,201.285 11.160,190.558 14.047 M179.014 20.580 C 180.452 20.758,182.612 20.754,183.814 20.572 C 185.016 20.389,183.840 20.243,181.200 20.248 C 178.560 20.252,177.576 20.402,179.014 20.580 M169.200 21.600 L 167.600 22.288 169.200 22.249 C 170.080 22.228,171.880 21.936,173.200 21.600 L 175.600 20.989 173.200 20.951 C 171.880 20.930,170.080 21.222,169.200 21.600 M155.580 24.032 C 155.243 24.578,155.846 24.677,157.333 24.320 C 160.398 23.583,160.688 23.200,158.181 23.200 C 157.033 23.200,155.863 23.574,155.580 24.032 M234.400 24.000 C 237.483 24.987,239.128 24.987,237.600 24.000 C 236.940 23.573,235.500 23.255,234.400 23.292 L 232.400 23.359 234.400 24.000 M148.200 25.695 C 146.770 26.108,145.600 26.606,145.600 26.803 C 145.600 27.247,150.241 26.378,152.400 25.530 L 154.000 24.901 152.400 24.923 C 151.520 24.935,149.630 25.282,148.200 25.695 M240.800 25.463 C 241.460 25.865,243.440 26.415,245.200 26.684 C 249.013 27.268,246.693 26.095,242.400 25.269 C 240.575 24.918,240.018 24.985,240.800 25.463 M139.600 28.371 C 136.510 29.786,137.947 29.807,141.600 28.400 C 143.140 27.807,143.860 27.311,143.200 27.297 C 142.540 27.283,140.920 27.767,139.600 28.371 M250.400 27.865 C 251.060 28.273,252.500 28.847,253.600 29.141 C 254.990 29.513,255.234 29.450,254.400 28.935 C 253.740 28.527,252.300 27.953,251.200 27.659 C 249.810 27.287,249.566 27.350,250.400 27.865 M256.800 30.400 C 257.460 30.827,258.540 31.175,259.200 31.175 C 260.267 31.175,260.267 31.089,259.200 30.400 C 258.540 29.973,257.460 29.625,256.800 29.625 C 255.733 29.625,255.733 29.711,256.800 30.400 M261.600 31.865 C 262.260 32.273,263.700 32.847,264.800 33.141 C 266.190 33.513,266.434 33.450,265.600 32.935 C 264.940 32.527,263.500 31.953,262.400 31.659 C 261.010 31.287,260.766 31.350,261.600 31.865 M267.200 33.931 C 267.200 34.335,275.935 38.416,276.697 38.368 C 277.363 38.326,273.196 36.084,269.856 34.688 C 268.395 34.078,267.200 33.737,267.200 33.931 M277.940 39.103 C 278.179 39.490,279.191 40.012,280.188 40.264 C 281.936 40.704,281.945 40.680,280.447 39.560 C 278.727 38.275,277.264 38.009,277.940 39.103 M286.800 43.592 C 288.587 45.078,293.655 47.817,292.400 46.619 C 291.960 46.200,290.160 45.047,288.400 44.059 C 286.640 43.071,285.920 42.861,286.800 43.592 M293.600 47.421 C 293.600 47.615,295.670 49.125,298.200 50.778 C 300.730 52.430,302.080 53.076,301.200 52.212 C 299.504 50.547,293.600 46.826,293.600 47.421 M45.511 98.200 C 43.014 101.276,40.678 104.945,41.008 105.274 C 41.199 105.466,42.644 103.638,44.219 101.211 C 47.114 96.752,47.592 95.638,45.511 98.200 M351.901 106.146 C 352.823 107.986,354.011 109.760,354.541 110.087 C 355.072 110.415,354.659 109.270,353.625 107.542 C 350.922 103.027,349.939 102.231,351.901 106.146 M356.840 114.478 C 357.759 116.280,358.681 117.586,358.888 117.378 C 359.277 116.990,356.106 111.200,355.505 111.200 C 355.319 111.200,355.920 112.675,356.840 114.478 M245.075 116.522 C 250.212 122.358,260.716 128.000,266.445 128.000 C 268.434 128.000,268.564 128.295,271.263 138.998 C 277.354 163.144,281.943 190.379,282.891 208.000 L 283.299 215.600 279.222 217.546 C 270.295 221.807,262.834 232.051,261.412 242.000 C 260.619 247.545,201.489 241.030,164.000 231.268 C 150.665 227.795,149.593 227.477,136.400 223.063 C 122.125 218.287,122.491 218.534,122.996 214.054 C 123.446 210.063,122.183 203.845,119.748 198.071 L 118.092 194.142 123.246 189.344 C 134.712 178.668,165.169 154.400,167.101 154.400 C 167.522 154.400,167.987 154.123,168.133 153.784 C 168.699 152.479,200.535 132.000,201.998 132.000 C 202.237 132.000,203.809 131.131,205.492 130.068 C 208.286 128.304,227.312 118.637,236.000 114.566 C 240.983 112.232,241.372 112.316,245.075 116.522 M31.267 122.035 C 28.997 127.167,29.230 127.654,31.692 122.922 C 32.802 120.789,33.535 118.869,33.322 118.655 C 33.108 118.442,32.184 119.963,31.267 122.035 M359.736 119.812 C 359.988 120.809,360.510 121.821,360.897 122.060 C 361.991 122.736,361.725 121.273,360.440 119.553 C 359.320 118.055,359.296 118.064,359.736 119.812 M361.636 123.800 C 361.685 124.608,365.518 131.734,365.564 131.102 C 365.620 130.329,362.371 123.200,361.963 123.200 C 361.763 123.200,361.616 123.470,361.636 123.800 M27.287 130.600 C 25.163 135.561,24.507 138.625,26.473 134.400 C 28.832 129.331,29.625 127.200,29.152 127.200 C 28.927 127.200,28.088 128.730,27.287 130.600 M368.463 140.000 C 369.233 142.903,370.353 144.805,370.347 143.200 C 370.345 142.540,369.801 141.100,369.138 140.000 L 367.933 138.000 368.463 140.000 M370.859 146.400 C 371.153 147.500,371.727 148.940,372.135 149.600 C 372.650 150.434,372.713 150.190,372.341 148.800 C 372.047 147.700,371.473 146.260,371.065 145.600 C 370.550 144.766,370.487 145.010,370.859 146.400 M373.316 154.800 C 373.585 156.560,374.135 158.540,374.537 159.200 C 375.015 159.982,375.082 159.425,374.731 157.600 C 373.905 153.307,372.732 150.987,373.316 154.800 M375.292 162.400 C 375.329 163.060,375.648 164.500,376.000 165.600 L 376.641 167.600 376.708 165.600 C 376.745 164.500,376.427 163.060,376.000 162.400 C 375.311 161.333,375.232 161.333,375.292 162.400 M14.996 171.206 C 14.735 172.303,14.330 175.720,14.095 178.800 L 13.669 184.400 14.810 177.600 C 15.891 171.150,16.014 166.931,14.996 171.206 M377.789 175.200 C 377.789 176.740,378.064 179.080,378.400 180.400 L 379.011 182.800 379.011 180.000 C 379.011 178.460,378.736 176.120,378.400 174.800 L 377.789 172.400 377.789 175.200 M12.514 193.717 C 11.885 199.731,11.957 209.419,12.670 214.800 C 12.967 217.039,13.200 212.196,13.200 203.800 C 13.200 186.858,13.212 187.037,12.514 193.717 M14.164 229.200 C 14.410 232.280,14.932 235.340,15.325 236.000 C 16.099 237.300,15.495 231.216,14.371 226.400 C 13.935 224.531,13.867 225.463,14.164 229.200 M16.136 240.800 C 16.177 242.879,17.436 246.293,17.464 244.400 C 17.477 243.520,17.178 242.080,16.800 241.200 C 16.379 240.220,16.122 240.065,16.136 240.800 M376.098 240.800 C 376.032 241.460,375.778 242.900,375.534 244.000 C 375.150 245.729,375.213 245.807,375.998 244.577 C 376.497 243.794,376.751 242.354,376.562 241.377 C 376.373 240.400,376.164 240.140,376.098 240.800 M374.004 249.000 C 373.716 250.430,373.310 252.320,373.102 253.200 C 372.809 254.439,372.889 254.530,373.459 253.600 C 374.298 252.232,375.465 246.400,374.900 246.400 C 374.695 246.400,374.292 247.570,374.004 249.000 M18.512 250.800 C 18.512 251.680,18.822 253.120,19.200 254.000 L 19.888 255.600 19.888 254.000 C 19.888 253.120,19.578 251.680,19.200 250.800 L 18.512 249.200 18.512 250.800 M371.289 259.289 C 370.796 260.703,370.533 261.999,370.704 262.171 C 370.875 262.342,371.418 261.325,371.911 259.911 C 372.404 258.497,372.667 257.201,372.496 257.029 C 372.325 256.858,371.782 257.875,371.289 259.289 M22.744 264.400 C 23.057 265.720,23.658 267.152,24.078 267.582 C 24.499 268.012,24.420 267.112,23.903 265.582 C 22.692 262.000,22.010 261.304,22.744 264.400 M369.200 264.800 C 368.900 265.746,368.834 266.701,369.054 266.921 C 369.274 267.141,369.700 266.546,370.000 265.600 C 370.300 264.654,370.366 263.699,370.146 263.479 C 369.926 263.259,369.500 263.854,369.200 264.800 M25.236 271.400 C 25.535 272.390,26.109 273.552,26.512 273.982 C 26.914 274.412,26.838 273.602,26.343 272.182 C 25.330 269.276,24.395 268.615,25.236 271.400 M27.200 276.247 C 27.200 276.823,27.735 277.993,28.389 278.847 C 29.477 280.268,29.504 280.179,28.711 277.800 C 27.805 275.085,27.200 274.463,27.200 276.247 M29.600 281.112 C 29.600 282.035,34.418 291.519,35.335 292.400 C 35.793 292.840,34.827 290.500,33.190 287.200 C 30.111 280.996,29.600 280.129,29.600 281.112 M360.134 286.359 C 359.666 287.702,359.453 288.800,359.661 288.800 C 360.201 288.800,361.711 284.644,361.315 284.248 C 361.133 284.067,360.602 285.017,360.134 286.359 M352.196 300.376 C 349.980 304.125,348.466 307.006,348.833 306.780 C 349.809 306.176,356.937 294.271,356.553 293.886 C 356.373 293.707,354.413 296.627,352.196 300.376 M341.300 316.176 C 340.192 317.592,339.446 318.912,339.642 319.109 C 339.839 319.306,340.091 319.317,340.203 319.133 C 340.314 318.950,341.225 317.630,342.227 316.200 C 344.577 312.844,343.921 312.827,341.300 316.176 M52.000 317.878 C 52.000 318.239,53.760 320.394,55.912 322.667 C 58.064 324.940,60.758 327.925,61.899 329.300 C 63.040 330.675,67.670 335.137,72.187 339.215 L 80.400 346.630 71.121 337.515 C 66.018 332.502,59.628 325.885,56.921 322.811 C 54.215 319.737,52.000 317.517,52.000 317.878 M325.622 333.460 C 318.375 340.797,314.955 344.582,318.022 341.872 C 324.277 336.345,340.232 319.874,339.150 320.060 C 338.957 320.094,332.870 326.124,325.622 333.460 M80.800 346.687 C 80.800 346.886,82.638 348.370,84.883 349.984 C 87.129 351.597,88.731 352.536,88.443 352.069 C 87.841 351.095,80.800 346.137,80.800 346.687 M308.400 348.864 C 304.343 351.931,303.000 353.312,305.200 352.154 C 306.965 351.225,312.637 346.471,312.000 346.455 C 311.780 346.449,310.160 347.533,308.400 348.864 M89.958 353.533 C 90.788 354.876,101.603 361.863,102.094 361.373 C 102.302 361.165,100.746 360.002,98.636 358.789 C 96.526 357.576,93.568 355.667,92.063 354.547 C 90.558 353.426,89.611 352.970,89.958 353.533 M302.040 353.535 C 301.754 353.997,299.007 355.869,295.934 357.695 C 292.861 359.520,290.495 361.161,290.675 361.342 C 290.999 361.665,297.814 357.711,301.574 355.018 C 302.635 354.259,303.291 353.425,303.032 353.165 C 302.772 352.906,302.326 353.072,302.040 353.535 M111.200 366.763 C 111.200 367.171,118.329 370.420,119.102 370.364 C 119.734 370.318,112.608 366.485,111.800 366.436 C 111.470 366.416,111.200 366.563,111.200 366.763 M121.153 371.640 C 122.873 372.925,124.336 373.191,123.660 372.097 C 123.421 371.710,122.409 371.188,121.412 370.936 C 119.664 370.496,119.655 370.520,121.153 371.640 M125.200 373.453 C 125.640 373.912,127.080 374.515,128.400 374.794 C 130.057 375.144,130.429 375.068,129.600 374.547 C 127.654 373.325,124.269 372.484,125.200 373.453 M132.000 375.865 C 132.660 376.273,134.100 376.847,135.200 377.141 C 136.590 377.513,136.834 377.450,136.000 376.935 C 135.340 376.527,133.900 375.953,132.800 375.659 C 131.410 375.287,131.166 375.350,132.000 375.865 M243.600 380.800 L 242.000 381.488 243.600 381.488 C 244.480 381.488,245.920 381.178,246.800 380.800 L 248.400 380.112 246.800 380.112 C 245.920 380.112,244.480 380.422,243.600 380.800 M236.400 382.830 C 233.245 383.922,233.240 383.930,236.000 383.465 C 239.263 382.914,242.600 381.696,240.800 381.712 C 240.140 381.718,238.160 382.221,236.400 382.830 M223.618 384.891 C 220.988 385.275,218.468 385.766,218.018 385.984 C 216.759 386.593,227.041 385.514,229.462 384.783 C 232.283 383.931,229.909 383.975,223.618 384.891 M125.712 405.718 C 124.234 406.143,123.180 406.646,123.369 406.836 C 123.559 407.026,125.309 406.681,127.257 406.070 C 131.236 404.822,129.891 404.515,125.712 405.718 M248.160 408.960 C 247.439 409.681,247.246 417.983,247.387 442.360 L 247.573 474.800 247.987 442.000 L 248.400 409.200 260.927 409.200 C 267.817 409.200,273.037 408.936,272.527 408.612 C 270.902 407.582,249.229 407.891,248.160 408.960 M114.485 411.921 C 113.118 413.198,112.000 414.508,112.000 414.833 C 112.000 415.346,117.569 410.333,117.591 409.800 C 117.616 409.220,116.723 409.830,114.485 411.921 M151.308 412.463 C 152.788 414.258,154.429 416.418,154.953 417.263 C 155.477 418.109,155.927 418.385,155.953 417.877 C 155.979 417.370,154.338 415.210,152.308 413.077 C 149.359 409.980,149.157 409.857,151.308 412.463 M143.445 413.583 C 145.512 414.894,147.921 417.144,148.799 418.583 C 149.676 420.023,150.395 420.830,150.397 420.378 C 150.405 418.209,142.865 411.200,140.523 411.200 C 140.063 411.200,141.378 412.273,143.445 413.583 M281.935 413.801 C 283.660 415.302,286.298 417.940,287.799 419.665 C 289.299 421.389,290.159 422.054,289.711 421.142 C 288.657 418.999,282.601 412.943,280.458 411.889 C 279.546 411.441,280.211 412.301,281.935 413.801 M120.033 414.895 C 117.486 417.038,115.186 420.700,115.218 422.560 C 115.227 423.132,115.902 422.131,116.717 420.336 C 117.533 418.541,119.415 416.115,120.900 414.945 C 122.385 413.775,123.358 412.814,123.061 412.809 C 122.765 412.804,121.402 413.743,120.033 414.895 M253.165 414.603 C 252.953 415.155,252.879 428.925,253.000 445.203 L 253.220 474.800 253.410 444.518 L 253.600 414.235 263.525 414.518 C 268.983 414.673,273.033 414.536,272.525 414.212 C 270.842 413.143,253.592 413.491,253.165 414.603 M275.507 416.247 C 279.102 418.520,281.770 421.205,283.692 424.484 C 286.239 428.831,286.994 429.100,284.850 424.897 C 283.222 421.706,276.467 415.163,274.887 415.247 C 274.399 415.273,274.678 415.723,275.507 416.247 M110.048 418.094 C 109.310 421.033,109.895 421.208,110.967 418.369 C 111.459 417.066,111.571 416.000,111.217 416.000 C 110.863 416.000,110.337 416.942,110.048 418.094 M198.000 416.871 C 195.432 417.251,195.866 417.356,200.200 417.403 C 203.170 417.435,205.600 417.353,205.600 417.221 C 205.600 416.651,200.936 416.436,198.000 416.871 M190.000 418.927 C 185.368 421.365,180.767 426.792,180.818 429.760 C 180.827 430.332,181.520 429.292,182.356 427.449 C 183.831 424.202,189.480 419.200,191.673 419.200 C 192.241 419.200,192.928 418.840,193.200 418.400 C 193.896 417.274,192.797 417.455,190.000 418.927 M156.400 428.397 C 156.400 433.374,156.670 437.279,157.000 437.075 C 157.774 436.599,157.763 421.495,156.988 420.275 C 156.664 419.766,156.400 423.421,156.400 428.397 M213.639 421.708 C 216.701 424.406,217.206 425.954,217.600 433.855 C 217.909 440.041,218.274 441.956,219.200 442.236 C 220.168 442.530,220.207 442.395,219.400 441.540 C 218.759 440.860,218.400 437.997,218.400 433.558 C 218.400 426.370,216.688 421.879,213.600 420.970 C 212.571 420.667,212.576 420.772,213.639 421.708 M108.504 423.400 C 107.824 425.938,107.905 437.013,108.612 438.121 C 108.936 438.627,109.200 435.117,109.200 430.320 C 109.200 420.782,109.202 420.798,108.504 423.400 M150.528 428.953 C 150.458 433.217,150.670 436.874,151.000 437.079 C 151.330 437.284,151.501 434.876,151.381 431.726 C 151.008 421.979,150.662 420.853,150.528 428.953 M114.036 427.639 C 113.246 432.904,117.139 444.000,119.775 444.000 C 120.000 444.000,119.603 443.100,118.892 442.000 C 118.181 440.900,116.981 439.042,116.224 437.871 C 115.213 436.308,114.871 434.184,114.937 429.871 C 115.040 423.097,114.804 422.514,114.036 427.639 M175.154 426.121 C 174.710 427.288,174.465 428.594,174.608 429.024 C 174.751 429.454,175.269 428.499,175.759 426.903 C 176.789 423.549,176.348 422.980,175.154 426.121 M223.878 432.499 C 224.080 437.969,223.859 440.427,223.078 441.424 C 222.105 442.666,222.136 442.693,223.400 441.702 C 224.864 440.554,225.567 426.170,224.200 425.323 C 223.870 425.118,223.725 428.348,223.878 432.499 M292.061 426.840 C 292.094 427.258,292.639 428.860,293.271 430.400 L 294.421 433.200 293.995 430.425 C 293.622 427.991,291.897 424.794,292.061 426.840 M286.458 429.200 C 286.463 429.640,286.989 431.980,287.626 434.400 L 288.785 438.800 288.316 434.800 C 287.914 431.365,286.431 426.894,286.458 429.200 M173.977 482.400 C 173.977 511.220,174.077 523.010,174.200 508.600 C 174.322 494.190,174.322 470.610,174.200 456.200 C 174.077 441.790,173.977 453.580,173.977 482.400 M180.377 482.800 C 180.377 511.400,180.477 522.984,180.600 508.542 C 180.722 494.100,180.722 470.700,180.600 456.542 C 180.477 442.384,180.377 454.200,180.377 482.800 M294.504 450.000 C 294.451 460.077,294.686 464.796,295.200 464.000 C 296.138 462.548,296.174 442.486,295.246 438.000 C 294.799 435.841,294.558 439.746,294.504 450.000 M110.955 442.462 C 111.750 443.815,112.911 445.345,113.536 445.862 C 114.161 446.378,113.663 445.270,112.430 443.400 C 109.840 439.473,108.819 438.824,110.955 442.462 M288.968 452.000 C 288.771 463.892,288.300 465.308,283.017 469.851 C 281.513 471.145,281.119 471.753,282.090 471.282 C 288.201 468.315,289.737 464.097,289.404 451.200 L 289.146 441.200 288.968 452.000 M120.646 446.000 C 121.146 446.880,122.315 448.500,123.244 449.600 L 124.933 451.600 123.467 448.938 C 122.660 447.475,121.491 445.855,120.869 445.338 C 119.918 444.550,119.883 444.655,120.646 446.000 M115.735 449.612 C 116.518 450.939,117.996 453.009,119.019 454.212 C 120.042 455.416,119.550 454.330,117.926 451.800 C 114.849 447.006,113.255 445.415,115.735 449.612 M125.296 453.000 C 127.353 456.484,133.008 464.800,133.320 464.800 C 133.779 464.800,133.425 464.195,128.984 457.400 C 127.043 454.430,125.287 452.000,125.080 452.000 C 124.874 452.000,124.971 452.450,125.296 453.000 M122.155 459.262 C 122.950 460.615,124.111 462.145,124.736 462.662 C 125.361 463.178,124.863 462.070,123.630 460.200 C 121.040 456.273,120.019 455.624,122.155 459.262 M126.105 465.000 C 129.220 470.195,133.687 476.800,134.087 476.800 C 134.585 476.800,134.121 476.024,128.950 468.200 C 126.552 464.573,124.393 462.143,126.105 465.000 M135.695 468.800 C 138.423 472.923,138.977 472.927,136.624 468.806 C 135.621 467.050,134.525 465.610,134.189 465.606 C 133.852 465.603,134.530 467.040,135.695 468.800 M293.600 466.469 C 293.600 466.947,291.556 469.335,289.057 471.774 C 286.558 474.213,285.231 475.826,286.107 475.357 C 289.379 473.605,295.856 465.600,294.000 465.600 C 293.780 465.600,293.600 465.991,293.600 466.469 M193.768 469.628 C 193.019 470.827,192.981 471.617,193.622 472.628 C 194.220 473.569,194.387 473.623,194.155 472.800 C 193.968 472.140,194.140 470.970,194.536 470.200 C 195.510 468.306,221.584 468.053,223.136 469.922 C 223.820 470.747,224.005 479.860,223.834 504.248 C 223.705 522.509,223.864 537.034,224.188 536.525 C 225.408 534.604,224.903 470.388,223.657 469.143 C 221.596 467.081,195.090 467.512,193.768 469.628 M276.400 473.228 C 274.400 474.192,274.333 474.303,276.000 473.895 C 278.267 473.341,280.815 472.043,279.600 472.060 C 279.160 472.067,277.720 472.592,276.400 473.228 M206.990 474.198 L 217.581 474.446 217.800 504.623 L 218.020 534.800 218.210 504.200 L 218.400 473.600 207.400 473.775 L 196.400 473.949 206.990 474.198 M242.133 474.933 C 241.299 475.768,241.508 479.049,242.432 479.620 C 242.968 479.951,243.086 479.426,242.765 478.144 C 242.402 476.700,242.668 475.921,243.733 475.302 C 244.933 474.604,244.970 474.444,243.933 474.424 C 243.237 474.411,242.427 474.640,242.133 474.933 M140.497 476.200 C 143.967 482.067,155.467 498.575,153.176 494.400 C 151.396 491.156,140.736 475.200,140.349 475.200 C 140.105 475.200,140.172 475.650,140.497 476.200 M135.733 479.862 C 136.540 481.325,137.709 482.945,138.331 483.462 C 139.850 484.722,138.355 482.040,135.956 479.200 L 134.267 477.200 135.733 479.862 M275.600 479.200 C 274.591 479.633,274.444 479.888,275.200 479.888 C 275.860 479.888,277.120 479.578,278.000 479.200 C 279.009 478.767,279.156 478.512,278.400 478.512 C 277.740 478.512,276.480 478.822,275.600 479.200 M247.392 515.772 C 247.181 555.617,247.153 555.394,252.000 552.800 C 253.568 551.961,253.596 551.225,253.408 515.772 L 253.217 479.600 253.000 515.800 L 252.784 552.000 250.400 552.000 L 248.016 552.000 247.800 515.800 L 247.583 479.600 247.392 515.772 M141.524 488.659 C 142.011 489.567,142.803 490.554,143.284 490.852 C 143.911 491.240,143.909 490.925,143.276 489.741 C 142.789 488.833,141.997 487.846,141.516 487.548 C 140.889 487.160,140.891 487.475,141.524 488.659 M146.128 495.400 C 146.470 495.950,147.931 498.359,149.375 500.753 C 150.819 503.147,152.000 504.648,152.000 504.089 C 152.000 503.042,146.537 494.400,145.875 494.400 C 145.672 494.400,145.785 494.850,146.128 495.400 M155.696 499.754 C 156.961 502.018,158.117 503.750,158.266 503.601 C 158.739 503.127,155.902 497.715,154.625 496.655 C 153.950 496.094,154.432 497.489,155.696 499.754 M158.492 505.600 C 158.529 506.260,158.848 507.700,159.200 508.800 L 159.841 510.800 159.908 508.800 C 159.945 507.700,159.627 506.260,159.200 505.600 C 158.511 504.533,158.432 504.533,158.492 505.600 M152.423 507.022 C 153.089 509.455,153.108 530.503,152.446 532.905 C 151.980 534.596,152.024 534.639,152.852 533.310 C 154.163 531.206,154.204 508.880,152.900 506.777 C 151.977 505.287,151.951 505.300,152.423 507.022 M159.373 522.935 C 159.278 528.289,158.993 533.329,158.740 534.135 C 158.317 535.481,158.351 535.488,159.164 534.227 C 159.727 533.354,159.958 529.272,159.798 523.027 L 159.546 513.200 159.373 522.935 M108.028 516.747 C 107.573 517.598,107.271 521.108,107.357 524.547 L 107.513 530.800 107.760 525.200 C 108.128 516.854,108.400 516.151,111.403 515.779 L 114.000 515.456 111.428 515.328 C 109.617 515.238,108.611 515.658,108.028 516.747 M113.734 523.600 C 113.597 531.483,114.507 536.036,116.553 537.713 C 117.621 538.588,117.584 538.347,116.366 536.476 C 115.218 534.711,114.734 532.016,114.357 525.276 L 113.860 516.400 113.734 523.600 M108.054 532.626 C 107.985 534.972,109.920 539.614,111.318 540.456 C 112.163 540.965,112.152 540.801,111.265 539.709 C 110.641 538.940,109.675 536.621,109.119 534.555 C 108.559 532.476,108.084 531.615,108.054 532.626 M149.736 537.587 C 148.766 538.900,146.865 540.546,145.511 541.246 C 144.158 541.945,143.266 542.733,143.529 542.996 C 144.137 543.604,149.452 539.331,151.013 536.980 C 152.757 534.354,151.785 534.816,149.736 537.587 M174.463 536.047 C 174.428 536.733,174.960 537.993,175.644 538.847 C 176.868 540.375,176.876 540.374,176.152 538.800 C 175.747 537.920,175.216 536.660,174.971 536.000 C 174.587 534.963,174.518 534.970,174.463 536.047 M215.595 538.114 C 214.751 539.681,212.786 542.044,211.230 543.365 C 209.673 544.685,209.120 545.402,210.000 544.956 C 212.643 543.619,218.348 536.482,217.473 535.607 C 217.284 535.418,216.439 536.546,215.595 538.114 M219.704 543.089 C 217.982 545.597,217.372 546.913,218.330 546.053 C 220.199 544.373,223.563 539.282,223.091 538.847 C 222.931 538.700,221.407 540.609,219.704 543.089 M118.400 539.877 C 118.400 540.771,124.807 544.260,125.386 543.681 C 125.650 543.416,125.497 543.200,125.045 543.200 C 124.593 543.200,122.913 542.311,121.312 541.224 C 119.710 540.137,118.400 539.531,118.400 539.877 M184.402 541.469 C 185.721 542.937,187.520 544.511,188.400 544.967 C 189.280 545.423,189.640 545.481,189.200 545.096 C 188.760 544.711,186.961 543.137,185.202 541.598 L 182.003 538.800 184.402 541.469 M152.194 543.147 C 150.321 544.842,147.261 546.996,145.394 547.934 C 143.527 548.872,142.900 549.401,144.000 549.110 C 146.472 548.456,151.747 544.872,154.339 542.085 C 157.128 539.087,156.143 539.575,152.194 543.147 M176.800 541.299 C 176.800 542.437,181.981 547.729,184.223 548.882 C 185.200 549.385,184.472 548.465,182.604 546.839 C 180.737 545.213,178.667 543.109,178.004 542.163 C 177.342 541.218,176.800 540.829,176.800 541.299 M112.729 542.669 C 113.898 544.125,118.400 547.554,118.400 546.988 C 118.400 546.812,116.870 545.452,115.000 543.966 C 113.130 542.480,112.108 541.896,112.729 542.669 M127.830 544.944 C 129.550 545.626,136.592 545.612,139.047 544.920 C 140.063 544.634,137.647 544.400,133.677 544.400 C 129.708 544.400,127.076 544.645,127.830 544.944 M191.200 546.341 C 191.860 546.733,193.840 547.273,195.600 547.542 C 197.726 547.866,198.263 547.796,197.200 547.335 C 194.849 546.316,189.730 545.467,191.200 546.341 M204.000 546.576 C 202.460 547.033,201.611 547.557,202.113 547.741 C 202.615 547.925,204.235 547.548,205.713 546.903 C 208.838 545.539,208.018 545.383,204.000 546.576 M120.000 547.865 C 120.660 548.273,122.100 548.847,123.200 549.141 C 124.590 549.513,124.834 549.450,124.000 548.935 C 123.340 548.527,121.900 547.953,120.800 547.659 C 119.410 547.287,119.166 547.350,120.000 547.865 M127.476 550.588 C 127.984 550.911,130.560 551.175,133.200 551.175 C 135.840 551.175,138.416 550.911,138.924 550.588 C 139.432 550.264,136.856 550.000,133.200 550.000 C 129.544 550.000,126.968 550.264,127.476 550.588 M194.800 552.800 C 198.076 553.634,203.260 553.634,205.200 552.800 C 206.243 552.352,204.292 552.126,199.600 552.151 C 194.661 552.177,193.154 552.381,194.800 552.800 " stroke="none" fill="#b8d7f4" fill-rule="evenodd"></path></g></svg>